{
.appVersion = "973";
copyright = "Copyright 2017 Google Inc. All Rights Reserved.";
customParameters = (
{
name = glyphOrder;
value = (
.notdef,
NULL,
CR,
space,
uniA6A0,
uniA6A1,
uniA6A2,
uniA6A3,
uniA6A4,
uniA6A5,
uniA6A6,
uniA6A7,
uniA6A8,
uniA6A9,
uniA6AA,
uniA6AB,
uniA6AC,
uniA6AD,
uniA6AE,
uniA6AF,
uniA6B0,
uniA6B1,
uniA6B2,
uniA6B3,
uniA6B4,
uniA6B5,
uniA6B6,
uniA6B7,
uniA6B8,
uniA6B9,
uniA6BA,
uniA6BB,
uniA6BC,
uniA6BD,
uniA6BE,
uniA6BF,
uniA6C0,
uniA6C1,
uniA6C2,
uniA6C3,
uniA6C4,
uniA6C5,
uniA6C6,
uniA6C7,
uniA6C8,
uniA6C9,
uniA6CA,
uniA6CB,
uniA6CC,
uniA6CD,
uniA6CE,
uniA6CF,
uniA6D0,
uniA6D1,
uniA6D2,
uniA6D3,
uniA6D4,
uniA6D5,
uniA6D6,
uniA6D7,
uniA6D8,
uniA6D9,
uniA6DA,
uniA6DB,
uniA6DC,
uniA6DD,
uniA6DE,
uniA6DF,
uniA6E0,
uniA6E1,
uniA6E2,
uniA6E3,
uniA6E4,
uniA6E5,
uniA6E6,
uniA6E7,
uniA6E8,
uniA6E9,
uniA6EA,
uniA6EB,
uniA6EC,
uniA6ED,
uniA6EE,
uniA6EF,
uniA6F0,
uniA6F1,
uniA6F2,
uniA6F3,
uniA6F4,
uniA6F5,
uniA6F6,
uniA6F7,
u16800,
u16801,
u16802,
u16803,
u16804,
u16805,
u16806,
u16807,
u16808,
u16809,
u1680A,
u1680B,
u1680C,
u1680D,
u1680E,
u1680F,
u16810,
u16811,
u16812,
u16813,
u16814,
u16815,
u16816,
u16817,
u16818,
u16819,
u1681A,
u1681B,
u1681C,
u1681D,
u1681E,
u1681F,
u16820,
u16821,
u16822,
u16823,
u16824,
u16825,
u16826,
u16827,
u16828,
u16829,
u1682A,
u1682B,
u1682C,
u1682D,
u1682E,
u1682F,
u16830,
u16831,
u16832,
u16833,
u16834,
u16835,
u16836,
u16837,
u16838,
u16839,
u1683A,
u1683B,
u1683C,
u1683D,
u1683E,
u1683F,
u16840,
u16841,
u16842,
u16843,
u16844,
u16845,
u16846,
u16847,
u16848,
u16849,
u1684A,
u1684B,
u1684C,
u1684D,
u1684E,
u1684F,
u16850,
u16851,
u16852,
u16853,
u16854,
u16855,
u16856,
u16857,
u16858,
u16859,
u1685A,
u1685B,
u1685C,
u1685D,
u1685E,
u1685F,
u16860,
u16861,
u16862,
u16863,
u16864,
u16865,
u16866,
u16867,
u16868,
u16869,
u1686A,
u1686B,
u1686C,
u1686D,
u1686E,
u1686F,
u16870,
u16871,
u16872,
u16873,
u16874,
u16875,
u16876,
u16877,
u16878,
u16879,
u1687A,
u1687B,
u1687C,
u1687D,
u1687E,
u1687F,
u16880,
u16881,

glyphs = (
{
glyphname = .notdef;
lastChange = "2017-02-06 14:20:45 +0000";
layers = (
{
background = {
paths = (
{
closed = 1;
nodes = (
"505 0 LINE",
"505 714 LINE",
"94 714 LINE",
"94 0 LINE"
);
},
{
closed = 1;
nodes = (
"145 663 LINE",
"454 663 LINE",
"454 51 LINE",
"145 51 LINE"
);
}
);
};
layerId = UUID0;
paths = (
{
closed = 1;
nodes = (
"505 0 LINE",
"505 714 LINE",
"94 714 LINE",
"94 0 LINE"
);
},
{
closed = 1;
nodes = (
"145 663 LINE",
"454 663 LINE",
"454 51 LINE",
"145 51 LINE"
);
}
);
width = 600;
}
);
},
{
glyphname = uniA6A0;
lastChange = "2017-02-24 16:23:59 +0000";
layers = (
{
background = {
paths = (
{
closed = 1;
nodes = (
"428 -10 OFFCURVE",
"482 118 OFFCURVE",
"482 290 CURVE SMOOTH",
"482 396 OFFCURVE",
"473 496 OFFCURVE",
"431 613 CURVE",
"446 593 OFFCURVE",
"477 554 OFFCURVE",
"496 536 CURVE SMOOTH",
"596 437 LINE",
"649 492 LINE",
"421 714 LINE",
"323 714 LINE",
"370 567 OFFCURVE",
"394 422 OFFCURVE",
"394 280 CURVE SMOOTH",
"394 135 OFFCURVE",
"358 61 OFFCURVE",
"263 61 CURVE SMOOTH",
"187 61 OFFCURVE",
"144 121 OFFCURVE",
"144 228 CURVE SMOOTH",
"144 252 OFFCURVE",
"146 290 OFFCURVE",
"153 334 CURVE",
"70 334 LINE",
"62 300 OFFCURVE",
"56 260 OFFCURVE",
"56 220 CURVE SMOOTH",
"56 94 OFFCURVE",
"117 -10 OFFCURVE",
"261 -10 CURVE SMOOTH"
);
}
);
};
layerId = UUID0;
paths = (
{
closed = 1;
nodes = (
"428 -10 OFFCURVE",
"482 118 OFFCURVE",
"482 290 CURVE SMOOTH",
"482 396 OFFCURVE",
"473 496 OFFCURVE",
"431 613 CURVE",
"446 593 OFFCURVE",
"477 554 OFFCURVE",
"496 536 CURVE SMOOTH",
"596 437 LINE",
"649 492 LINE",
"421 714 LINE",
"323 714 LINE",
"370 567 OFFCURVE",
"394 422 OFFCURVE",
"394 280 CURVE SMOOTH",
"394 135 OFFCURVE",
"358 61 OFFCURVE",
"263 61 CURVE SMOOTH",
"187 61 OFFCURVE",
"144 121 OFFCURVE",
"144 228 CURVE SMOOTH",
"144 252 OFFCURVE",
"146 290 OFFCURVE",
"153 334 CURVE",
"70 334 LINE",
"62 300 OFFCURVE",
"56 260 OFFCURVE",
"56 220 CURVE SMOOTH",
"56 94 OFFCURVE",
"117 -10 OFFCURVE",
"261 -10 CURVE SMOOTH"
);
}
);
width = 660;
}
);
unicode = A6A0;
},
{
glyphname = uniA6A1;
lastChange = "2017-02-24 16:23:59 +0000";
layers = (
{
background = {
paths = (
{
closed = 1;
nodes = (
"198 0 LINE",
"592 594 LINE",
"596 594 LINE",
"594 564 OFFCURVE",
"588 461 OFFCURVE",
"588 388 CURVE",
"588 0 LINE",
"672 0 LINE",
"672 714 LINE",
"572 714 LINE",
"179 123 LINE",
"175 123 LINE",
"178 154 OFFCURVE",
"182 255 OFFCURVE",
"182 322 CURVE",
"182 714 LINE",
"98 714 LINE",
"98 0 LINE"
);
}
);
};
layerId = UUID0;
paths = (
{
closed = 1;
nodes = (
"198 0 LINE",
"592 594 LINE",
"596 594 LINE",
"594 564 OFFCURVE",
"588 461 OFFCURVE",
"588 388 CURVE",
"588 0 LINE",
"672 0 LINE",
"672 714 LINE",
"572 714 LINE",
"179 123 LINE",
"175 123 LINE",
"178 154 OFFCURVE",
"182 255 OFFCURVE",
"182 322 CURVE",
"182 714 LINE",
"98 714 LINE",
"98 0 LINE"
);
}
);
width = 768;
}
);
unicode = A6A1;
},
{
glyphname = uniA6A2;
lastChange = "2017-02-24 16:23:59 +0000";
layers = (
{
background = {
paths = (
{
closed = 1;
nodes = (
"406 -10 OFFCURVE",
"491 79 OFFCURVE",
"491 235 CURVE",
"491 391 OFFCURVE",
"401 479 OFFCURVE",
"274 479 CURVE",
"139 479 OFFCURVE",
"55 391 OFFCURVE",
"55 235 CURVE",
"55 79 OFFCURVE",
"146 -10 OFFCURVE",
"271 -10 CURVE"
);
},
{
closed = 1;
nodes = (
"185 63 OFFCURVE",
"146 129 OFFCURVE",
"146 235 CURVE",
"146 341 OFFCURVE",
"184 405 OFFCURVE",
"272 405 CURVE",
"360 405 OFFCURVE",
"400 341 OFFCURVE",
"400 235 CURVE",
"400 129 OFFCURVE",
"360 63 OFFCURVE",
"273 63 CURVE"
);
},
{
closed = 1;
nodes = (
"421 523 LINE",
"421 594 LINE",
"124 594 LINE",
"124 523 LINE"
);
},
{
closed = 1;
nodes = (
"421 643 LINE",
"421 714 LINE",
"124 714 LINE",
"124 643 LINE"
);
}
);
};
layerId = UUID0;
paths = (
{
closed = 1;
nodes = (
"406 -10 OFFCURVE",
"491 79 OFFCURVE",
"491 235 CURVE",
"491 391 OFFCURVE",
"401 479 OFFCURVE",
"274 479 CURVE",
"139 479 OFFCURVE",
"55 391 OFFCURVE",
"55 235 CURVE",
"55 79 OFFCURVE",
"146 -10 OFFCURVE",
"271 -10 CURVE"
);
},
{
closed = 1;
nodes = (
"185 63 OFFCURVE",
"146 129 OFFCURVE",
"146 235 CURVE",
"146 341 OFFCURVE",
"184 405 OFFCURVE",
"272 405 CURVE",
"360 405 OFFCURVE",
"400 341 OFFCURVE",
"400 235 CURVE",
"400 129 OFFCURVE",
"360 63 OFFCURVE",
"273 63 CURVE"
);
},
{
closed = 1;
nodes = (
"421 523 LINE",
"421 594 LINE",
"124 594 LINE",
"124 523 LINE"
);
},
{
closed = 1;
nodes = (
"421 643 LINE",
"421 714 LINE",
"124 714 LINE",
"124 643 LINE"
);
}
);
width = 546;
}
);
unicode = A6A2;
},
{
glyphname = uniA6A3;
lastChange = "2017-02-24 16:23:59 +0000";
layers = (
{
background = {
paths = (
{
closed = 1;
nodes = (
"217 0 LINE",
"613 714 LINE",
"510 714 LINE",
"440 588 LINE",
"379 665 OFFCURVE",
"281 725 OFFCURVE",
"206 725 CURVE SMOOTH",
"131 725 OFFCURVE",
"69 681 OFFCURVE",
"69 587 CURVE SMOOTH",
"69 464 OFFCURVE",
"194 352 OFFCURVE",
"288 314 CURVE",
"114 0 LINE"
);
},
{
closed = 1;
nodes = (
"261 413 OFFCURVE",
"155 528 OFFCURVE",
"155 587 CURVE SMOOTH",
"155 618 OFFCURVE",
"176 639 OFFCURVE",
"206 639 CURVE SMOOTH",
"256 639 OFFCURVE",
"349 561 OFFCURVE",
"390 497 CURVE",
"331 391 LINE"
);
},
{
closed = 1;
nodes = (
"595 269 OFFCURVE",
"624 289 OFFCURVE",
"624 337 CURVE SMOOTH",
"624 386 OFFCURVE",
"595 404 OFFCURVE",
"561 404 CURVE SMOOTH",
"527 404 OFFCURVE",
"500 386 OFFCURVE",
"500 337 CURVE SMOOTH",
"500 289 OFFCURVE",
"527 269 OFFCURVE",
"561 269 CURVE SMOOTH"
);
}
);
};
layerId = UUID0;
paths = (
{
closed = 1;
nodes = (
"217 0 LINE",
"613 714 LINE",
"510 714 LINE",
"440 588 LINE",
"379 665 OFFCURVE",
"281 725 OFFCURVE",
"206 725 CURVE SMOOTH",
"131 725 OFFCURVE",
"69 681 OFFCURVE",
"69 587 CURVE SMOOTH",
"69 464 OFFCURVE",
"194 352 OFFCURVE",
"288 314 CURVE",
"114 0 LINE"
);
},
{
closed = 1;
nodes = (
"261 413 OFFCURVE",
"155 528 OFFCURVE",
"155 587 CURVE SMOOTH",
"155 618 OFFCURVE",
"176 639 OFFCURVE",
"206 639 CURVE SMOOTH",
"256 639 OFFCURVE",
"349 561 OFFCURVE",
"390 497 CURVE",
"331 391 LINE"
);
},
{
closed = 1;
nodes = (
"595 269 OFFCURVE",
"624 289 OFFCURVE",
"624 337 CURVE SMOOTH",
"624 386 OFFCURVE",
"595 404 OFFCURVE",
"561 404 CURVE SMOOTH",
"527 404 OFFCURVE",
"500 386 OFFCURVE",
"500 337 CURVE SMOOTH",
"500 289 OFFCURVE",
"527 269 OFFCURVE",
"561 269 CURVE SMOOTH"
);
}
);
width = 656;
}
);
unicode = A6A3;
},
{
glyphname = uniA6A4;
lastChange = "2017-02-24 16:23:59 +0000";
layers = (
{
background = {
paths = (
{
closed = 1;
nodes = (
"610 -10 OFFCURVE",
"713 59 OFFCURVE",
"713 202 CURVE SMOOTH",
"713 293 OFFCURVE",
"668 392 OFFCURVE",
"543 392 CURVE SMOOTH",
"456 392 OFFCURVE",
"384 327 OFFCURVE",
"384 197 CURVE SMOOTH",
"384 190 LINE",
"474 190 LINE",
"474 206 LINE SMOOTH",
"474 284 OFFCURVE",
"502 318 OFFCURVE",
"547 318 CURVE SMOOTH",
"590 318 OFFCURVE",
"624 273 OFFCURVE",
"624 207 CURVE SMOOTH",
"624 126 OFFCURVE",
"582 63 OFFCURVE",
"482 63 CURVE SMOOTH",
"392 63 OFFCURVE",
"314 130 OFFCURVE",
"314 235 CURVE SMOOTH",
"314 244 OFFCURVE",
"313 273 OFFCURVE",
"320 346 CURVE SMOOTH",
"340 536 LINE",
"250 536 LINE",
"223 285 LINE SMOOTH",
"209 161 OFFCURVE",
"160 78 OFFCURVE",
"50 78 CURVE SMOOTH",
"7 78 LINE",
"7 0 LINE",
"48 0 LINE SMOOTH",
"139 0 OFFCURVE",
"226 38 OFFCURVE",
"264 110 CURVE",
"308 40 OFFCURVE",
"380 -10 OFFCURVE",
"488 -10 CURVE SMOOTH"
);
},
{
closed = 1;
nodes = (
"333 603 OFFCURVE",
"357 621 OFFCURVE",
"357 659 CURVE",
"357 698 OFFCURVE",
"333 715 OFFCURVE",
"306 715 CURVE",
"277 715 OFFCURVE",
"254 698 OFFCURVE",
"254 659 CURVE",
"254 621 OFFCURVE",
"277 603 OFFCURVE",
"306 603 CURVE"
);
}
);
};
layerId = UUID0;
paths = (
{
closed = 1;
nodes = (
"610 -10 OFFCURVE",
"713 59 OFFCURVE",
"713 202 CURVE SMOOTH",
"713 293 OFFCURVE",
"668 392 OFFCURVE",
"543 392 CURVE SMOOTH",
"456 392 OFFCURVE",
"384 327 OFFCURVE",
"384 197 CURVE SMOOTH",
"384 190 LINE",
"474 190 LINE",
"474 206 LINE SMOOTH",
"474 284 OFFCURVE",
"502 318 OFFCURVE",
"547 318 CURVE SMOOTH",
"590 318 OFFCURVE",
"624 273 OFFCURVE",
"624 207 CURVE SMOOTH",
"624 126 OFFCURVE",
"582 63 OFFCURVE",
"482 63 CURVE SMOOTH",
"392 63 OFFCURVE",
"314 130 OFFCURVE",
"314 235 CURVE SMOOTH",
"314 244 OFFCURVE",
"314 286 OFFCURVE",
"320 346 CURVE SMOOTH",
"340 536 LINE",
"250 536 LINE",
"223 285 LINE SMOOTH",
"210 161 OFFCURVE",
"160 78 OFFCURVE",
"50 78 CURVE SMOOTH",
"7 78 LINE",
"7 0 LINE",
"48 0 LINE SMOOTH",
"139 0 OFFCURVE",
"226 38 OFFCURVE",
"264 110 CURVE",
"308 40 OFFCURVE",
"380 -10 OFFCURVE",
"488 -10 CURVE SMOOTH"
);
},
{
closed = 1;
nodes = (
"333 603 OFFCURVE",
"357 621 OFFCURVE",
"357 659 CURVE SMOOTH",
"357 698 OFFCURVE",
"333 715 OFFCURVE",
"306 715 CURVE SMOOTH",
"277 715 OFFCURVE",
"254 698 OFFCURVE",
"254 659 CURVE SMOOTH",
"254 621 OFFCURVE",
"277 603 OFFCURVE",
"306 603 CURVE SMOOTH"
);
}
);
width = 707;
}
);
unicode = A6A4;
},
{
glyphname = uniA6A5;
lastChange = "2017-02-24 16:23:59 +0000";
layers = (
{
background = {
paths = (
{
closed = 1;
nodes = (
"568 184 LINE",
"568 263 LINE",
"187 263 LINE",
"187 714 LINE",
"97 714 LINE",
"97 184 LINE"
);
},
{
closed = 1;
nodes = (
"361 0 OFFCURVE",
"385 18 OFFCURVE",
"385 56 CURVE",
"385 95 OFFCURVE",
"361 112 OFFCURVE",
"334 112 CURVE",
"305 112 OFFCURVE",
"282 95 OFFCURVE",
"282 56 CURVE",
"282 18 OFFCURVE",
"305 0 OFFCURVE",
"334 0 CURVE"
);
},
{
closed = 1;
nodes = (
"361 335 OFFCURVE",
"385 353 OFFCURVE",
"385 391 CURVE",
"385 430 OFFCURVE",
"361 447 OFFCURVE",
"334 447 CURVE",
"305 447 OFFCURVE",
"282 430 OFFCURVE",
"282 391 CURVE",
"282 353 OFFCURVE",
"305 335 OFFCURVE",
"334 335 CURVE"
);
}
);
};
layerId = UUID0;
paths = (
{
closed = 1;
nodes = (
"568 184 LINE",
"568 263 LINE",
"187 263 LINE",
"187 714 LINE",
"97 714 LINE",
"97 184 LINE"
);
},
{
closed = 1;
nodes = (
"361 0 OFFCURVE",
"385 18 OFFCURVE",
"385 56 CURVE SMOOTH",
"385 95 OFFCURVE",
"361 112 OFFCURVE",
"334 112 CURVE SMOOTH",
"305 112 OFFCURVE",
"282 95 OFFCURVE",
"282 56 CURVE SMOOTH",
"282 18 OFFCURVE",
"305 0 OFFCURVE",
"334 0 CURVE SMOOTH"
);
},
{
closed = 1;
nodes = (
"361 335 OFFCURVE",
"385 353 OFFCURVE",
"385 391 CURVE SMOOTH",
"385 430 OFFCURVE",
"361 447 OFFCURVE",
"334 447 CURVE SMOOTH",
"305 447 OFFCURVE",
"282 430 OFFCURVE",
"282 391 CURVE SMOOTH",
"282 353 OFFCURVE",
"305 335 OFFCURVE",
"334 335 CURVE SMOOTH"
);
}
);
width = 617;
}
);
unicode = A6A5;
},
{
glyphname = uniA6A6;
lastChange = "2017-02-24 16:23:59 +0000";
layers = (
{
background = {
paths = (
{
closed = 1;
nodes = (
"285 197 LINE SMOOTH",
"485 197 OFFCURVE",
"533 279 OFFCURVE",
"533 357 CURVE SMOOTH",
"533 447 OFFCURVE",
"479 516 OFFCURVE",
"285 516 CURVE SMOOTH",
"79 516 LINE",
"79 437 LINE",
"285 437 LINE SMOOTH",
"404 437 OFFCURVE",
"442 410 OFFCURVE",
"442 357 CURVE SMOOTH",
"442 303 OFFCURVE",
"398 276 OFFCURVE",
"285 276 CURVE SMOOTH",
"79 276 LINE",
"79 197 LINE"
);
},
{
closed = 1;
nodes = (
"258 0 OFFCURVE",
"282 18 OFFCURVE",
"282 56 CURVE",
"282 95 OFFCURVE",
"258 112 OFFCURVE",
"231 112 CURVE",
"202 112 OFFCURVE",
"179 95 OFFCURVE",
"179 56 CURVE",
"179 18 OFFCURVE",
"202 0 OFFCURVE",
"231 0 CURVE"
);
},
{
closed = 1;
nodes = (
"258 602 OFFCURVE",
"282 620 OFFCURVE",
"282 658 CURVE",
"282 697 OFFCURVE",
"258 714 OFFCURVE",
"231 714 CURVE",
"202 714 OFFCURVE",
"179 697 OFFCURVE",
"179 658 CURVE",
"179 620 OFFCURVE",
"202 602 OFFCURVE",
"231 602 CURVE"
);
}
);
};
layerId = UUID0;
paths = (
{
closed = 1;
nodes = (
"285 197 LINE SMOOTH",
"485 197 OFFCURVE",
"533 279 OFFCURVE",
"533 357 CURVE SMOOTH",
"533 447 OFFCURVE",
"479 516 OFFCURVE",
"285 516 CURVE SMOOTH",
"79 516 LINE",
"79 437 LINE",
"285 437 LINE SMOOTH",
"404 437 OFFCURVE",
"442 410 OFFCURVE",
"442 357 CURVE SMOOTH",
"442 303 OFFCURVE",
"398 276 OFFCURVE",
"285 276 CURVE SMOOTH",
"79 276 LINE",
"79 197 LINE"
);
},
{
closed = 1;
nodes = (
"258 0 OFFCURVE",
"282 18 OFFCURVE",
"282 56 CURVE SMOOTH",
"282 95 OFFCURVE",
"258 112 OFFCURVE",
"231 112 CURVE SMOOTH",
"202 112 OFFCURVE",
"179 95 OFFCURVE",
"179 56 CURVE SMOOTH",
"179 18 OFFCURVE",
"202 0 OFFCURVE",
"231 0 CURVE SMOOTH"
);
},
{
closed = 1;
nodes = (
"258 602 OFFCURVE",
"282 620 OFFCURVE",
"282 658 CURVE SMOOTH",
"282 697 OFFCURVE",
"258 714 OFFCURVE",
"231 714 CURVE SMOOTH",
"202 714 OFFCURVE",
"179 697 OFFCURVE",
"179 658 CURVE SMOOTH",
"179 620 OFFCURVE",
"202 602 OFFCURVE",
"231 602 CURVE SMOOTH"
);
}
);
width = 578;
}
);
unicode = A6A6;
},
{
glyphname = uniA6A7;
lastChange = "2017-02-24 16:23:59 +0000";
layers = (
{
background = {
paths = (
{
closed = 1;
nodes = (
"121 0 LINE",
"177 104 OFFCURVE",
"234 204 OFFCURVE",
"292 300 CURVE",
"308 272 OFFCURVE",
"323 247 OFFCURVE",
"344 217 CURVE SMOOTH",
"493 0 LINE",
"604 0 LINE",
"343 381 LINE",
"409 486 OFFCURVE",
"476 583 OFFCURVE",
"544 671 CURVE",
"544 714 LINE",
"76 714 LINE",
"76 636 LINE",
"418 636 LINE",
"271 438 OFFCURVE",
"157 253 OFFCURVE",
"18 0 CURVE"
);
}
);
};
layerId = UUID0;
paths = (
{
closed = 1;
nodes = (
"121 0 LINE",
"177 104 OFFCURVE",
"234 204 OFFCURVE",
"292 300 CURVE",
"308 272 OFFCURVE",
"323 247 OFFCURVE",
"344 217 CURVE SMOOTH",
"493 0 LINE",
"604 0 LINE",
"343 381 LINE",
"409 486 OFFCURVE",
"476 583 OFFCURVE",
"544 671 CURVE",
"544 714 LINE",
"76 714 LINE",
"76 636 LINE",
"418 636 LINE",
"271 438 OFFCURVE",
"157 253 OFFCURVE",
"18 0 CURVE"
);
}
);
width = 606;
}
);
unicode = A6A7;
},
{
glyphname = uniA6A8;
lastChange = "2017-02-24 16:23:59 +0000";
layers = (
{
background = {
paths = (
{
closed = 1;
nodes = (
"438 0 LINE",
"433 62 OFFCURVE",
"430 122 OFFCURVE",
"430 181 CURVE SMOOTH",
"430 357 OFFCURVE",
"453 518 OFFCURVE",
"488 671 CURVE",
"488 714 LINE",
"20 714 LINE",
"20 636 LINE",
"397 636 LINE",
"364 477 OFFCURVE",
"346 320 OFFCURVE",
"346 136 CURVE SMOOTH",
"346 92 OFFCURVE",
"347 47 OFFCURVE",
"349 0 CURVE"
);
}
);
};
layerId = UUID0;
paths = (
{
closed = 1;
nodes = (
"438 0 LINE",
"433 62 OFFCURVE",
"430 122 OFFCURVE",
"430 181 CURVE SMOOTH",
"430 357 OFFCURVE",
"453 518 OFFCURVE",
"488 671 CURVE",
"488 714 LINE",
"20 714 LINE",
"20 636 LINE",
"397 636 LINE",
"364 477 OFFCURVE",
"346 320 OFFCURVE",
"346 136 CURVE SMOOTH",
"346 92 OFFCURVE",
"347 47 OFFCURVE",
"349 0 CURVE"
);
}
);
width = 550;
}
);
unicode = A6A8;
},
{
glyphname = uniA6A9;
lastChange = "2017-02-24 16:23:59 +0000";
layers = (
{
background = {
paths = (
{
closed = 1;
nodes = (
"536 168 OFFCURVE",
"670 273 OFFCURVE",
"670 467 CURVE SMOOTH",
"670 628 OFFCURVE",
"600 725 OFFCURVE",
"481 725 CURVE SMOOTH",
"399 725 OFFCURVE",
"307 675 OFFCURVE",
"307 520 CURVE SMOOTH",
"307 457 OFFCURVE",
"315 419 OFFCURVE",
"323 388 CURVE",
"410 388 LINE",
"400 422 OFFCURVE",
"393 472 OFFCURVE",
"393 520 CURVE SMOOTH",
"393 625 OFFCURVE",
"442 652 OFFCURVE",
"485 652 CURVE SMOOTH",
"544 652 OFFCURVE",
"581 584 OFFCURVE",
"581 472 CURVE SMOOTH",
"581 352 OFFCURVE",
"530 241 OFFCURVE",
"356 241 CURVE SMOOTH",
"204 241 OFFCURVE",
"143 344 OFFCURVE",
"143 457 CURVE SMOOTH",
"143 550 OFFCURVE",
"176 608 OFFCURVE",
"225 673 CURVE",
"157 720 LINE",
"98 648 OFFCURVE",
"55 568 OFFCURVE",
"55 460 CURVE SMOOTH",
"55 274 OFFCURVE",
"185 168 OFFCURVE",
"361 168 CURVE SMOOTH"
);
},
{
closed = 1;
nodes = (
"396 0 OFFCURVE",
"420 18 OFFCURVE",
"420 56 CURVE",
"420 95 OFFCURVE",
"396 112 OFFCURVE",
"369 112 CURVE",
"340 112 OFFCURVE",
"317 95 OFFCURVE",
"317 56 CURVE",
"317 18 OFFCURVE",
"340 0 OFFCURVE",
"369 0 CURVE"
);
}
);
};
layerId = UUID0;
paths = (
{
closed = 1;
nodes = (
"536 168 OFFCURVE",
"670 273 OFFCURVE",
"670 467 CURVE SMOOTH",
"670 628 OFFCURVE",
"600 725 OFFCURVE",
"481 725 CURVE SMOOTH",
"399 725 OFFCURVE",
"307 675 OFFCURVE",
"307 520 CURVE SMOOTH",
"307 457 OFFCURVE",
"315 419 OFFCURVE",
"323 388 CURVE",
"410 388 LINE",
"400 422 OFFCURVE",
"393 472 OFFCURVE",
"393 520 CURVE SMOOTH",
"393 625 OFFCURVE",
"442 652 OFFCURVE",
"485 652 CURVE SMOOTH",
"544 652 OFFCURVE",
"581 584 OFFCURVE",
"581 472 CURVE SMOOTH",
"581 352 OFFCURVE",
"530 241 OFFCURVE",
"356 241 CURVE SMOOTH",
"204 241 OFFCURVE",
"143 344 OFFCURVE",
"143 457 CURVE SMOOTH",
"143 550 OFFCURVE",
"176 608 OFFCURVE",
"225 673 CURVE",
"157 720 LINE",
"98 648 OFFCURVE",
"55 568 OFFCURVE",
"55 460 CURVE SMOOTH",
"55 274 OFFCURVE",
"185 168 OFFCURVE",
"361 168 CURVE SMOOTH"
);
},
{
closed = 1;
nodes = (
"396 0 OFFCURVE",
"420 18 OFFCURVE",
"420 56 CURVE SMOOTH",
"420 95 OFFCURVE",
"396 112 OFFCURVE",
"369 112 CURVE SMOOTH",
"340 112 OFFCURVE",
"317 95 OFFCURVE",
"317 56 CURVE SMOOTH",
"317 18 OFFCURVE",
"340 0 OFFCURVE",
"369 0 CURVE SMOOTH"
);
}
);
width = 725;
}
);
unicode = A6A9;
},
{
glyphname = uniA6AA;
lastChange = "2017-02-24 16:23:59 +0000";
layers = (
{
background = {
paths = (
{
closed = 1;
nodes = (
"328 0 LINE",
"328 367 LINE",
"351 365 OFFCURVE",
"375 364 OFFCURVE",
"398 364 CURVE SMOOTH",
"535 364 OFFCURVE",
"616 441 OFFCURVE",
"616 548 CURVE SMOOTH",
"616 650 OFFCURVE",
"550 725 OFFCURVE",
"428 725 CURVE SMOOTH",
"316 725 OFFCURVE",
"239 658 OFFCURVE",
"239 493 CURVE SMOOTH",
"239 460 LINE",
"172 476 OFFCURVE",
"112 501 OFFCURVE",
"55 529 CURVE",
"20 459 LINE",
"74 425 OFFCURVE",
"154 396 OFFCURVE",
"239 380 CURVE",
"239 0 LINE"
);
},
{
closed = 1;
nodes = (
"480 40 OFFCURVE",
"504 58 OFFCURVE",
"504 96 CURVE SMOOTH",
"504 135 OFFCURVE",
"480 152 OFFCURVE",
"453 152 CURVE SMOOTH",
"424 152 OFFCURVE",
"401 135 OFFCURVE",
"401 96 CURVE SMOOTH",
"401 58 OFFCURVE",
"424 40 OFFCURVE",
"453 40 CURVE SMOOTH"
);
},
{
closed = 1;
nodes = (
"480 202 OFFCURVE",
"504 220 OFFCURVE",
"504 258 CURVE SMOOTH",
"504 297 OFFCURVE",
"480 314 OFFCURVE",
"453 314 CURVE SMOOTH",
"424 314 OFFCURVE",
"401 297 OFFCURVE",
"401 258 CURVE SMOOTH",
"401 220 OFFCURVE",
"424 202 OFFCURVE",
"453 202 CURVE SMOOTH"
);
},
{
closed = 1;
nodes = (
"370 442 OFFCURVE",
"348 443 OFFCURVE",
"328 445 CURVE",
"328 489 LINE SMOOTH",
"328 617 OFFCURVE",
"376 647 OFFCURVE",
"429 647 CURVE SMOOTH",
"497 647 OFFCURVE",
"527 599 OFFCURVE",
"527 552 CURVE SMOOTH",
"527 485 OFFCURVE",
"481 442 OFFCURVE",
"392 442 CURVE SMOOTH"
);
}
);
};
layerId = UUID0;
paths = (
{
closed = 1;
nodes = (
"328 0 LINE",
"328 367 LINE",
"351 365 OFFCURVE",
"375 364 OFFCURVE",
"398 364 CURVE SMOOTH",
"535 364 OFFCURVE",
"616 441 OFFCURVE",
"616 548 CURVE SMOOTH",
"616 650 OFFCURVE",
"550 725 OFFCURVE",
"428 725 CURVE SMOOTH",
"316 725 OFFCURVE",
"239 658 OFFCURVE",
"239 493 CURVE SMOOTH",
"239 460 LINE",
"172 476 OFFCURVE",
"112 501 OFFCURVE",
"55 529 CURVE",
"20 459 LINE",
"74 425 OFFCURVE",
"154 396 OFFCURVE",
"239 380 CURVE",
"239 0 LINE"
);
},
{
closed = 1;
nodes = (
"480 40 OFFCURVE",
"504 58 OFFCURVE",
"504 96 CURVE SMOOTH",
"504 135 OFFCURVE",
"480 152 OFFCURVE",
"453 152 CURVE SMOOTH",
"424 152 OFFCURVE",
"401 135 OFFCURVE",
"401 96 CURVE SMOOTH",
"401 58 OFFCURVE",
"424 40 OFFCURVE",
"453 40 CURVE SMOOTH"
);
},
{
closed = 1;
nodes = (
"480 202 OFFCURVE",
"504 220 OFFCURVE",
"504 258 CURVE SMOOTH",
"504 297 OFFCURVE",
"480 314 OFFCURVE",
"453 314 CURVE SMOOTH",
"424 314 OFFCURVE",
"401 297 OFFCURVE",
"401 258 CURVE SMOOTH",
"401 220 OFFCURVE",
"424 202 OFFCURVE",
"453 202 CURVE SMOOTH"
);
},
{
closed = 1;
nodes = (
"370 442 OFFCURVE",
"348 443 OFFCURVE",
"328 445 CURVE",
"328 489 LINE SMOOTH",
"328 617 OFFCURVE",
"376 647 OFFCURVE",
"429 647 CURVE SMOOTH",
"497 647 OFFCURVE",
"527 599 OFFCURVE",
"527 552 CURVE SMOOTH",
"527 485 OFFCURVE",
"481 442 OFFCURVE",
"392 442 CURVE SMOOTH"
);
}
);
width = 659;
}
);
unicode = A6AA;
},
{
glyphname = uniA6AB;
lastChange = "2017-02-24 16:23:59 +0000";
layers = (
{
background = {
paths = (
{
closed = 1;
nodes = (
"357 0 LINE",
"458 714 LINE",
"372 714 LINE",
"37 506 LINE",
"82 431 LINE",
"234 527 LINE SMOOTH",
"288 561 OFFCURVE",
"331 586 OFFCURVE",
"365 620 CURVE",
"354 574 OFFCURVE",
"342 522 OFFCURVE",
"334 459 CURVE",
"265 0 LINE"
);
},
{
closed = 1;
nodes = (
"240 324 OFFCURVE",
"264 342 OFFCURVE",
"264 380 CURVE",
"264 419 OFFCURVE",
"240 436 OFFCURVE",
"213 436 CURVE",
"184 436 OFFCURVE",
"161 419 OFFCURVE",
"161 380 CURVE",
"161 342 OFFCURVE",
"184 324 OFFCURVE",
"213 324 CURVE"
);
},
{
closed = 1;
nodes = (
"556 468 OFFCURVE",
"580 486 OFFCURVE",
"580 524 CURVE",
"580 563 OFFCURVE",
"556 580 OFFCURVE",
"529 580 CURVE",
"500 580 OFFCURVE",
"477 563 OFFCURVE",
"477 524 CURVE",
"477 486 OFFCURVE",
"500 468 OFFCURVE",
"529 468 CURVE"
);
}
);
};
layerId = UUID0;
paths = (
{
closed = 1;
nodes = (
"357 0 LINE",
"458 714 LINE",
"372 714 LINE",
"37 506 LINE",
"82 431 LINE",
"234 527 LINE SMOOTH",
"288 561 OFFCURVE",
"331 586 OFFCURVE",
"365 620 CURVE",
"354 574 OFFCURVE",
"343 522 OFFCURVE",
"334 459 CURVE SMOOTH",
"265 0 LINE"
);
},
{
closed = 1;
nodes = (
"240 324 OFFCURVE",
"264 342 OFFCURVE",
"264 380 CURVE SMOOTH",
"264 419 OFFCURVE",
"240 436 OFFCURVE",
"213 436 CURVE SMOOTH",
"184 436 OFFCURVE",
"161 419 OFFCURVE",
"161 380 CURVE SMOOTH",
"161 342 OFFCURVE",
"184 324 OFFCURVE",
"213 324 CURVE SMOOTH"
);
},
{
closed = 1;
nodes = (
"556 468 OFFCURVE",
"580 486 OFFCURVE",
"580 524 CURVE SMOOTH",
"580 563 OFFCURVE",
"556 580 OFFCURVE",
"529 580 CURVE SMOOTH",
"500 580 OFFCURVE",
"477 563 OFFCURVE",
"477 524 CURVE SMOOTH",
"477 486 OFFCURVE",
"500 468 OFFCURVE",
"529 468 CURVE SMOOTH"
);
}
);
width = 600;
}
);
unicode = A6AB;
},
{
glyphname = uniA6AC;
lastChange = "2017-02-24 16:23:59 +0000";
layers = (
{
background = {
paths = (
{
closed = 1;
nodes = (
"266 0 LINE",
"244 158 LINE SMOOTH",
"234 231 OFFCURVE",
"222 319 OFFCURVE",
"222 396 CURVE SMOOTH",
"222 540 OFFCURVE",
"295 598 OFFCURVE",
"390 598 CURVE SMOOTH",
"490 598 OFFCURVE",
"532 535 OFFCURVE",
"532 454 CURVE SMOOTH",
"532 388 OFFCURVE",
"498 343 OFFCURVE",
"455 343 CURVE SMOOTH",
"410 343 OFFCURVE",
"382 377 OFFCURVE",
"382 448 CURVE SMOOTH",
"382 460 OFFCURVE",
"382 465 OFFCURVE",
"383 471 CURVE",
"294 471 LINE",
"293 463 OFFCURVE",
"292 454 OFFCURVE",
"292 446 CURVE SMOOTH",
"292 313 OFFCURVE",
"374 269 OFFCURVE",
"451 269 CURVE SMOOTH",
"576 269 OFFCURVE",
"621 368 OFFCURVE",
"621 459 CURVE SMOOTH",
"621 602 OFFCURVE",
"518 671 OFFCURVE",
"396 671 CURVE SMOOTH",
"257 671 OFFCURVE",
"133 591 OFFCURVE",
"133 396 CURVE SMOOTH",
"133 300 OFFCURVE",
"144 215 OFFCURVE",
"157 129 CURVE SMOOTH",
"176 0 LINE"
);
},
{
closed = 1;
nodes = (
"149 602 OFFCURVE",
"173 620 OFFCURVE",
"173 658 CURVE SMOOTH",
"173 697 OFFCURVE",
"149 714 OFFCURVE",
"122 714 CURVE SMOOTH",
"93 714 OFFCURVE",
"70 697 OFFCURVE",
"70 658 CURVE SMOOTH",
"70 620 OFFCURVE",
"93 602 OFFCURVE",
"122 602 CURVE SMOOTH"
);
}
);
};
layerId = UUID0;
paths = (
{
closed = 1;
nodes = (
"266 0 LINE",
"244 158 LINE SMOOTH",
"234 231 OFFCURVE",
"222 319 OFFCURVE",
"222 396 CURVE SMOOTH",
"222 540 OFFCURVE",
"295 598 OFFCURVE",
"390 598 CURVE SMOOTH",
"490 598 OFFCURVE",
"532 535 OFFCURVE",
"532 454 CURVE SMOOTH",
"532 388 OFFCURVE",
"498 343 OFFCURVE",
"455 343 CURVE SMOOTH",
"410 343 OFFCURVE",
"382 377 OFFCURVE",
"382 448 CURVE SMOOTH",
"382 460 OFFCURVE",
"382 465 OFFCURVE",
"383 471 CURVE",
"294 471 LINE",
"293 463 OFFCURVE",
"292 454 OFFCURVE",
"292 446 CURVE SMOOTH",
"292 313 OFFCURVE",
"374 269 OFFCURVE",
"451 269 CURVE SMOOTH",
"576 269 OFFCURVE",
"621 368 OFFCURVE",
"621 459 CURVE SMOOTH",
"621 602 OFFCURVE",
"518 671 OFFCURVE",
"396 671 CURVE SMOOTH",
"257 671 OFFCURVE",
"133 591 OFFCURVE",
"133 396 CURVE SMOOTH",
"133 300 OFFCURVE",
"144 215 OFFCURVE",
"157 129 CURVE SMOOTH",
"176 0 LINE"
);
},
{
closed = 1;
nodes = (
"149 602 OFFCURVE",
"173 620 OFFCURVE",
"173 658 CURVE SMOOTH",
"173 697 OFFCURVE",
"149 714 OFFCURVE",
"122 714 CURVE SMOOTH",
"93 714 OFFCURVE",
"70 697 OFFCURVE",
"70 658 CURVE SMOOTH",
"70 620 OFFCURVE",
"93 602 OFFCURVE",
"122 602 CURVE SMOOTH"
);
}
);
width = 661;
}
);
unicode = A6AC;
},
{
glyphname = uniA6AD;
lastChange = "2017-02-24 16:23:59 +0000";
layers = (
{
background = {
paths = (
{
closed = 1;
nodes = (
"474 0 LINE",
"474 714 LINE",
"384 714 LINE",
"384 500 LINE",
"53 500 LINE",
"53 425 LINE",
"187 267 LINE",
"36 74 LINE",
"36 0 LINE"
);
},
{
closed = 1;
nodes = (
"287 268 LINE",
"156 421 LINE",
"177 420 OFFCURVE",
"227 420 OFFCURVE",
"256 420 CURVE SMOOTH",
"384 420 LINE",
"384 79 LINE",
"298 79 LINE SMOOTH",
"245 79 OFFCURVE",
"185 78 OFFCURVE",
"135 78 CURVE"
);
}
);
};
layerId = UUID0;
paths = (
{
closed = 1;
nodes = (
"474 0 LINE",
"474 714 LINE",
"384 714 LINE",
"384 500 LINE",
"53 500 LINE",
"53 425 LINE",
"187 267 LINE",
"36 74 LINE",
"36 0 LINE"
);
},
{
closed = 1;
nodes = (
"287 268 LINE",
"156 421 LINE",
"177 420 OFFCURVE",
"227 420 OFFCURVE",
"256 420 CURVE SMOOTH",
"384 420 LINE",
"384 79 LINE",
"298 79 LINE SMOOTH",
"245 79 OFFCURVE",
"185 78 OFFCURVE",
"135 78 CURVE"
);
}
);
width = 572;
}
);
unicode = A6AD;
},
{
glyphname = uniA6AE;
lastChange = "2017-02-24 16:23:59 +0000";
layers = (
{
background = {
paths = (
{
closed = 1;
nodes = (
"187 0 LINE",
"187 197 LINE",
"256 197 LINE SMOOTH",
"456 197 OFFCURVE",
"504 279 OFFCURVE",
"504 357 CURVE SMOOTH",
"504 447 OFFCURVE",
"450 516 OFFCURVE",
"256 516 CURVE SMOOTH",
"187 516 LINE",
"187 714 LINE",
"97 714 LINE",
"97 437 LINE",
"256 437 LINE SMOOTH",
"375 437 OFFCURVE",
"413 410 OFFCURVE",
"413 357 CURVE SMOOTH",
"413 303 OFFCURVE",
"369 276 OFFCURVE",
"256 276 CURVE SMOOTH",
"97 276 LINE",
"97 0 LINE"
);
},
{
closed = 1;
nodes = (
"349 0 OFFCURVE",
"373 18 OFFCURVE",
"373 56 CURVE SMOOTH",
"373 95 OFFCURVE",
"349 112 OFFCURVE",
"322 112 CURVE SMOOTH",
"293 112 OFFCURVE",
"270 95 OFFCURVE",
"270 56 CURVE SMOOTH",
"270 18 OFFCURVE",
"293 0 OFFCURVE",
"322 0 CURVE SMOOTH"
);
},
{
closed = 1;
nodes = (
"349 602 OFFCURVE",
"373 620 OFFCURVE",
"373 658 CURVE SMOOTH",
"373 697 OFFCURVE",
"349 714 OFFCURVE",
"322 714 CURVE SMOOTH",
"293 714 OFFCURVE",
"270 697 OFFCURVE",
"270 658 CURVE SMOOTH",
"270 620 OFFCURVE",
"293 602 OFFCURVE",
"322 602 CURVE SMOOTH"
);
}
);
};
layerId = UUID0;
paths = (
{
closed = 1;
nodes = (
"187 0 LINE",
"187 197 LINE",
"256 197 LINE SMOOTH",
"456 197 OFFCURVE",
"504 279 OFFCURVE",
"504 357 CURVE SMOOTH",
"504 447 OFFCURVE",
"450 516 OFFCURVE",
"256 516 CURVE SMOOTH",
"187 516 LINE",
"187 714 LINE",
"97 714 LINE",
"97 437 LINE",
"256 437 LINE SMOOTH",
"375 437 OFFCURVE",
"413 410 OFFCURVE",
"413 357 CURVE SMOOTH",
"413 303 OFFCURVE",
"369 276 OFFCURVE",
"256 276 CURVE SMOOTH",
"97 276 LINE",
"97 0 LINE"
);
},
{
closed = 1;
nodes = (
"349 0 OFFCURVE",
"373 18 OFFCURVE",
"373 56 CURVE SMOOTH",
"373 95 OFFCURVE",
"349 112 OFFCURVE",
"322 112 CURVE SMOOTH",
"293 112 OFFCURVE",
"270 95 OFFCURVE",
"270 56 CURVE SMOOTH",
"270 18 OFFCURVE",
"293 0 OFFCURVE",
"322 0 CURVE SMOOTH"
);
},
{
closed = 1;
nodes = (
"349 602 OFFCURVE",
"373 620 OFFCURVE",
"373 658 CURVE SMOOTH",
"373 697 OFFCURVE",
"349 714 OFFCURVE",
"322 714 CURVE SMOOTH",
"293 714 OFFCURVE",
"270 697 OFFCURVE",
"270 658 CURVE SMOOTH",
"270 620 OFFCURVE",
"293 602 OFFCURVE",
"322 602 CURVE SMOOTH"
);
}
);
width = 549;
}
);
unicode = A6AE;
},
{
glyphname = uniA6AF;
lastChange = "2017-02-24 16:23:59 +0000";
layers = (
{
background = {
paths = (
{
closed = 1;
nodes = (
"227 0 LINE",
"227 183 LINE SMOOTH",
"227 247 OFFCURVE",
"228 293 OFFCURVE",
"221 339 CURVE",
"252 303 OFFCURVE",
"277 276 OFFCURVE",
"324 234 CURVE SMOOTH",
"438 137 LINE",
"495 200 LINE",
"228 434 LINE",
"137 388 LINE",
"137 0 LINE"
);
},
{
closed = 1;
nodes = (
"413 391 OFFCURVE",
"437 409 OFFCURVE",
"437 447 CURVE",
"437 486 OFFCURVE",
"413 503 OFFCURVE",
"386 503 CURVE",
"357 503 OFFCURVE",
"334 486 OFFCURVE",
"334 447 CURVE",
"334 409 OFFCURVE",
"357 391 OFFCURVE",
"386 391 CURVE"
);
},
{
closed = 1;
nodes = (
"495 631 LINE",
"495 725 LINE",
"137 544 LINE",
"137 450 LINE"
);
}
);
};
layerId = UUID0;
paths = (
{
closed = 1;
nodes = (
"227 0 LINE",
"227 183 LINE SMOOTH",
"227 248 OFFCURVE",
"227 293 OFFCURVE",
"221 339 CURVE",
"252 303 OFFCURVE",
"276 275 OFFCURVE",
"324 234 CURVE SMOOTH",
"438 137 LINE",
"495 200 LINE",
"228 434 LINE",
"137 388 LINE",
"137 0 LINE"
);
},
{
closed = 1;
nodes = (
"413 391 OFFCURVE",
"437 409 OFFCURVE",
"437 447 CURVE SMOOTH",
"437 486 OFFCURVE",
"413 503 OFFCURVE",
"386 503 CURVE SMOOTH",
"357 503 OFFCURVE",
"334 486 OFFCURVE",
"334 447 CURVE SMOOTH",
"334 409 OFFCURVE",
"357 391 OFFCURVE",
"386 391 CURVE SMOOTH"
);
},
{
closed = 1;
nodes = (
"495 631 LINE",
"495 725 LINE",
"137 544 LINE",
"137 450 LINE"
);
}
);
width = 600;
}
);
unicode = A6AF;
},
{
glyphname = uniA6B0;
lastChange = "2017-02-24 16:23:59 +0000";
layers = (
{
background = {
paths = (
{
closed = 1;
nodes = (
"187 0 LINE",
"187 284 LINE",
"596 460 LINE",
"596 533 LINE",
"175 714 LINE",
"97 714 LINE",
"97 0 LINE"
);
},
{
closed = 1;
nodes = (
"187 616 LINE",
"377 538 LINE SMOOTH",
"431 516 OFFCURVE",
"458 507 OFFCURVE",
"495 498 CURVE",
"495 496 LINE",
"455 484 OFFCURVE",
"413 469 OFFCURVE",
"366 451 CURVE SMOOTH",
"187 377 LINE"
);
}
);
};
layerId = UUID0;
paths = (
{
closed = 1;
nodes = (
"187 0 LINE",
"187 284 LINE",
"596 460 LINE",
"596 533 LINE",
"175 714 LINE",
"97 714 LINE",
"97 0 LINE"
);
},
{
closed = 1;
nodes = (
"187 616 LINE",
"377 538 LINE SMOOTH",
"431 516 OFFCURVE",
"458 507 OFFCURVE",
"495 498 CURVE",
"495 496 LINE",
"455 484 OFFCURVE",
"413 470 OFFCURVE",
"366 451 CURVE SMOOTH",
"187 377 LINE"
);
}
);
width = 637;
}
);
unicode = A6B0;
},
{
glyphname = uniA6B1;
lastChange = "2017-02-24 16:23:59 +0000";
layers = (
{
background = {
paths = (
{
closed = 1;
nodes = (
"187 0 LINE",
"187 333 LINE",
"500 333 LINE",
"500 412 LINE",
"187 412 LINE",
"187 714 LINE",
"97 714 LINE",
"97 0 LINE"
);
}
);
};
layerId = UUID0;
paths = (
{
closed = 1;
nodes = (
"187 0 LINE",
"187 333 LINE",
"500 333 LINE",
"500 412 LINE",
"187 412 LINE",
"187 714 LINE",
"97 714 LINE",
"97 0 LINE"
);
}
);
width = 550;
}
);
unicode = A6B1;
},
{
glyphname = uniA6B2;
lastChange = "2017-02-24 16:23:59 +0000";
layers = (
{
background = {
paths = (
{
closed = 1;
nodes = (
"328 0 LINE",
"328 277 LINE",
"566 714 LINE",
"469 714 LINE",
"283 363 LINE",
"98 714 LINE",
"0 714 LINE",
"238 273 LINE",
"238 0 LINE"
);
},
{
closed = 1;
nodes = (
"311 602 OFFCURVE",
"335 620 OFFCURVE",
"335 658 CURVE",
"335 697 OFFCURVE",
"311 714 OFFCURVE",
"284 714 CURVE",
"255 714 OFFCURVE",
"232 697 OFFCURVE",
"232 658 CURVE",
"232 620 OFFCURVE",
"255 602 OFFCURVE",
"284 602 CURVE"
);
}
);
};
layerId = UUID0;
paths = (
{
closed = 1;
nodes = (
"328 0 LINE",
"328 277 LINE",
"566 714 LINE",
"469 714 LINE",
"283 363 LINE",
"98 714 LINE",
"0 714 LINE",
"238 273 LINE",
"238 0 LINE"
);
},
{
closed = 1;
nodes = (
"311 602 OFFCURVE",
"335 620 OFFCURVE",
"335 658 CURVE SMOOTH",
"335 697 OFFCURVE",
"311 714 OFFCURVE",
"284 714 CURVE SMOOTH",
"255 714 OFFCURVE",
"232 697 OFFCURVE",
"232 658 CURVE SMOOTH",
"232 620 OFFCURVE",
"255 602 OFFCURVE",
"284 602 CURVE SMOOTH"
);
}
);
width = 566;
}
);
unicode = A6B2;
},
{
glyphname = uniA6B3;
lastChange = "2017-02-24 16:23:59 +0000";
layers = (
{
background = {
paths = (
{
closed = 1;
nodes = (
"499 0 LINE",
"499 78 LINE",
"187 78 LINE",
"187 714 LINE",
"97 714 LINE",
"97 0 LINE"
);
},
{
closed = 1;
nodes = (
"387 180 LINE",
"387 714 LINE",
"297 714 LINE",
"297 180 LINE"
);
}
);
};
layerId = UUID0;
paths = (
{
closed = 1;
nodes = (
"499 0 LINE",
"499 78 LINE",
"187 78 LINE",
"187 714 LINE",
"97 714 LINE",
"97 0 LINE"
);
},
{
closed = 1;
nodes = (
"387 180 LINE",
"387 714 LINE",
"297 714 LINE",
"297 180 LINE"
);
}
);
width = 524;
}
);
unicode = A6B3;
},
{
glyphname = uniA6B4;
lastChange = "2017-02-24 16:23:59 +0000";
layers = (
{
background = {
paths = (
{
closed = 1;
nodes = (
"292 0 LINE",
"375 313 LINE",
"651 313 LINE",
"651 392 LINE",
"396 392 LINE",
"483 714 LINE",
"390 714 LINE",
"283 305 LINE SMOOTH",
"267 243 OFFCURVE",
"254 188 OFFCURVE",
"249 140 CURVE",
"243 188 OFFCURVE",
"230 239 OFFCURVE",
"215 299 CURVE SMOOTH",
"108 714 LINE",
"16 714 LINE",
"205 0 LINE"
);
},
{
closed = 1;
nodes = (
"563 149 OFFCURVE",
"587 167 OFFCURVE",
"587 205 CURVE SMOOTH",
"587 244 OFFCURVE",
"563 261 OFFCURVE",
"536 261 CURVE SMOOTH",
"507 261 OFFCURVE",
"484 244 OFFCURVE",
"484 205 CURVE SMOOTH",
"484 167 OFFCURVE",
"507 149 OFFCURVE",
"536 149 CURVE SMOOTH"
);
},
{
closed = 1;
nodes = (
"563 444 OFFCURVE",
"587 462 OFFCURVE",
"587 500 CURVE SMOOTH",
"587 539 OFFCURVE",
"563 556 OFFCURVE",
"536 556 CURVE SMOOTH",
"507 556 OFFCURVE",
"484 539 OFFCURVE",
"484 500 CURVE SMOOTH",
"484 462 OFFCURVE",
"507 444 OFFCURVE",
"536 444 CURVE SMOOTH"
);
}
);
};
layerId = UUID0;
paths = (
{
closed = 1;
nodes = (
"292 0 LINE",
"375 313 LINE",
"651 313 LINE",
"651 392 LINE",
"396 392 LINE",
"483 714 LINE",
"390 714 LINE",
"283 305 LINE SMOOTH",
"267 243 OFFCURVE",
"254 188 OFFCURVE",
"249 140 CURVE",
"243 188 OFFCURVE",
"230 239 OFFCURVE",
"215 299 CURVE SMOOTH",
"108 714 LINE",
"16 714 LINE",
"205 0 LINE"
);
},
{
closed = 1;
nodes = (
"563 149 OFFCURVE",
"587 167 OFFCURVE",
"587 205 CURVE SMOOTH",
"587 244 OFFCURVE",
"563 261 OFFCURVE",
"536 261 CURVE SMOOTH",
"507 261 OFFCURVE",
"484 244 OFFCURVE",
"484 205 CURVE SMOOTH",
"484 167 OFFCURVE",
"507 149 OFFCURVE",
"536 149 CURVE SMOOTH"
);
},
{
closed = 1;
nodes = (
"563 444 OFFCURVE",
"587 462 OFFCURVE",
"587 500 CURVE SMOOTH",
"587 539 OFFCURVE",
"563 556 OFFCURVE",
"536 556 CURVE SMOOTH",
"507 556 OFFCURVE",
"484 539 OFFCURVE",
"484 500 CURVE SMOOTH",
"484 462 OFFCURVE",
"507 444 OFFCURVE",
"536 444 CURVE SMOOTH"
);
}
);
width = 691;
}
);
unicode = A6B4;
},
{
glyphname = uniA6B5;
lastChange = "2017-02-24 16:23:59 +0000";
layers = (
{
background = {
paths = (
{
closed = 1;
nodes = (
"339 0 LINE",
"339 251 LINE",
"455 268 OFFCURVE",
"509 345 OFFCURVE",
"509 453 CURVE SMOOTH",
"509 714 LINE",
"420 714 LINE",
"420 459 LINE SMOOTH",
"420 368 OFFCURVE",
"383 321 OFFCURVE",
"293 321 CURVE SMOOTH",
"208 321 OFFCURVE",
"168 379 OFFCURVE",
"168 459 CURVE SMOOTH",
"168 714 LINE",
"79 714 LINE",
"79 453 LINE SMOOTH",
"79 332 OFFCURVE",
"144 264 OFFCURVE",
"249 250 CURVE",
"249 0 LINE"
);
}
);
};
layerId = UUID0;
paths = (
{
closed = 1;
nodes = (
"339 0 LINE",
"339 251 LINE",
"455 268 OFFCURVE",
"509 345 OFFCURVE",
"509 453 CURVE SMOOTH",
"509 714 LINE",
"420 714 LINE",
"420 459 LINE SMOOTH",
"420 368 OFFCURVE",
"383 321 OFFCURVE",
"293 321 CURVE SMOOTH",
"208 321 OFFCURVE",
"168 379 OFFCURVE",
"168 459 CURVE SMOOTH",
"168 714 LINE",
"79 714 LINE",
"79 453 LINE SMOOTH",
"79 332 OFFCURVE",
"144 264 OFFCURVE",
"249 250 CURVE",
"249 0 LINE"
);
}
);
width = 588;
}
);
unicode = A6B5;
},
{
glyphname = uniA6B6;
lastChange = "2017-02-24 16:23:59 +0000";
layers = (
{
background = {
paths = (
{
closed = 1;
nodes = (
"554 0 LINE",
"554 714 LINE",
"465 714 LINE",
"465 79 LINE",
"187 79 LINE",
"187 714 LINE",
"97 714 LINE",
"97 0 LINE"
);
},
{
closed = 1;
nodes = (
"697 169 OFFCURVE",
"721 187 OFFCURVE",
"721 225 CURVE SMOOTH",
"721 264 OFFCURVE",
"697 281 OFFCURVE",
"670 281 CURVE SMOOTH",
"641 281 OFFCURVE",
"618 264 OFFCURVE",
"618 225 CURVE SMOOTH",
"618 187 OFFCURVE",
"641 169 OFFCURVE",
"670 169 CURVE SMOOTH"
);
},
{
closed = 1;
nodes = (
"697 424 OFFCURVE",
"721 442 OFFCURVE",
"721 480 CURVE SMOOTH",
"721 519 OFFCURVE",
"697 536 OFFCURVE",
"670 536 CURVE SMOOTH",
"641 536 OFFCURVE",
"618 519 OFFCURVE",
"618 480 CURVE SMOOTH",
"618 442 OFFCURVE",
"641 424 OFFCURVE",
"670 424 CURVE SMOOTH"
);
}
);
};
layerId = UUID0;
paths = (
{
closed = 1;
nodes = (
"554 0 LINE",
"554 714 LINE",
"465 714 LINE",
"465 79 LINE",
"187 79 LINE",
"187 714 LINE",
"97 714 LINE",
"97 0 LINE"
);
},
{
closed = 1;
nodes = (
"697 169 OFFCURVE",
"721 187 OFFCURVE",
"721 225 CURVE SMOOTH",
"721 264 OFFCURVE",
"697 281 OFFCURVE",
"670 281 CURVE SMOOTH",
"641 281 OFFCURVE",
"618 264 OFFCURVE",
"618 225 CURVE SMOOTH",
"618 187 OFFCURVE",
"641 169 OFFCURVE",
"670 169 CURVE SMOOTH"
);
},
{
closed = 1;
nodes = (
"697 424 OFFCURVE",
"721 442 OFFCURVE",
"721 480 CURVE SMOOTH",
"721 519 OFFCURVE",
"697 536 OFFCURVE",
"670 536 CURVE SMOOTH",
"641 536 OFFCURVE",
"618 519 OFFCURVE",
"618 480 CURVE SMOOTH",
"618 442 OFFCURVE",
"641 424 OFFCURVE",
"670 424 CURVE SMOOTH"
);
}
);
width = 741;
}
);
unicode = A6B6;
},
{
glyphname = uniA6B7;
lastChange = "2017-02-24 16:23:59 +0000";
layers = (
{
background = {
paths = (
{
closed = 1;
nodes = (
"347 0 LINE",
"279 481 LINE",
"446 539 LINE",
"446 344 LINE",
"490 311 LINE",
"551 353 OFFCURVE",
"596 377 OFFCURVE",
"676 387 CURVE",
"676 482 LINE",
"629 470 OFFCURVE",
"582 451 OFFCURVE",
"535 412 CURVE",
"535 590 LINE",
"515 647 LINE",
"267 561 LINE",
"246 714 LINE",
"154 714 LINE",
"180 530 LINE",
"25 477 LINE",
"51 402 LINE",
"191 450 LINE",
"255 0 LINE"
);
},
{
closed = 1;
nodes = (
"441 180 OFFCURVE",
"464 198 OFFCURVE",
"464 236 CURVE SMOOTH",
"464 275 OFFCURVE",
"441 292 OFFCURVE",
"412 292 CURVE SMOOTH",
"385 292 OFFCURVE",
"361 275 OFFCURVE",
"361 236 CURVE SMOOTH",
"361 198 OFFCURVE",
"385 180 OFFCURVE",
"412 180 CURVE SMOOTH"
);
},
{
closed = 1;
nodes = (
"650 602 OFFCURVE",
"673 620 OFFCURVE",
"673 658 CURVE SMOOTH",
"673 697 OFFCURVE",
"650 714 OFFCURVE",
"621 714 CURVE SMOOTH",
"594 714 OFFCURVE",
"570 697 OFFCURVE",
"570 658 CURVE SMOOTH",
"570 620 OFFCURVE",
"594 602 OFFCURVE",
"621 602 CURVE SMOOTH"
);
}
);
};
layerId = UUID0;
paths = (
{
closed = 1;
nodes = (
"347 0 LINE",
"279 481 LINE",
"446 539 LINE",
"446 344 LINE",
"490 311 LINE",
"551 353 OFFCURVE",
"596 377 OFFCURVE",
"676 387 CURVE",
"676 482 LINE",
"629 470 OFFCURVE",
"582 451 OFFCURVE",
"535 412 CURVE",
"535 590 LINE",
"515 647 LINE",
"267 561 LINE",
"246 714 LINE",
"154 714 LINE",
"180 530 LINE",
"25 477 LINE",
"51 402 LINE",
"191 450 LINE",
"255 0 LINE"
);
},
{
closed = 1;
nodes = (
"441 180 OFFCURVE",
"464 198 OFFCURVE",
"464 236 CURVE SMOOTH",
"464 275 OFFCURVE",
"441 292 OFFCURVE",
"412 292 CURVE SMOOTH",
"385 292 OFFCURVE",
"361 275 OFFCURVE",
"361 236 CURVE SMOOTH",
"361 198 OFFCURVE",
"385 180 OFFCURVE",
"412 180 CURVE SMOOTH"
);
},
{
closed = 1;
nodes = (
"650 602 OFFCURVE",
"673 620 OFFCURVE",
"673 658 CURVE SMOOTH",
"673 697 OFFCURVE",
"650 714 OFFCURVE",
"621 714 CURVE SMOOTH",
"594 714 OFFCURVE",
"570 697 OFFCURVE",
"570 658 CURVE SMOOTH",
"570 620 OFFCURVE",
"594 602 OFFCURVE",
"621 602 CURVE SMOOTH"
);
}
);
width = 716;
}
);
unicode = A6B7;
},
{
glyphname = uniA6B8;
lastChange = "2017-02-24 16:23:59 +0000";
layers = (
{
background = {
paths = (
{
closed = 1;
nodes = (
"574 -7 OFFCURVE",
"720 86 OFFCURVE",
"720 267 CURVE SMOOTH",
"720 394 OFFCURVE",
"648 518 OFFCURVE",
"443 518 CURVE SMOOTH",
"370 518 OFFCURVE",
"316 495 OFFCURVE",
"287 484 CURVE",
"307 405 LINE",
"332 415 OFFCURVE",
"370 437 OFFCURVE",
"437 437 CURVE SMOOTH",
"582 437 OFFCURVE",
"629 346 OFFCURVE",
"629 259 CURVE SMOOTH",
"629 134 OFFCURVE",
"505 68 OFFCURVE",
"395 68 CURVE",
"415 -12 LINE"
);
},
{
closed = 1;
nodes = (
"412 195 OFFCURVE",
"466 218 OFFCURVE",
"495 229 CURVE",
"475 308 LINE",
"450 298 OFFCURVE",
"412 276 OFFCURVE",
"345 276 CURVE SMOOTH",
"200 276 OFFCURVE",
"153 367 OFFCURVE",
"153 454 CURVE SMOOTH",
"153 579 OFFCURVE",
"277 645 OFFCURVE",
"387 645 CURVE",
"367 725 LINE",
"208 720 OFFCURVE",
"62 627 OFFCURVE",
"62 446 CURVE SMOOTH",
"62 319 OFFCURVE",
"134 195 OFFCURVE",
"339 195 CURVE SMOOTH"
);
}
);
};
layerId = UUID0;
paths = (
{
closed = 1;
nodes = (
"574 -7 OFFCURVE",
"720 86 OFFCURVE",
"720 267 CURVE SMOOTH",
"720 394 OFFCURVE",
"648 518 OFFCURVE",
"443 518 CURVE SMOOTH",
"370 518 OFFCURVE",
"316 495 OFFCURVE",
"287 484 CURVE",
"307 405 LINE",
"332 415 OFFCURVE",
"370 437 OFFCURVE",
"437 437 CURVE SMOOTH",
"582 437 OFFCURVE",
"629 346 OFFCURVE",
"629 259 CURVE SMOOTH",
"629 134 OFFCURVE",
"505 68 OFFCURVE",
"395 68 CURVE",
"415 -12 LINE"
);
},
{
closed = 1;
nodes = (
"412 195 OFFCURVE",
"466 218 OFFCURVE",
"495 229 CURVE",
"475 308 LINE",
"450 298 OFFCURVE",
"412 276 OFFCURVE",
"345 276 CURVE SMOOTH",
"200 276 OFFCURVE",
"153 367 OFFCURVE",
"153 454 CURVE SMOOTH",
"153 579 OFFCURVE",
"277 645 OFFCURVE",
"387 645 CURVE",
"367 725 LINE",
"208 720 OFFCURVE",
"62 627 OFFCURVE",
"62 446 CURVE SMOOTH",
"62 319 OFFCURVE",
"134 195 OFFCURVE",
"339 195 CURVE SMOOTH"
);
}
);
width = 782;
}
);
unicode = A6B8;
},
{
glyphname = uniA6B9;
lastChange = "2017-02-24 16:23:59 +0000";
layers = (
{
background = {
paths = (
{
closed = 1;
nodes = (
"455 544 LINE",
"97 725 LINE",
"97 631 LINE",
"455 450 LINE"
);
},
{
closed = 1;
nodes = (
"187 0 LINE",
"187 548 LINE",
"97 548 LINE",
"97 0 LINE"
);
}
);
};
layerId = UUID0;
paths = (
{
closed = 1;
nodes = (
"455 544 LINE",
"97 725 LINE",
"97 631 LINE",
"455 450 LINE"
);
},
{
closed = 1;
nodes = (
"187 0 LINE",
"187 548 LINE",
"97 548 LINE",
"97 0 LINE"
);
}
);
width = 480;
}
);
unicode = A6B9;
},
{
glyphname = uniA6BA;
lastChange = "2017-02-24 16:23:59 +0000";
layers = (
{
background = {
paths = (
{
closed = 1;
nodes = (
"133 -10 LINE SMOOTH",
"394 -10 OFFCURVE",
"508 137 OFFCURVE",
"508 358 CURVE SMOOTH",
"508 580 OFFCURVE",
"394 725 OFFCURVE",
"151 725 CURVE SMOOTH",
"112 725 LINE",
"112 646 LINE",
"153 646 LINE SMOOTH",
"262 646 OFFCURVE",
"332 609 OFFCURVE",
"372 542 CURVE",
"194 521 OFFCURVE",
"112 458 OFFCURVE",
"112 357 CURVE SMOOTH",
"112 270 OFFCURVE",
"176 195 OFFCURVE",
"371 171 CURVE",
"330 105 OFFCURVE",
"257 68 OFFCURVE",
"141 68 CURVE SMOOTH",
"112 68 LINE",
"112 -10 LINE"
);
},
{
closed = 1;
nodes = (
"384 244 LINE SMOOTH",
"274 256 OFFCURVE",
"203 290 OFFCURVE",
"203 353 CURVE SMOOTH",
"203 421 OFFCURVE",
"262 456 OFFCURVE",
"384 470 CURVE SMOOTH",
"400 472 LINE",
"409 438 OFFCURVE",
"413 400 OFFCURVE",
"413 358 CURVE SMOOTH",
"413 315 OFFCURVE",
"409 276 OFFCURVE",
"400 242 CURVE"
);
},
{
closed = 1;
nodes = (
"598 548 OFFCURVE",
"621 566 OFFCURVE",
"621 604 CURVE SMOOTH",
"621 643 OFFCURVE",
"598 660 OFFCURVE",
"569 660 CURVE SMOOTH",
"542 660 OFFCURVE",
"518 643 OFFCURVE",
"518 604 CURVE SMOOTH",
"518 566 OFFCURVE",
"542 548 OFFCURVE",
"569 548 CURVE SMOOTH"
);
}
);
};
layerId = UUID0;
paths = (
{
closed = 1;
nodes = (
"133 -10 LINE SMOOTH",
"394 -10 OFFCURVE",
"508 137 OFFCURVE",
"508 358 CURVE SMOOTH",
"508 580 OFFCURVE",
"394 725 OFFCURVE",
"151 725 CURVE SMOOTH",
"112 725 LINE",
"112 646 LINE",
"153 646 LINE SMOOTH",
"262 646 OFFCURVE",
"332 609 OFFCURVE",
"372 542 CURVE",
"194 521 OFFCURVE",
"112 458 OFFCURVE",
"112 357 CURVE SMOOTH",
"112 270 OFFCURVE",
"176 195 OFFCURVE",
"371 171 CURVE",
"330 105 OFFCURVE",
"257 68 OFFCURVE",
"141 68 CURVE SMOOTH",
"112 68 LINE",
"112 -10 LINE"
);
},
{
closed = 1;
nodes = (
"384 244 LINE SMOOTH",
"274 256 OFFCURVE",
"203 290 OFFCURVE",
"203 353 CURVE SMOOTH",
"203 421 OFFCURVE",
"262 456 OFFCURVE",
"384 470 CURVE SMOOTH",
"400 472 LINE",
"409 438 OFFCURVE",
"413 400 OFFCURVE",
"413 358 CURVE SMOOTH",
"413 315 OFFCURVE",
"409 276 OFFCURVE",
"400 242 CURVE"
);
},
{
closed = 1;
nodes = (
"598 548 OFFCURVE",
"621 566 OFFCURVE",
"621 604 CURVE SMOOTH",
"621 643 OFFCURVE",
"598 660 OFFCURVE",
"569 660 CURVE SMOOTH",
"542 660 OFFCURVE",
"518 643 OFFCURVE",
"518 604 CURVE SMOOTH",
"518 566 OFFCURVE",
"542 548 OFFCURVE",
"569 548 CURVE SMOOTH"
);
}
);
width = 621;
}
);
unicode = A6BA;
},
{
glyphname = uniA6BB;
lastChange = "2017-02-24 16:23:59 +0000";
layers = (
{
background = {
paths = (
{
closed = 1;
nodes = (
"196 0 LINE",
"196 483 LINE",
"346 483 LINE",
"346 259 LINE",
"578 259 LINE",
"578 337 LINE",
"436 337 LINE",
"436 561 LINE",
"106 561 LINE",
"106 0 LINE"
);
},
{
closed = 1;
nodes = (
"85 602 OFFCURVE",
"108 620 OFFCURVE",
"108 658 CURVE SMOOTH",
"108 697 OFFCURVE",
"85 714 OFFCURVE",
"56 714 CURVE SMOOTH",
"29 714 OFFCURVE",
"5 697 OFFCURVE",
"5 658 CURVE SMOOTH",
"5 620 OFFCURVE",
"29 602 OFFCURVE",
"56 602 CURVE SMOOTH"
);
}
);
};
layerId = UUID0;
paths = (
{
closed = 1;
nodes = (
"196 0 LINE",
"196 483 LINE",
"346 483 LINE",
"346 259 LINE",
"578 259 LINE",
"578 337 LINE",
"436 337 LINE",
"436 561 LINE",
"106 561 LINE",
"106 0 LINE"
);
},
{
closed = 1;
nodes = (
"85 602 OFFCURVE",
"108 620 OFFCURVE",
"108 658 CURVE SMOOTH",
"108 697 OFFCURVE",
"85 714 OFFCURVE",
"56 714 CURVE SMOOTH",
"29 714 OFFCURVE",
"5 697 OFFCURVE",
"5 658 CURVE SMOOTH",
"5 620 OFFCURVE",
"29 602 OFFCURVE",
"56 602 CURVE SMOOTH"
);
}
);
width = 618;
}
);
unicode = A6BB;
},
{
glyphname = uniA6BC;
lastChange = "2017-02-24 16:23:59 +0000";
layers = (
{
background = {
paths = (
{
closed = 1;
nodes = (
"604 310 LINE",
"604 411 LINE",
"68 615 LINE",
"68 521 LINE",
"384 407 LINE SMOOTH",
"427 392 OFFCURVE",
"493 369 OFFCURVE",
"526 362 CURVE",
"526 358 LINE",
"493 352 OFFCURVE",
"428 330 OFFCURVE",
"384 315 CURVE",
"68 201 LINE",
"68 107 LINE"
);
},
{
closed = 1;
nodes = (
"239 -10 OFFCURVE",
"263 8 OFFCURVE",
"263 46 CURVE",
"263 85 OFFCURVE",
"239 102 OFFCURVE",
"212 102 CURVE",
"183 102 OFFCURVE",
"160 85 OFFCURVE",
"160 46 CURVE",
"160 8 OFFCURVE",
"183 -10 OFFCURVE",
"212 -10 CURVE"
);
},
{
closed = 1;
nodes = (
"239 613 OFFCURVE",
"263 631 OFFCURVE",
"263 669 CURVE",
"263 708 OFFCURVE",
"239 725 OFFCURVE",
"212 725 CURVE",
"183 725 OFFCURVE",
"160 708 OFFCURVE",
"160 669 CURVE",
"160 631 OFFCURVE",
"183 613 OFFCURVE",
"212 613 CURVE"
);
}
);
};
layerId = UUID0;
paths = (
{
closed = 1;
nodes = (
"604 310 LINE",
"604 411 LINE",
"68 615 LINE",
"68 521 LINE",
"384 407 LINE SMOOTH",
"427 392 OFFCURVE",
"493 369 OFFCURVE",
"526 362 CURVE",
"526 358 LINE",
"493 352 OFFCURVE",
"428 331 OFFCURVE",
"384 315 CURVE SMOOTH",
"68 201 LINE",
"68 107 LINE"
);
},
{
closed = 1;
nodes = (
"239 -10 OFFCURVE",
"263 8 OFFCURVE",
"263 46 CURVE SMOOTH",
"263 85 OFFCURVE",
"239 102 OFFCURVE",
"212 102 CURVE SMOOTH",
"183 102 OFFCURVE",
"160 85 OFFCURVE",
"160 46 CURVE SMOOTH",
"160 8 OFFCURVE",
"183 -10 OFFCURVE",
"212 -10 CURVE SMOOTH"
);
},
{
closed = 1;
nodes = (
"239 613 OFFCURVE",
"263 631 OFFCURVE",
"263 669 CURVE SMOOTH",
"263 708 OFFCURVE",
"239 725 OFFCURVE",
"212 725 CURVE SMOOTH",
"183 725 OFFCURVE",
"160 708 OFFCURVE",
"160 669 CURVE SMOOTH",
"160 631 OFFCURVE",
"183 613 OFFCURVE",
"212 613 CURVE SMOOTH"
);
}
);
width = 639;
}
);
unicode = A6BC;
},
{
glyphname = uniA6BD;
lastChange = "2017-02-24 16:23:59 +0000";
layers = (
{
background = {
paths = (
{
closed = 1;
nodes = (
"442 -10 OFFCURVE",
"552 129 OFFCURVE",
"552 313 CURVE SMOOTH",
"552 408 OFFCURVE",
"502 513 OFFCURVE",
"387 513 CURVE SMOOTH",
"352 513 OFFCURVE",
"321 501 OFFCURVE",
"300 482 CURVE",
"317 519 OFFCURVE",
"325 537 OFFCURVE",
"336 563 CURVE SMOOTH",
"400 714 LINE",
"306 714 LINE",
"179 414 LINE",
"259 380 LINE",
"279 420 OFFCURVE",
"315 439 OFFCURVE",
"355 439 CURVE SMOOTH",
"424 439 OFFCURVE",
"461 391 OFFCURVE",
"461 320 CURVE SMOOTH",
"461 174 OFFCURVE",
"378 63 OFFCURVE",
"277 63 CURVE SMOOTH",
"205 63 OFFCURVE",
"143 112 OFFCURVE",
"143 205 CURVE SMOOTH",
"143 260 OFFCURVE",
"155 289 OFFCURVE",
"161 303 CURVE",
"75 339 LINE",
"63 311 OFFCURVE",
"52 269 OFFCURVE",
"52 223 CURVE SMOOTH",
"52 55 OFFCURVE",
"173 -10 OFFCURVE",
"267 -10 CURVE SMOOTH"
);
}
);
};
layerId = UUID0;
paths = (
{
closed = 1;
nodes = (
"442 -10 OFFCURVE",
"552 129 OFFCURVE",
"552 313 CURVE SMOOTH",
"552 408 OFFCURVE",
"502 513 OFFCURVE",
"387 513 CURVE SMOOTH",
"352 513 OFFCURVE",
"321 501 OFFCURVE",
"300 482 CURVE",
"317 519 OFFCURVE",
"325 537 OFFCURVE",
"336 563 CURVE SMOOTH",
"400 714 LINE",
"306 714 LINE",
"179 414 LINE",
"259 380 LINE",
"279 420 OFFCURVE",
"315 439 OFFCURVE",
"355 439 CURVE SMOOTH",
"424 439 OFFCURVE",
"461 391 OFFCURVE",
"461 320 CURVE SMOOTH",
"461 174 OFFCURVE",
"378 63 OFFCURVE",
"277 63 CURVE SMOOTH",
"205 63 OFFCURVE",
"143 112 OFFCURVE",
"143 205 CURVE SMOOTH",
"143 260 OFFCURVE",
"155 289 OFFCURVE",
"161 303 CURVE",
"75 339 LINE",
"63 311 OFFCURVE",
"52 269 OFFCURVE",
"52 223 CURVE SMOOTH",
"52 55 OFFCURVE",
"173 -10 OFFCURVE",
"267 -10 CURVE SMOOTH"
);
}
);
width = 600;
}
);
unicode = A6BD;
},
{
glyphname = uniA6BE;
lastChange = "2017-02-24 16:23:59 +0000";
layers = (
{
background = {
paths = (
{
closed = 1;
nodes = (
"415 0 LINE",
"415 333 LINE",
"554 333 LINE",
"554 0 LINE",
"644 0 LINE",
"644 412 LINE",
"415 412 LINE",
"415 714 LINE",
"325 714 LINE",
"325 412 LINE",
"187 412 LINE",
"187 714 LINE",
"97 714 LINE",
"97 333 LINE",
"325 333 LINE",
"325 0 LINE"
);
}
);
};
layerId = UUID0;
paths = (
{
closed = 1;
nodes = (
"415 0 LINE",
"415 333 LINE",
"554 333 LINE",
"554 0 LINE",
"644 0 LINE",
"644 412 LINE",
"415 412 LINE",
"415 714 LINE",
"325 714 LINE",
"325 412 LINE",
"187 412 LINE",
"187 714 LINE",
"97 714 LINE",
"97 333 LINE",
"325 333 LINE",
"325 0 LINE"
);
}
);
width = 741;
}
);
unicode = A6BE;
},
{
glyphname = uniA6BF;
lastChange = "2017-02-24 16:23:59 +0000";
layers = (
{
background = {
paths = (
{
closed = 1;
nodes = (
"483 0 LINE",
"515 117 OFFCURVE",
"538 268 OFFCURVE",
"538 400 CURVE SMOOTH",
"538 590 OFFCURVE",
"478 725 OFFCURVE",
"295 725 CURVE SMOOTH",
"182 725 OFFCURVE",
"84 654 OFFCURVE",
"84 536 CURVE SMOOTH",
"84 477 OFFCURVE",
"111 433 OFFCURVE",
"135 412 CURVE",
"56 412 LINE",
"56 333 LINE",
"373 333 LINE",
"373 412 LINE",
"305 412 LINE SMOOTH",
"204 412 OFFCURVE",
"173 483 OFFCURVE",
"173 530 CURVE SMOOTH",
"173 600 OFFCURVE",
"223 653 OFFCURVE",
"301 653 CURVE SMOOTH",
"415 653 OFFCURVE",
"449 535 OFFCURVE",
"449 400 CURVE SMOOTH",
"449 269 OFFCURVE",
"426 126 OFFCURVE",
"395 0 CURVE"
);
}
);
};
layerId = UUID0;
paths = (
{
closed = 1;
nodes = (
"483 0 LINE",
"515 117 OFFCURVE",
"538 268 OFFCURVE",
"538 400 CURVE SMOOTH",
"538 590 OFFCURVE",
"478 725 OFFCURVE",
"295 725 CURVE SMOOTH",
"182 725 OFFCURVE",
"84 654 OFFCURVE",
"84 536 CURVE SMOOTH",
"84 477 OFFCURVE",
"111 433 OFFCURVE",
"135 412 CURVE",
"56 412 LINE",
"56 333 LINE",
"373 333 LINE",
"373 412 LINE",
"305 412 LINE SMOOTH",
"204 412 OFFCURVE",
"173 483 OFFCURVE",
"173 530 CURVE SMOOTH",
"173 600 OFFCURVE",
"223 653 OFFCURVE",
"301 653 CURVE SMOOTH",
"415 653 OFFCURVE",
"449 535 OFFCURVE",
"449 400 CURVE SMOOTH",
"449 269 OFFCURVE",
"426 126 OFFCURVE",
"395 0 CURVE"
);
}
);
width = 619;
}
);
unicode = A6BF;
},
{
glyphname = uniA6C0;
lastChange = "2017-02-24 16:23:59 +0000";
layers = (
{
background = {
paths = (
{
closed = 1;
nodes = (
"483 0 LINE",
"515 117 OFFCURVE",
"538 268 OFFCURVE",
"538 400 CURVE SMOOTH",
"538 590 OFFCURVE",
"479 725 OFFCURVE",
"300 725 CURVE SMOOTH",
"175 725 OFFCURVE",
"81 645 OFFCURVE",
"81 469 CURVE SMOOTH",
"81 333 LINE",
"373 333 LINE",
"373 412 LINE",
"170 412 LINE",
"170 464 LINE SMOOTH",
"170 594 OFFCURVE",
"224 653 OFFCURVE",
"300 653 CURVE SMOOTH",
"415 653 OFFCURVE",
"449 535 OFFCURVE",
"449 400 CURVE SMOOTH",
"449 269 OFFCURVE",
"426 126 OFFCURVE",
"395 0 CURVE"
);
}
);
};
layerId = UUID0;
paths = (
{
closed = 1;
nodes = (
"483 0 LINE",
"515 117 OFFCURVE",
"538 268 OFFCURVE",
"538 400 CURVE SMOOTH",
"538 590 OFFCURVE",
"479 725 OFFCURVE",
"300 725 CURVE SMOOTH",
"175 725 OFFCURVE",
"81 645 OFFCURVE",
"81 469 CURVE SMOOTH",
"81 333 LINE",
"373 333 LINE",
"373 412 LINE",
"170 412 LINE",
"170 464 LINE SMOOTH",
"170 594 OFFCURVE",
"224 653 OFFCURVE",
"300 653 CURVE SMOOTH",
"415 653 OFFCURVE",
"449 535 OFFCURVE",
"449 400 CURVE SMOOTH",
"449 269 OFFCURVE",
"426 126 OFFCURVE",
"395 0 CURVE"
);
}
);
width = 619;
}
);
unicode = A6C0;
},
{
glyphname = uniA6C1;
lastChange = "2017-02-24 16:23:59 +0000";
layers = (
{
background = {
paths = (
{
closed = 1;
nodes = (
"483 0 LINE",
"515 117 OFFCURVE",
"538 268 OFFCURVE",
"538 400 CURVE SMOOTH",
"538 590 OFFCURVE",
"479 725 OFFCURVE",
"300 725 CURVE SMOOTH",
"175 725 OFFCURVE",
"81 645 OFFCURVE",
"81 469 CURVE SMOOTH",
"81 419 OFFCURVE",
"89 380 OFFCURVE",
"103 334 CURVE",
"191 334 LINE",
"178 379 OFFCURVE",
"170 419 OFFCURVE",
"170 464 CURVE SMOOTH",
"170 594 OFFCURVE",
"224 653 OFFCURVE",
"300 653 CURVE SMOOTH",
"415 653 OFFCURVE",
"449 535 OFFCURVE",
"449 400 CURVE SMOOTH",
"449 269 OFFCURVE",
"426 126 OFFCURVE",
"395 0 CURVE"
);
}
);
};
layerId = UUID0;
paths = (
{
closed = 1;
nodes = (
"483 0 LINE",
"515 117 OFFCURVE",
"538 268 OFFCURVE",
"538 400 CURVE SMOOTH",
"538 590 OFFCURVE",
"479 725 OFFCURVE",
"300 725 CURVE SMOOTH",
"175 725 OFFCURVE",
"81 645 OFFCURVE",
"81 469 CURVE SMOOTH",
"81 419 OFFCURVE",
"89 380 OFFCURVE",
"103 334 CURVE",
"191 334 LINE",
"178 379 OFFCURVE",
"170 419 OFFCURVE",
"170 464 CURVE SMOOTH",
"170 594 OFFCURVE",
"224 653 OFFCURVE",
"300 653 CURVE SMOOTH",
"415 653 OFFCURVE",
"449 535 OFFCURVE",
"449 400 CURVE SMOOTH",
"449 269 OFFCURVE",
"426 126 OFFCURVE",
"395 0 CURVE"
);
}
);
width = 619;
}
);
unicode = A6C1;
},
{
glyphname = uniA6C2;
lastChange = "2017-02-24 16:23:59 +0000";
layers = (
{
background = {
paths = (
{
closed = 1;
nodes = (
"174 0 LINE",
"174 714 LINE",
"85 714 LINE",
"85 0 LINE"
);
},
{
closed = 1;
nodes = (
"493 478 LINE",
"493 562 LINE",
"222 451 LINE",
"222 367 LINE"
);
},
{
closed = 1;
nodes = (
"493 641 LINE",
"493 725 LINE",
"222 615 LINE",
"222 531 LINE"
);
}
);
};
layerId = UUID0;
paths = (
{
closed = 1;
nodes = (
"174 0 LINE",
"174 714 LINE",
"85 714 LINE",
"85 0 LINE"
);
},
{
closed = 1;
nodes = (
"493 478 LINE",
"493 562 LINE",
"222 451 LINE",
"222 367 LINE"
);
},
{
closed = 1;
nodes = (
"493 641 LINE",
"493 725 LINE",
"222 615 LINE",
"222 531 LINE"
);
}
);
width = 533;
}
);
unicode = A6C2;
},
{
glyphname = uniA6C3;
lastChange = "2017-02-24 16:23:59 +0000";
layers = (
{
background = {
paths = (
{
closed = 1;
nodes = (
"258 0 LINE",
"318 231 LINE SMOOTH",
"333 288 OFFCURVE",
"351 377 OFFCURVE",
"351 377 CURVE",
"355 377 LINE",
"355 377 OFFCURVE",
"376 285 OFFCURVE",
"390 229 CURVE SMOOTH",
"449 0 LINE",
"547 0 LINE",
"600 287 OFFCURVE",
"651 493 OFFCURVE",
"765 599 CURVE",
"765 710 LINE",
"624 601 OFFCURVE",
"549 464 OFFCURVE",
"496 90 CURVE",
"493 90 LINE",
"488 130 OFFCURVE",
"473 199 OFFCURVE",
"460 249 CURVE SMOOTH",
"403 469 LINE",
"307 469 LINE",
"249 237 LINE SMOOTH",
"238 192 OFFCURVE",
"221 123 OFFCURVE",
"214 90 CURVE",
"211 90 LINE",
"206 128 OFFCURVE",
"191 192 OFFCURVE",
"176 250 CURVE",
"119 469 LINE",
"28 469 LINE",
"158 0 LINE"
);
}
);
};
layerId = UUID0;
paths = (
{
closed = 1;
nodes = (
"258 0 LINE",
"318 231 LINE SMOOTH",
"329 273 OFFCURVE",
"343 339 OFFCURVE",
"351 377 CURVE",
"355 377 LINE",
"364 337 OFFCURVE",
"379 270 OFFCURVE",
"390 229 CURVE SMOOTH",
"449 0 LINE",
"547 0 LINE",
"600 287 OFFCURVE",
"651 493 OFFCURVE",
"765 599 CURVE",
"765 710 LINE",
"624 601 OFFCURVE",
"549 464 OFFCURVE",
"496 90 CURVE",
"493 90 LINE",
"488 130 OFFCURVE",
"473 199 OFFCURVE",
"460 249 CURVE SMOOTH",
"403 469 LINE",
"307 469 LINE",
"249 237 LINE SMOOTH",
"238 192 OFFCURVE",
"221 123 OFFCURVE",
"214 90 CURVE",
"211 90 LINE",
"206 128 OFFCURVE",
"191 192 OFFCURVE",
"176 250 CURVE",
"119 469 LINE",
"28 469 LINE",
"158 0 LINE"
);
}
);
width = 770;
}
);
unicode = A6C3;
},
{
glyphname = uniA6C4;
lastChange = "2017-02-24 16:23:59 +0000";
layers = (
{
background = {
paths = (
{
closed = 1;
nodes = (
"186 0 LINE",
"186 366 LINE",
"566 222 LINE",
"616 222 LINE",
"616 672 LINE",
"566 672 LINE",
"186 527 LINE",
"186 714 LINE",
"97 714 LINE",
"97 0 LINE"
);
},
{
closed = 1;
nodes = (
"460 352 OFFCURVE",
"394 377 OFFCURVE",
"327 401 CURVE SMOOTH",
"283 417 OFFCURVE",
"219 438 OFFCURVE",
"186 444 CURVE",
"186 448 LINE",
"219 455 OFFCURVE",
"284 478 OFFCURVE",
"327 493 CURVE SMOOTH",
"394 517 OFFCURVE",
"460 542 OFFCURVE",
"527 569 CURVE",
"527 325 LINE"
);
}
);
};
layerId = UUID0;
paths = (
{
closed = 1;
nodes = (
"186 0 LINE",
"186 366 LINE",
"566 222 LINE",
"616 222 LINE",
"616 672 LINE",
"566 672 LINE",
"186 527 LINE",
"186 714 LINE",
"97 714 LINE",
"97 0 LINE"
);
},
{
closed = 1;
nodes = (
"460 352 OFFCURVE",
"394 377 OFFCURVE",
"327 401 CURVE SMOOTH",
"283 417 OFFCURVE",
"219 438 OFFCURVE",
"186 444 CURVE",
"186 448 LINE",
"219 455 OFFCURVE",
"284 478 OFFCURVE",
"327 493 CURVE SMOOTH",
"394 517 OFFCURVE",
"460 542 OFFCURVE",
"527 569 CURVE",
"527 325 LINE"
);
}
);
width = 697;
}
);
unicode = A6C4;
},
{
glyphname = uniA6C5;
lastChange = "2017-02-24 16:23:59 +0000";
layers = (
{
background = {
paths = (
{
closed = 1;
nodes = (
"187 -1 LINE",
"187 268 LINE",
"347 357 LINE",
"347 160 LINE",
"437 160 LINE",
"437 714 LINE",
"347 714 LINE",
"347 446 LINE",
"187 357 LINE",
"187 553 LINE",
"97 553 LINE",
"97 -1 LINE"
);
},
{
closed = 1;
nodes = (
"578 448 OFFCURVE",
"602 466 OFFCURVE",
"602 504 CURVE SMOOTH",
"602 543 OFFCURVE",
"578 560 OFFCURVE",
"551 560 CURVE SMOOTH",
"522 560 OFFCURVE",
"499 543 OFFCURVE",
"499 504 CURVE SMOOTH",
"499 466 OFFCURVE",
"522 448 OFFCURVE",
"551 448 CURVE SMOOTH"
);
}
);
};
layerId = UUID0;
paths = (
{
closed = 1;
nodes = (
"187 -1 LINE",
"187 268 LINE",
"347 357 LINE",
"347 160 LINE",
"437 160 LINE",
"437 714 LINE",
"347 714 LINE",
"347 446 LINE",
"187 357 LINE",
"187 553 LINE",
"97 553 LINE",
"97 -1 LINE"
);
},
{
closed = 1;
nodes = (
"578 448 OFFCURVE",
"602 466 OFFCURVE",
"602 504 CURVE SMOOTH",
"602 543 OFFCURVE",
"578 560 OFFCURVE",
"551 560 CURVE SMOOTH",
"522 560 OFFCURVE",
"499 543 OFFCURVE",
"499 504 CURVE SMOOTH",
"499 466 OFFCURVE",
"522 448 OFFCURVE",
"551 448 CURVE SMOOTH"
);
}
);
width = 602;
}
);
unicode = A6C5;
},
{
glyphname = uniA6C6;
lastChange = "2017-02-24 16:23:59 +0000";
layers = (
{
background = {
paths = (
{
closed = 1;
nodes = (
"472 0 LINE",
"472 714 LINE",
"382 714 LINE",
"382 550 LINE SMOOTH",
"382 525 OFFCURVE",
"383 499 OFFCURVE",
"384 474 CURVE",
"382 474 LINE",
"346 517 OFFCURVE",
"282 545 OFFCURVE",
"196 545 CURVE SMOOTH",
"123 545 OFFCURVE",
"69 522 OFFCURVE",
"40 511 CURVE",
"60 432 LINE",
"85 442 OFFCURVE",
"123 464 OFFCURVE",
"190 464 CURVE SMOOTH",
"335 464 OFFCURVE",
"382 373 OFFCURVE",
"382 286 CURVE SMOOTH",
"382 161 OFFCURVE",
"258 95 OFFCURVE",
"148 95 CURVE",
"168 15 LINE",
"263 17 OFFCURVE",
"329 45 OFFCURVE",
"382 102 CURVE",
"384 102 LINE",
"383 67 OFFCURVE",
"382 36 OFFCURVE",
"382 0 CURVE"
);
}
);
};
layerId = UUID0;
paths = (
{
closed = 1;
nodes = (
"472 0 LINE",
"472 714 LINE",
"382 714 LINE",
"382 550 LINE SMOOTH",
"382 525 OFFCURVE",
"383 499 OFFCURVE",
"384 474 CURVE",
"382 474 LINE",
"346 517 OFFCURVE",
"282 545 OFFCURVE",
"196 545 CURVE SMOOTH",
"123 545 OFFCURVE",
"69 522 OFFCURVE",
"40 511 CURVE",
"60 432 LINE",
"85 442 OFFCURVE",
"123 464 OFFCURVE",
"190 464 CURVE SMOOTH",
"335 464 OFFCURVE",
"382 373 OFFCURVE",
"382 286 CURVE SMOOTH",
"382 161 OFFCURVE",
"258 95 OFFCURVE",
"148 95 CURVE",
"168 15 LINE",
"263 17 OFFCURVE",
"329 45 OFFCURVE",
"382 102 CURVE",
"384 102 LINE",
"383 67 OFFCURVE",
"382 36 OFFCURVE",
"382 0 CURVE"
);
}
);
width = 569;
}
);
unicode = A6C6;
},
{
glyphname = uniA6C7;
lastChange = "2017-02-24 16:23:59 +0000";
layers = (
{
background = {
paths = (
{
closed = 1;
nodes = (
"577 178 LINE",
"113 427 LINE",
"113 431 LINE",
"513 616 LINE",
"513 714 LINE",
"35 478 LINE",
"35 379 LINE",
"577 78 LINE"
);
},
{
closed = 1;
nodes = (
"513 374 OFFCURVE",
"537 392 OFFCURVE",
"537 430 CURVE",
"537 469 OFFCURVE",
"513 486 OFFCURVE",
"486 486 CURVE",
"457 486 OFFCURVE",
"434 469 OFFCURVE",
"434 430 CURVE",
"434 392 OFFCURVE",
"457 374 OFFCURVE",
"486 374 CURVE"
);
}
);
};
layerId = UUID0;
paths = (
{
closed = 1;
nodes = (
"577 178 LINE",
"113 427 LINE",
"113 431 LINE",
"513 616 LINE",
"513 714 LINE",
"35 478 LINE",
"35 379 LINE",
"577 78 LINE"
);
},
{
closed = 1;
nodes = (
"513 374 OFFCURVE",
"537 392 OFFCURVE",
"537 430 CURVE SMOOTH",
"537 469 OFFCURVE",
"513 486 OFFCURVE",
"486 486 CURVE SMOOTH",
"457 486 OFFCURVE",
"434 469 OFFCURVE",
"434 430 CURVE SMOOTH",
"434 392 OFFCURVE",
"457 374 OFFCURVE",
"486 374 CURVE SMOOTH"
);
}
);
width = 621;
}
);
unicode = A6C7;
},
{
glyphname = uniA6C8;
lastChange = "2017-02-24 16:23:59 +0000";
layers = (
{
background = {
paths = (
{
closed = 1;
nodes = (
"168 337 LINE",
"168 464 LINE SMOOTH",
"168 581 OFFCURVE",
"217 641 OFFCURVE",
"337 641 CURVE SMOOTH",
"449 641 OFFCURVE",
"502 567 OFFCURVE",
"502 464 CURVE SMOOTH",
"502 337 LINE",
"591 337 LINE",
"591 470 LINE SMOOTH",
"591 632 OFFCURVE",
"493 714 OFFCURVE",
"340 714 CURVE SMOOTH",
"161 714 OFFCURVE",
"79 615 OFFCURVE",
"79 470 CURVE SMOOTH",
"79 337 LINE"
);
},
{
closed = 1;
nodes = (
"380 0 LINE",
"380 499 LINE",
"290 499 LINE",
"290 0 LINE"
);
}
);
};
layerId = UUID0;
paths = (
{
closed = 1;
nodes = (
"168 337 LINE",
"168 464 LINE SMOOTH",
"168 581 OFFCURVE",
"217 641 OFFCURVE",
"337 641 CURVE SMOOTH",
"449 641 OFFCURVE",
"502 567 OFFCURVE",
"502 464 CURVE SMOOTH",
"502 337 LINE",
"591 337 LINE",
"591 470 LINE SMOOTH",
"591 632 OFFCURVE",
"493 714 OFFCURVE",
"340 714 CURVE SMOOTH",
"161 714 OFFCURVE",
"79 615 OFFCURVE",
"79 470 CURVE SMOOTH",
"79 337 LINE"
);
},
{
closed = 1;
nodes = (
"380 0 LINE",
"380 499 LINE",
"290 499 LINE",
"290 0 LINE"
);
}
);
width = 670;
}
);
unicode = A6C8;
},
{
glyphname = uniA6C9;
lastChange = "2017-02-24 16:23:59 +0000";
layers = (
{
background = {
paths = (
{
closed = 1;
nodes = (
"533 0 LINE",
"533 80 LINE",
"147 80 LINE",
"523 646 LINE",
"523 714 LINE",
"50 714 LINE",
"50 634 LINE",
"414 634 LINE",
"38 68 LINE",
"38 0 LINE"
);
}
);
};
layerId = UUID0;
paths = (
{
closed = 1;
nodes = (
"533 0 LINE",
"533 80 LINE",
"147 80 LINE",
"523 646 LINE",
"523 714 LINE",
"50 714 LINE",
"50 634 LINE",
"414 634 LINE",
"38 68 LINE",
"38 0 LINE"
);
}
);
width = 572;
}
);
unicode = A6C9;
},
{
glyphname = uniA6CA;
lastChange = "2017-02-24 16:23:59 +0000";
layers = (
{
background = {
paths = (
{
closed = 1;
nodes = (
"48 1 LINE SMOOTH",
"139 1 OFFCURVE",
"254 52 OFFCURVE",
"290 255 CURVE",
"322 216 OFFCURVE",
"388 168 OFFCURVE",
"488 168 CURVE SMOOTH",
"610 168 OFFCURVE",
"713 237 OFFCURVE",
"713 380 CURVE SMOOTH",
"713 471 OFFCURVE",
"668 570 OFFCURVE",
"543 570 CURVE SMOOTH",
"456 570 OFFCURVE",
"384 505 OFFCURVE",
"384 375 CURVE SMOOTH",
"384 368 LINE",
"474 368 LINE",
"474 384 LINE SMOOTH",
"474 462 OFFCURVE",
"502 496 OFFCURVE",
"547 496 CURVE SMOOTH",
"590 496 OFFCURVE",
"624 451 OFFCURVE",
"624 385 CURVE SMOOTH",
"624 304 OFFCURVE",
"582 241 OFFCURVE",
"482 241 CURVE SMOOTH",
"392 241 OFFCURVE",
"314 308 OFFCURVE",
"314 413 CURVE SMOOTH",
"314 422 OFFCURVE",
"313 451 OFFCURVE",
"320 524 CURVE SMOOTH",
"340 714 LINE",
"250 714 LINE",
"216 353 LINE SMOOTH",
"200 188 OFFCURVE",
"146 79 OFFCURVE",
"36 79 CURVE SMOOTH",
"7 79 LINE",
"7 1 LINE"
);
}
);
};
layerId = UUID0;
paths = (
{
closed = 1;
nodes = (
"48 1 LINE SMOOTH",
"139 1 OFFCURVE",
"254 52 OFFCURVE",
"290 255 CURVE",
"322 216 OFFCURVE",
"388 168 OFFCURVE",
"488 168 CURVE SMOOTH",
"610 168 OFFCURVE",
"713 237 OFFCURVE",
"713 380 CURVE SMOOTH",
"713 471 OFFCURVE",
"668 570 OFFCURVE",
"543 570 CURVE SMOOTH",
"456 570 OFFCURVE",
"384 505 OFFCURVE",
"384 375 CURVE SMOOTH",
"384 368 LINE",
"474 368 LINE",
"474 384 LINE SMOOTH",
"474 462 OFFCURVE",
"502 496 OFFCURVE",
"547 496 CURVE SMOOTH",
"590 496 OFFCURVE",
"624 451 OFFCURVE",
"624 385 CURVE SMOOTH",
"624 304 OFFCURVE",
"582 241 OFFCURVE",
"482 241 CURVE SMOOTH",
"392 241 OFFCURVE",
"314 308 OFFCURVE",
"314 413 CURVE SMOOTH",
"314 422 OFFCURVE",
"314 464 OFFCURVE",
"320 524 CURVE SMOOTH",
"340 714 LINE",
"250 714 LINE",
"216 353 LINE SMOOTH",
"200 188 OFFCURVE",
"146 79 OFFCURVE",
"36 79 CURVE SMOOTH",
"7 79 LINE",
"7 1 LINE"
);
}
);
width = 748;
}
);
unicode = A6CA;
},
{
glyphname = uniA6CB;
lastChange = "2017-02-24 16:23:59 +0000";
layers = (
{
background = {
paths = (
{
closed = 1;
nodes = (
"372 0 LINE",
"462 643 LINE",
"563 643 LINE",
"563 714 LINE",
"248 714 LINE",
"248 643 LINE",
"363 643 LINE",
"43 444 LINE",
"88 369 LINE",
"240 465 LINE SMOOTH",
"294 499 OFFCURVE",
"337 524 OFFCURVE",
"371 558 CURVE",
"360 512 OFFCURVE",
"349 460 OFFCURVE",
"340 397 CURVE SMOOTH",
"280 0 LINE"
);
}
);
};
layerId = UUID0;
paths = (
{
closed = 1;
nodes = (
"372 0 LINE",
"462 643 LINE",
"563 643 LINE",
"563 714 LINE",
"248 714 LINE",
"248 643 LINE",
"363 643 LINE",
"43 444 LINE",
"88 369 LINE",
"240 465 LINE SMOOTH",
"294 499 OFFCURVE",
"337 524 OFFCURVE",
"371 558 CURVE",
"360 512 OFFCURVE",
"350 460 OFFCURVE",
"340 397 CURVE SMOOTH",
"280 0 LINE"
);
}
);
width = 563;
}
);
unicode = A6CB;
},
{
glyphname = uniA6CC;
lastChange = "2017-02-24 16:23:59 +0000";
layers = (
{
background = {
paths = (
{
closed = 1;
nodes = (
"377 122 OFFCURVE",
"449 179 OFFCURVE",
"449 255 CURVE SMOOTH",
"449 324 OFFCURVE",
"394 352 OFFCURVE",
"330 367 CURVE",
"330 371 LINE",
"390 387 OFFCURVE",
"430 420 OFFCURVE",
"430 476 CURVE SMOOTH",
"430 553 OFFCURVE",
"345 597 OFFCURVE",
"224 597 CURVE SMOOTH",
"147 597 OFFCURVE",
"96 583 OFFCURVE",
"43 559 CURVE",
"76 494 LINE",
"120 511 OFFCURVE",
"162 524 OFFCURVE",
"224 524 CURVE SMOOTH",
"303 524 OFFCURVE",
"346 498 OFFCURVE",
"346 467 CURVE SMOOTH",
"346 423 OFFCURVE",
"286 406 OFFCURVE",
"193 406 CURVE SMOOTH",
"137 406 LINE",
"137 334 LINE",
"210 334 LINE SMOOTH",
"312 334 OFFCURVE",
"361 310 OFFCURVE",
"361 263 CURVE SMOOTH",
"361 228 OFFCURVE",
"324 194 OFFCURVE",
"219 194 CURVE SMOOTH",
"145 194 OFFCURVE",
"89 212 OFFCURVE",
"45 230 CURVE",
"45 159 LINE",
"86 137 OFFCURVE",
"142 122 OFFCURVE",
"224 122 CURVE SMOOTH"
);
},
{
closed = 1;
nodes = (
"259 -10 OFFCURVE",
"283 8 OFFCURVE",
"283 46 CURVE SMOOTH",
"283 85 OFFCURVE",
"259 102 OFFCURVE",
"232 102 CURVE SMOOTH",
"203 102 OFFCURVE",
"180 85 OFFCURVE",
"180 46 CURVE SMOOTH",
"180 8 OFFCURVE",
"203 -10 OFFCURVE",
"232 -10 CURVE SMOOTH"
);
},
{
closed = 1;
nodes = (
"259 613 OFFCURVE",
"283 631 OFFCURVE",
"283 669 CURVE SMOOTH",
"283 708 OFFCURVE",
"259 725 OFFCURVE",
"232 725 CURVE SMOOTH",
"203 725 OFFCURVE",
"180 708 OFFCURVE",
"180 669 CURVE SMOOTH",
"180 631 OFFCURVE",
"203 613 OFFCURVE",
"232 613 CURVE SMOOTH"
);
}
);
};
layerId = UUID0;
paths = (
{
closed = 1;
nodes = (
"377 122 OFFCURVE",
"449 179 OFFCURVE",
"449 255 CURVE SMOOTH",
"449 324 OFFCURVE",
"394 352 OFFCURVE",
"330 367 CURVE",
"330 371 LINE",
"390 387 OFFCURVE",
"430 420 OFFCURVE",
"430 476 CURVE SMOOTH",
"430 553 OFFCURVE",
"345 597 OFFCURVE",
"224 597 CURVE SMOOTH",
"147 597 OFFCURVE",
"96 583 OFFCURVE",
"43 559 CURVE",
"76 494 LINE",
"120 511 OFFCURVE",
"162 524 OFFCURVE",
"224 524 CURVE SMOOTH",
"303 524 OFFCURVE",
"346 498 OFFCURVE",
"346 467 CURVE SMOOTH",
"346 423 OFFCURVE",
"286 406 OFFCURVE",
"193 406 CURVE SMOOTH",
"137 406 LINE",
"137 334 LINE",
"210 334 LINE SMOOTH",
"312 334 OFFCURVE",
"361 310 OFFCURVE",
"361 263 CURVE SMOOTH",
"361 228 OFFCURVE",
"324 194 OFFCURVE",
"219 194 CURVE SMOOTH",
"145 194 OFFCURVE",
"89 212 OFFCURVE",
"45 230 CURVE",
"45 159 LINE",
"86 137 OFFCURVE",
"142 122 OFFCURVE",
"224 122 CURVE SMOOTH"
);
},
{
closed = 1;
nodes = (
"259 -10 OFFCURVE",
"283 8 OFFCURVE",
"283 46 CURVE SMOOTH",
"283 85 OFFCURVE",
"259 102 OFFCURVE",
"232 102 CURVE SMOOTH",
"203 102 OFFCURVE",
"180 85 OFFCURVE",
"180 46 CURVE SMOOTH",
"180 8 OFFCURVE",
"203 -10 OFFCURVE",
"232 -10 CURVE SMOOTH"
);
},
{
closed = 1;
nodes = (
"259 613 OFFCURVE",
"283 631 OFFCURVE",
"283 669 CURVE SMOOTH",
"283 708 OFFCURVE",
"259 725 OFFCURVE",
"232 725 CURVE SMOOTH",
"203 725 OFFCURVE",
"180 708 OFFCURVE",
"180 669 CURVE SMOOTH",
"180 631 OFFCURVE",
"203 613 OFFCURVE",
"232 613 CURVE SMOOTH"
);
}
);
width = 483;
}
);
unicode = A6CC;
},
{
glyphname = uniA6CD;
lastChange = "2017-02-24 16:23:59 +0000";
layers = (
{
background = {
paths = (
{
closed = 1;
nodes = (
"317 0 LINE",
"317 144 LINE",
"471 144 LINE",
"471 215 LINE",
"317 215 LINE",
"317 292 LINE",
"429 311 OFFCURVE",
"491 399 OFFCURVE",
"491 507 CURVE SMOOTH",
"491 636 OFFCURVE",
"401 725 OFFCURVE",
"274 725 CURVE SMOOTH",
"148 725 OFFCURVE",
"57 642 OFFCURVE",
"55 507 CURVE",
"146 507 LINE",
"147 592 OFFCURVE",
"191 651 OFFCURVE",
"272 651 CURVE SMOOTH",
"357 651 OFFCURVE",
"400 587 OFFCURVE",
"400 507 CURVE SMOOTH",
"400 433 OFFCURVE",
"365 365 OFFCURVE",
"275 362 CURVE",
"229 362 LINE",
"229 215 LINE",
"75 215 LINE",
"75 144 LINE",
"229 144 LINE",
"229 0 LINE"
);
}
);
};
layerId = UUID0;
paths = (
{
closed = 1;
nodes = (
"317 0 LINE",
"317 144 LINE",
"471 144 LINE",
"471 215 LINE",
"317 215 LINE",
"317 292 LINE",
"429 311 OFFCURVE",
"491 399 OFFCURVE",
"491 507 CURVE SMOOTH",
"491 636 OFFCURVE",
"401 725 OFFCURVE",
"274 725 CURVE SMOOTH",
"148 725 OFFCURVE",
"57 642 OFFCURVE",
"55 507 CURVE",
"146 507 LINE",
"147 592 OFFCURVE",
"191 651 OFFCURVE",
"272 651 CURVE SMOOTH",
"357 651 OFFCURVE",
"400 587 OFFCURVE",
"400 507 CURVE SMOOTH",
"400 433 OFFCURVE",
"363 362 OFFCURVE",
"272 362 CURVE SMOOTH",
"229 362 LINE",
"229 215 LINE",
"75 215 LINE",
"75 144 LINE",
"229 144 LINE",
"229 0 LINE"
);
}
);
width = 546;
}
);
unicode = A6CD;
},
{
glyphname = uniA6CE;
lastChange = "2017-02-24 16:23:59 +0000";
layers = (
{
background = {
paths = (
{
closed = 1;
nodes = (
"95 0 LINE",
"255 456 LINE SMOOTH",
"277 516 OFFCURVE",
"291 567 OFFCURVE",
"300 614 CURVE",
"310 567 OFFCURVE",
"324 517 OFFCURVE",
"345 458 CURVE SMOOTH",
"506 0 LINE",
"600 0 LINE",
"345 714 LINE",
"255 714 LINE",
"0 0 LINE"
);
}
);
};
layerId = UUID0;
paths = (
{
closed = 1;
nodes = (
"95 0 LINE",
"255 456 LINE SMOOTH",
"276 516 OFFCURVE",
"291 567 OFFCURVE",
"300 614 CURVE",
"310 567 OFFCURVE",
"324 517 OFFCURVE",
"345 458 CURVE SMOOTH",
"506 0 LINE",
"600 0 LINE",
"345 714 LINE",
"255 714 LINE",
"0 0 LINE"
);
}
);
width = 600;
}
);
unicode = A6CE;
},
{
glyphname = uniA6CF;
lastChange = "2017-02-24 16:23:59 +0000";
layers = (
{
background = {
paths = (
{
closed = 1;
nodes = (
"133 179 LINE",
"176 347 LINE",
"191 405 OFFCURVE",
"206 469 OFFCURVE",
"211 507 CURVE",
"214 507 LINE",
"221 474 OFFCURVE",
"237 407 OFFCURVE",
"251 363 CURVE SMOOTH",
"309 179 LINE",
"405 179 LINE",
"460 363 LINE",
"475 409 OFFCURVE",
"491 468 OFFCURVE",
"496 506 CURVE",
"500 506 LINE",
"504 473 OFFCURVE",
"520 408 OFFCURVE",
"536 347 CURVE SMOOTH",
"578 179 LINE",
"668 179 LINE",
"552 597 LINE",
"449 597 LINE",
"394 413 LINE",
"377 358 OFFCURVE",
"357 271 OFFCURVE",
"357 271 CURVE",
"353 271 LINE",
"353 271 OFFCURVE",
"334 358 OFFCURVE",
"317 414 CURVE SMOOTH",
"258 597 LINE",
"158 597 LINE",
"42 179 LINE"
);
},
{
closed = 1;
nodes = (
"400 0 LINE",
"400 126 LINE",
"311 126 LINE",
"311 0 LINE"
);
},
{
closed = 1;
nodes = (
"502 643 LINE",
"502 714 LINE",
"205 714 LINE",
"205 643 LINE"
);
}
);
};
layerId = UUID0;
paths = (
{
closed = 1;
nodes = (
"133 179 LINE",
"176 347 LINE",
"191 405 OFFCURVE",
"206 469 OFFCURVE",
"211 507 CURVE",
"214 507 LINE",
"221 474 OFFCURVE",
"237 407 OFFCURVE",
"251 363 CURVE SMOOTH",
"309 179 LINE",
"405 179 LINE",
"460 363 LINE SMOOTH",
"474 410 OFFCURVE",
"491 468 OFFCURVE",
"496 506 CURVE",
"500 506 LINE",
"504 473 OFFCURVE",
"521 408 OFFCURVE",
"536 347 CURVE SMOOTH",
"578 179 LINE",
"668 179 LINE",
"552 597 LINE",
"449 597 LINE",
"394 413 LINE SMOOTH",
"382 373 OFFCURVE",
"366 308 OFFCURVE",
"357 271 CURVE",
"353 271 LINE",
"345 308 OFFCURVE",
"330 373 OFFCURVE",
"317 414 CURVE SMOOTH",
"258 597 LINE",
"158 597 LINE",
"42 179 LINE"
);
},
{
closed = 1;
nodes = (
"400 0 LINE",
"400 126 LINE",
"311 126 LINE",
"311 0 LINE"
);
},
{
closed = 1;
nodes = (
"502 643 LINE",
"502 714 LINE",
"205 714 LINE",
"205 643 LINE"
);
}
);
width = 710;
}
);
unicode = A6CF;
},
{
glyphname = uniA6D0;
lastChange = "2017-02-24 16:23:59 +0000";
layers = (
{
background = {
paths = (
{
closed = 1;
nodes = (
"378 395 LINE",
"378 474 LINE",
"297 474 LINE SMOOTH",
"184 474 OFFCURVE",
"140 501 OFFCURVE",
"140 555 CURVE SMOOTH",
"140 608 OFFCURVE",
"178 635 OFFCURVE",
"297 635 CURVE SMOOTH",
"378 635 LINE",
"378 714 LINE",
"297 714 LINE",
"103 714 OFFCURVE",
"49 645 OFFCURVE",
"49 555 CURVE SMOOTH",
"49 477 OFFCURVE",
"97 395 OFFCURVE",
"297 395 CURVE SMOOTH"
);
},
{
closed = 1;
nodes = (
"284 0 LINE",
"284 334 LINE",
"194 334 LINE",
"194 0 LINE"
);
}
);
};
layerId = UUID0;
paths = (
{
closed = 1;
nodes = (
"378 395 LINE",
"378 474 LINE",
"297 474 LINE SMOOTH",
"184 474 OFFCURVE",
"140 501 OFFCURVE",
"140 555 CURVE SMOOTH",
"140 608 OFFCURVE",
"178 635 OFFCURVE",
"297 635 CURVE SMOOTH",
"378 635 LINE",
"378 714 LINE",
"297 714 LINE",
"103 714 OFFCURVE",
"49 645 OFFCURVE",
"49 555 CURVE SMOOTH",
"49 477 OFFCURVE",
"97 395 OFFCURVE",
"297 395 CURVE SMOOTH"
);
},
{
closed = 1;
nodes = (
"284 0 LINE",
"284 334 LINE",
"194 334 LINE",
"194 0 LINE"
);
}
);
width = 465;
}
);
unicode = A6D0;
},
{
glyphname = uniA6D1;
lastChange = "2017-02-24 16:23:59 +0000";
layers = (
{
background = {
paths = (
{
closed = 1;
nodes = (
"133 -10 LINE SMOOTH",
"394 -10 OFFCURVE",
"508 137 OFFCURVE",
"508 358 CURVE SMOOTH",
"508 580 OFFCURVE",
"394 725 OFFCURVE",
"151 725 CURVE SMOOTH",
"112 725 LINE",
"112 646 LINE",
"153 646 LINE SMOOTH",
"341 646 OFFCURVE",
"413 538 OFFCURVE",
"413 358 CURVE SMOOTH",
"413 178 OFFCURVE",
"341 68 OFFCURVE",
"141 68 CURVE SMOOTH",
"112 68 LINE",
"112 -10 LINE"
);
},
{
closed = 1;
nodes = (
"598 548 OFFCURVE",
"621 566 OFFCURVE",
"621 604 CURVE SMOOTH",
"621 643 OFFCURVE",
"598 660 OFFCURVE",
"569 660 CURVE SMOOTH",
"542 660 OFFCURVE",
"518 643 OFFCURVE",
"518 604 CURVE SMOOTH",
"518 566 OFFCURVE",
"542 548 OFFCURVE",
"569 548 CURVE SMOOTH"
);
}
);
};
layerId = UUID0;
paths = (
{
closed = 1;
nodes = (
"133 -10 LINE SMOOTH",
"394 -10 OFFCURVE",
"508 137 OFFCURVE",
"508 358 CURVE SMOOTH",
"508 580 OFFCURVE",
"394 725 OFFCURVE",
"151 725 CURVE SMOOTH",
"112 725 LINE",
"112 646 LINE",
"153 646 LINE SMOOTH",
"341 646 OFFCURVE",
"413 538 OFFCURVE",
"413 358 CURVE SMOOTH",
"413 178 OFFCURVE",
"341 68 OFFCURVE",
"141 68 CURVE SMOOTH",
"112 68 LINE",
"112 -10 LINE"
);
},
{
closed = 1;
nodes = (
"598 548 OFFCURVE",
"621 566 OFFCURVE",
"621 604 CURVE SMOOTH",
"621 643 OFFCURVE",
"598 660 OFFCURVE",
"569 660 CURVE SMOOTH",
"542 660 OFFCURVE",
"518 643 OFFCURVE",
"518 604 CURVE SMOOTH",
"518 566 OFFCURVE",
"542 548 OFFCURVE",
"569 548 CURVE SMOOTH"
);
}
);
width = 621;
}
);
unicode = A6D1;
},
{
glyphname = uniA6D2;
lastChange = "2017-02-24 16:23:59 +0000";
layers = (
{
background = {
paths = (
{
closed = 1;
nodes = (
"383 84 LINE",
"247 156 LINE",
"318 227 LINE SMOOTH",
"419 328 OFFCURVE",
"491 422 OFFCURVE",
"491 534 CURVE SMOOTH",
"491 652 OFFCURVE",
"408 724 OFFCURVE",
"291 724 CURVE SMOOTH",
"235 724 OFFCURVE",
"197 710 OFFCURVE",
"176 697 CURVE",
"204 627 LINE",
"223 636 OFFCURVE",
"249 649 OFFCURVE",
"286 649 CURVE SMOOTH",
"359 649 OFFCURVE",
"401 598 OFFCURVE",
"401 529 CURVE SMOOTH",
"401 432 OFFCURVE",
"346 368 OFFCURVE",
"242 257 CURVE SMOOTH",
"181 192 LINE",
"25 275 LINE",
"25 181 LINE",
"383 -10 LINE"
);
}
);
};
layerId = UUID0;
paths = (
{
closed = 1;
nodes = (
"383 84 LINE",
"247 156 LINE",
"318 227 LINE SMOOTH",
"419 328 OFFCURVE",
"491 422 OFFCURVE",
"491 534 CURVE SMOOTH",
"491 652 OFFCURVE",
"408 724 OFFCURVE",
"291 724 CURVE SMOOTH",
"235 724 OFFCURVE",
"197 710 OFFCURVE",
"176 697 CURVE",
"204 627 LINE",
"223 636 OFFCURVE",
"249 649 OFFCURVE",
"286 649 CURVE SMOOTH",
"359 649 OFFCURVE",
"401 598 OFFCURVE",
"401 529 CURVE SMOOTH",
"401 432 OFFCURVE",
"346 368 OFFCURVE",
"242 257 CURVE SMOOTH",
"181 192 LINE",
"25 275 LINE",
"25 181 LINE",
"383 -10 LINE"
);
}
);
width = 520;
}
);
unicode = A6D2;
},
{
glyphname = uniA6D3;
lastChange = "2017-02-24 16:23:59 +0000";
layers = (
{
background = {
paths = (
{
closed = 1;
nodes = (
"328 0 LINE",
"328 367 LINE",
"351 365 OFFCURVE",
"375 364 OFFCURVE",
"398 364 CURVE SMOOTH",
"535 364 OFFCURVE",
"616 441 OFFCURVE",
"616 548 CURVE SMOOTH",
"616 650 OFFCURVE",
"550 725 OFFCURVE",
"428 725 CURVE SMOOTH",
"316 725 OFFCURVE",
"239 658 OFFCURVE",
"239 493 CURVE SMOOTH",
"239 460 LINE",
"172 476 OFFCURVE",
"112 501 OFFCURVE",
"55 529 CURVE",
"20 459 LINE",
"74 425 OFFCURVE",
"154 396 OFFCURVE",
"239 380 CURVE",
"239 0 LINE"
);
},
{
closed = 1;
nodes = (
"581 0 LINE",
"581 313 LINE",
"491 313 LINE",
"491 0 LINE"
);
},
{
closed = 1;
nodes = (
"370 442 OFFCURVE",
"348 443 OFFCURVE",
"328 445 CURVE",
"328 489 LINE SMOOTH",
"328 617 OFFCURVE",
"376 647 OFFCURVE",
"429 647 CURVE SMOOTH",
"497 647 OFFCURVE",
"527 599 OFFCURVE",
"527 552 CURVE SMOOTH",
"527 485 OFFCURVE",
"481 442 OFFCURVE",
"392 442 CURVE SMOOTH"
);
}
);
};
layerId = UUID0;
paths = (
{
closed = 1;
nodes = (
"328 0 LINE",
"328 367 LINE",
"351 365 OFFCURVE",
"375 364 OFFCURVE",
"398 364 CURVE SMOOTH",
"535 364 OFFCURVE",
"616 441 OFFCURVE",
"616 548 CURVE SMOOTH",
"616 650 OFFCURVE",
"550 725 OFFCURVE",
"428 725 CURVE SMOOTH",
"316 725 OFFCURVE",
"239 658 OFFCURVE",
"239 493 CURVE SMOOTH",
"239 460 LINE",
"172 476 OFFCURVE",
"112 501 OFFCURVE",
"55 529 CURVE",
"20 459 LINE",
"74 425 OFFCURVE",
"154 396 OFFCURVE",
"239 380 CURVE",
"239 0 LINE"
);
},
{
closed = 1;
nodes = (
"581 0 LINE",
"581 313 LINE",
"491 313 LINE",
"491 0 LINE"
);
},
{
closed = 1;
nodes = (
"370 442 OFFCURVE",
"348 443 OFFCURVE",
"328 445 CURVE",
"328 489 LINE SMOOTH",
"328 617 OFFCURVE",
"376 647 OFFCURVE",
"429 647 CURVE SMOOTH",
"497 647 OFFCURVE",
"527 599 OFFCURVE",
"527 552 CURVE SMOOTH",
"527 485 OFFCURVE",
"481 442 OFFCURVE",
"392 442 CURVE SMOOTH"
);
}
);
width = 679;
}
);
unicode = A6D3;
},
{
glyphname = uniA6D4;
lastChange = "2017-02-24 16:23:59 +0000";
layers = (
{
background = {
paths = (
{
closed = 1;
nodes = (
"171 0 LINE",
"171 191 LINE SMOOTH",
"171 306 OFFCURVE",
"209 357 OFFCURVE",
"309 368 CURVE",
"309 0 LINE",
"399 0 LINE",
"399 368 LINE",
"484 361 OFFCURVE",
"540 326 OFFCURVE",
"540 193 CURVE SMOOTH",
"540 0 LINE",
"632 0 LINE",
"632 192 LINE SMOOTH",
"632 339 OFFCURVE",
"561 435 OFFCURVE",
"399 445 CURVE",
"399 714 LINE",
"309 714 LINE",
"309 445 LINE",
"131 432 OFFCURVE",
"81 320 OFFCURVE",
"81 188 CURVE SMOOTH",
"81 0 LINE"
);
},
{
closed = 1;
nodes = (
"606 523 OFFCURVE",
"630 541 OFFCURVE",
"630 579 CURVE",
"630 618 OFFCURVE",
"606 635 OFFCURVE",
"579 635 CURVE",
"550 635 OFFCURVE",
"527 618 OFFCURVE",
"527 579 CURVE",
"527 541 OFFCURVE",
"550 523 OFFCURVE",
"579 523 CURVE"
);
}
);
};
layerId = UUID0;
paths = (
{
closed = 1;
nodes = (
"171 0 LINE",
"171 191 LINE SMOOTH",
"171 306 OFFCURVE",
"209 357 OFFCURVE",
"309 368 CURVE",
"309 0 LINE",
"399 0 LINE",
"399 368 LINE",
"484 361 OFFCURVE",
"540 326 OFFCURVE",
"540 193 CURVE SMOOTH",
"540 0 LINE",
"632 0 LINE",
"632 192 LINE SMOOTH",
"632 339 OFFCURVE",
"561 435 OFFCURVE",
"399 445 CURVE",
"399 714 LINE",
"309 714 LINE",
"309 445 LINE",
"131 432 OFFCURVE",
"81 320 OFFCURVE",
"81 188 CURVE SMOOTH",
"81 0 LINE"
);
},
{
closed = 1;
nodes = (
"606 523 OFFCURVE",
"630 541 OFFCURVE",
"630 579 CURVE SMOOTH",
"630 618 OFFCURVE",
"606 635 OFFCURVE",
"579 635 CURVE SMOOTH",
"550 635 OFFCURVE",
"527 618 OFFCURVE",
"527 579 CURVE SMOOTH",
"527 541 OFFCURVE",
"550 523 OFFCURVE",
"579 523 CURVE SMOOTH"
);
}
);
width = 713;
}
);
unicode = A6D4;
},
{
glyphname = uniA6D5;
lastChange = "2017-02-24 16:23:59 +0000";
layers = (
{
background = {
paths = (
{
closed = 1;
nodes = (
"149 0 LINE",
"455 155 LINE",
"455 249 LINE",
"284 162 LINE SMOOTH",
"252 146 OFFCURVE",
"217 129 OFFCURVE",
"185 110 CURVE",
"187 143 OFFCURVE",
"187 178 OFFCURVE",
"187 210 CURVE SMOOTH",
"187 504 LINE SMOOTH",
"187 536 OFFCURVE",
"187 572 OFFCURVE",
"185 604 CURVE",
"214 587 OFFCURVE",
"246 570 OFFCURVE",
"275 555 CURVE SMOOTH",
"455 465 LINE",
"455 559 LINE",
"149 714 LINE",
"97 714 LINE",
"97 0 LINE"
);
}
);
};
layerId = UUID0;
paths = (
{
closed = 1;
nodes = (
"149 0 LINE",
"455 155 LINE",
"455 249 LINE",
"284 162 LINE SMOOTH",
"252 146 OFFCURVE",
"217 129 OFFCURVE",
"185 110 CURVE",
"187 143 OFFCURVE",
"187 178 OFFCURVE",
"187 210 CURVE SMOOTH",
"187 504 LINE SMOOTH",
"187 536 OFFCURVE",
"187 572 OFFCURVE",
"185 604 CURVE",
"214 587 OFFCURVE",
"246 570 OFFCURVE",
"275 555 CURVE SMOOTH",
"455 465 LINE",
"455 559 LINE",
"149 714 LINE",
"97 714 LINE",
"97 0 LINE"
);
}
);
width = 520;
}
);
unicode = A6D5;
},
{
glyphname = uniA6D6;
lastChange = "2017-02-24 16:23:59 +0000";
layers = (
{
background = {
paths = (
{
closed = 1;
nodes = (
"187 0 LINE",
"187 333 LINE",
"410 333 LINE",
"410 0 LINE",
"500 0 LINE",
"500 412 LINE",
"187 412 LINE",
"187 714 LINE",
"97 714 LINE",
"97 0 LINE"
);
}
);
};
layerId = UUID0;
paths = (
{
closed = 1;
nodes = (
"187 0 LINE",
"187 333 LINE",
"410 333 LINE",
"410 0 LINE",
"500 0 LINE",
"500 412 LINE",
"187 412 LINE",
"187 714 LINE",
"97 714 LINE",
"97 0 LINE"
);
}
);
width = 579;
}
);
unicode = A6D6;
},
{
glyphname = uniA6D7;
lastChange = "2017-02-24 16:23:59 +0000";
layers = (
{
background = {
paths = (
{
closed = 1;
nodes = (
"224 0 LINE",
"193 126 OFFCURVE",
"170 269 OFFCURVE",
"170 400 CURVE SMOOTH",
"170 529 OFFCURVE",
"192 626 OFFCURVE",
"319 645 CURVE",
"319 333 LINE",
"409 333 LINE",
"409 646 LINE",
"504 634 OFFCURVE",
"549 579 OFFCURVE",
"549 474 CURVE SMOOTH",
"549 333 LINE",
"638 333 LINE",
"638 463 LINE SMOOTH",
"638 656 OFFCURVE",
"534 725 OFFCURVE",
"370 725 CURVE SMOOTH",
"153 725 OFFCURVE",
"81 607 OFFCURVE",
"81 400 CURVE SMOOTH",
"81 268 OFFCURVE",
"104 117 OFFCURVE",
"136 0 CURVE"
);
}
);
};
layerId = UUID0;
paths = (
{
closed = 1;
nodes = (
"224 0 LINE",
"193 126 OFFCURVE",
"170 269 OFFCURVE",
"170 400 CURVE SMOOTH",
"170 529 OFFCURVE",
"192 626 OFFCURVE",
"319 645 CURVE",
"319 333 LINE",
"409 333 LINE",
"409 646 LINE",
"504 634 OFFCURVE",
"549 579 OFFCURVE",
"549 474 CURVE SMOOTH",
"549 333 LINE",
"638 333 LINE",
"638 463 LINE SMOOTH",
"638 656 OFFCURVE",
"534 725 OFFCURVE",
"370 725 CURVE SMOOTH",
"153 725 OFFCURVE",
"81 607 OFFCURVE",
"81 400 CURVE SMOOTH",
"81 268 OFFCURVE",
"104 117 OFFCURVE",
"136 0 CURVE"
);
}
);
width = 719;
}
);
unicode = A6D7;
},
{
glyphname = uniA6D8;
lastChange = "2017-02-24 16:23:59 +0000";
layers = (
{
background = {
paths = (
{
closed = 1;
nodes = (
"227 0 LINE",
"492 398 LINE",
"526 451 OFFCURVE",
"551 497 OFFCURVE",
"573 540 CURVE",
"576 539 LINE",
"564 493 OFFCURVE",
"556 439 OFFCURVE",
"548 378 CURVE",
"491 0 LINE",
"583 0 LINE",
"684 714 LINE",
"602 714 LINE",
"277 232 LINE SMOOTH",
"254 198 OFFCURVE",
"227 153 OFFCURVE",
"206 111 CURVE",
"203 151 OFFCURVE",
"196 205 OFFCURVE",
"190 243 CURVE SMOOTH",
"136 603 LINE",
"317 494 LINE",
"317 592 LINE",
"117 714 LINE",
"34 714 LINE",
"135 0 LINE"
);
}
);
};
layerId = UUID0;
paths = (
{
closed = 1;
nodes = (
"227 0 LINE",
"492 398 LINE SMOOTH",
"527 450 OFFCURVE",
"551 497 OFFCURVE",
"573 540 CURVE",
"576 539 LINE",
"564 493 OFFCURVE",
"557 439 OFFCURVE",
"548 378 CURVE SMOOTH",
"491 0 LINE",
"583 0 LINE",
"684 714 LINE",
"602 714 LINE",
"277 232 LINE SMOOTH",
"254 198 OFFCURVE",
"227 153 OFFCURVE",
"206 111 CURVE",
"203 151 OFFCURVE",
"196 205 OFFCURVE",
"190 243 CURVE SMOOTH",
"136 603 LINE",
"317 494 LINE",
"317 592 LINE",
"117 714 LINE",
"34 714 LINE",
"135 0 LINE"
);
}
);
width = 718;
}
);
unicode = A6D8;
},
{
glyphname = uniA6D9;
lastChange = "2017-02-24 16:23:59 +0000";
layers = (
{
background = {
paths = (
{
closed = 1;
nodes = (
"357 0 LINE",
"413 397 LINE",
"600 496 LINE",
"568 559 LINE",
"425 484 LINE",
"458 714 LINE",
"372 714 LINE",
"37 506 LINE",
"82 431 LINE",
"234 527 LINE SMOOTH",
"288 561 OFFCURVE",
"331 586 OFFCURVE",
"365 620 CURVE",
"354 574 OFFCURVE",
"342 522 OFFCURVE",
"334 459 CURVE",
"330 434 LINE",
"131 329 LINE",
"163 266 LINE",
"317 347 LINE",
"265 0 LINE"
);
}
);
};
layerId = UUID0;
paths = (
{
closed = 1;
nodes = (
"357 0 LINE",
"413 397 LINE",
"600 496 LINE",
"568 559 LINE",
"425 484 LINE",
"458 714 LINE",
"372 714 LINE",
"37 506 LINE",
"82 431 LINE",
"234 527 LINE SMOOTH",
"288 561 OFFCURVE",
"331 586 OFFCURVE",
"365 620 CURVE",
"354 574 OFFCURVE",
"344 522 OFFCURVE",
"334 459 CURVE SMOOTH",
"330 434 LINE",
"131 329 LINE",
"163 266 LINE",
"317 347 LINE",
"265 0 LINE"
);
}
);
width = 600;
}
);
unicode = A6D9;
},
{
glyphname = uniA6DA;
lastChange = "2017-02-24 16:23:59 +0000";
layers = (
{
background = {
paths = (
{
closed = 1;
nodes = (
"499 0 LINE",
"499 78 LINE",
"187 78 LINE",
"187 714 LINE",
"97 714 LINE",
"97 0 LINE"
);
},
{
closed = 1;
nodes = (
"370 180 OFFCURVE",
"394 198 OFFCURVE",
"394 236 CURVE",
"394 275 OFFCURVE",
"370 292 OFFCURVE",
"343 292 CURVE",
"314 292 OFFCURVE",
"291 275 OFFCURVE",
"291 236 CURVE",
"291 198 OFFCURVE",
"314 180 OFFCURVE",
"343 180 CURVE"
);
}
);
};
layerId = UUID0;
paths = (
{
closed = 1;
nodes = (
"499 0 LINE",
"499 78 LINE",
"187 78 LINE",
"187 714 LINE",
"97 714 LINE",
"97 0 LINE"
);
},
{
closed = 1;
nodes = (
"370 180 OFFCURVE",
"394 198 OFFCURVE",
"394 236 CURVE SMOOTH",
"394 275 OFFCURVE",
"370 292 OFFCURVE",
"343 292 CURVE SMOOTH",
"314 292 OFFCURVE",
"291 275 OFFCURVE",
"291 236 CURVE SMOOTH",
"291 198 OFFCURVE",
"314 180 OFFCURVE",
"343 180 CURVE SMOOTH"
);
}
);
width = 524;
}
);
unicode = A6DA;
},
{
glyphname = uniA6DB;
lastChange = "2017-02-24 16:23:59 +0000";
layers = (
{
background = {
paths = (
{
closed = 1;
nodes = (
"187 0 LINE",
"187 635 LINE",
"465 635 LINE",
"465 0 LINE",
"554 0 LINE",
"554 714 LINE",
"97 714 LINE",
"97 0 LINE"
);
}
);
};
layerId = UUID0;
paths = (
{
closed = 1;
nodes = (
"187 0 LINE",
"187 635 LINE",
"465 635 LINE",
"465 0 LINE",
"554 0 LINE",
"554 714 LINE",
"97 714 LINE",
"97 0 LINE"
);
}
);
width = 651;
}
);
unicode = A6DB;
},
{
glyphname = uniA6DC;
lastChange = "2017-02-24 16:23:59 +0000";
layers = (
{
background = {
paths = (
{
closed = 1;
nodes = (
"448 0 LINE",
"500 88 OFFCURVE",
"538 202 OFFCURVE",
"538 301 CURVE SMOOTH",
"538 466 OFFCURVE",
"479 584 OFFCURVE",
"300 584 CURVE SMOOTH",
"181 584 OFFCURVE",
"81 515 OFFCURVE",
"81 372 CURVE SMOOTH",
"81 281 OFFCURVE",
"121 182 OFFCURVE",
"232 182 CURVE SMOOTH",
"301 182 OFFCURVE",
"374 226 OFFCURVE",
"374 359 CURVE SMOOTH",
"374 367 OFFCURVE",
"373 376 OFFCURVE",
"372 384 CURVE",
"283 384 LINE",
"284 378 OFFCURVE",
"284 373 OFFCURVE",
"284 361 CURVE SMOOTH",
"284 290 OFFCURVE",
"263 256 OFFCURVE",
"228 256 CURVE SMOOTH",
"196 256 OFFCURVE",
"170 301 OFFCURVE",
"170 367 CURVE SMOOTH",
"170 449 OFFCURVE",
"208 512 OFFCURVE",
"300 512 CURVE SMOOTH",
"415 512 OFFCURVE",
"449 414 OFFCURVE",
"449 301 CURVE SMOOTH",
"449 202 OFFCURVE",
"411 95 OFFCURVE",
"360 0 CURVE"
);
},
{
closed = 1;
nodes = (
"327 613 OFFCURVE",
"351 631 OFFCURVE",
"351 669 CURVE",
"351 708 OFFCURVE",
"327 725 OFFCURVE",
"300 725 CURVE",
"271 725 OFFCURVE",
"248 708 OFFCURVE",
"248 669 CURVE",
"248 631 OFFCURVE",
"271 613 OFFCURVE",
"300 613 CURVE"
);
}
);
};
layerId = UUID0;
paths = (
{
closed = 1;
nodes = (
"448 0 LINE",
"500 88 OFFCURVE",
"538 202 OFFCURVE",
"538 301 CURVE SMOOTH",
"538 466 OFFCURVE",
"479 584 OFFCURVE",
"300 584 CURVE SMOOTH",
"181 584 OFFCURVE",
"81 515 OFFCURVE",
"81 372 CURVE SMOOTH",
"81 281 OFFCURVE",
"121 182 OFFCURVE",
"232 182 CURVE SMOOTH",
"301 182 OFFCURVE",
"374 226 OFFCURVE",
"374 359 CURVE SMOOTH",
"374 367 OFFCURVE",
"373 376 OFFCURVE",
"372 384 CURVE",
"283 384 LINE",
"284 378 OFFCURVE",
"284 373 OFFCURVE",
"284 361 CURVE SMOOTH",
"284 290 OFFCURVE",
"263 256 OFFCURVE",
"228 256 CURVE SMOOTH",
"196 256 OFFCURVE",
"170 301 OFFCURVE",
"170 367 CURVE SMOOTH",
"170 449 OFFCURVE",
"208 512 OFFCURVE",
"300 512 CURVE SMOOTH",
"415 512 OFFCURVE",
"449 414 OFFCURVE",
"449 301 CURVE SMOOTH",
"449 202 OFFCURVE",
"411 95 OFFCURVE",
"360 0 CURVE"
);
},
{
closed = 1;
nodes = (
"327 613 OFFCURVE",
"351 631 OFFCURVE",
"351 669 CURVE SMOOTH",
"351 708 OFFCURVE",
"327 725 OFFCURVE",
"300 725 CURVE SMOOTH",
"271 725 OFFCURVE",
"248 708 OFFCURVE",
"248 669 CURVE SMOOTH",
"248 631 OFFCURVE",
"271 613 OFFCURVE",
"300 613 CURVE SMOOTH"
);
}
);
width = 619;
}
);
unicode = A6DC;
},
{
glyphname = uniA6DD;
lastChange = "2017-02-24 16:23:59 +0000";
layers = (
{
background = {
paths = (
{
closed = 1;
nodes = (
"429 0 LINE",
"493 117 OFFCURVE",
"538 268 OFFCURVE",
"538 400 CURVE SMOOTH",
"538 590 OFFCURVE",
"479 725 OFFCURVE",
"300 725 CURVE SMOOTH",
"185 725 OFFCURVE",
"81 648 OFFCURVE",
"81 490 CURVE SMOOTH",
"81 364 OFFCURVE",
"164 261 OFFCURVE",
"300 261 CURVE SMOOTH",
"367 261 OFFCURVE",
"413 290 OFFCURVE",
"443 317 CURVE",
"428 210 OFFCURVE",
"387 100 OFFCURVE",
"336 0 CURVE"
);
},
{
closed = 1;
nodes = (
"216 333 OFFCURVE",
"170 400 OFFCURVE",
"170 491 CURVE SMOOTH",
"170 594 OFFCURVE",
"224 653 OFFCURVE",
"300 653 CURVE SMOOTH",
"411 653 OFFCURVE",
"447 542 OFFCURVE",
"449 412 CURVE",
"412 366 OFFCURVE",
"360 333 OFFCURVE",
"303 333 CURVE SMOOTH"
);
},
{
closed = 1;
nodes = (
"651 422 OFFCURVE",
"675 440 OFFCURVE",
"675 478 CURVE SMOOTH",
"675 517 OFFCURVE",
"651 534 OFFCURVE",
"624 534 CURVE SMOOTH",
"595 534 OFFCURVE",
"572 517 OFFCURVE",
"572 478 CURVE SMOOTH",
"572 440 OFFCURVE",
"595 422 OFFCURVE",
"624 422 CURVE SMOOTH"
);
}
);
};
layerId = UUID0;
paths = (
{
closed = 1;
nodes = (
"429 0 LINE",
"493 117 OFFCURVE",
"538 268 OFFCURVE",
"538 400 CURVE SMOOTH",
"538 590 OFFCURVE",
"479 725 OFFCURVE",
"300 725 CURVE SMOOTH",
"185 725 OFFCURVE",
"81 648 OFFCURVE",
"81 490 CURVE SMOOTH",
"81 364 OFFCURVE",
"164 261 OFFCURVE",
"300 261 CURVE SMOOTH",
"367 261 OFFCURVE",
"413 290 OFFCURVE",
"443 317 CURVE",
"428 210 OFFCURVE",
"387 100 OFFCURVE",
"336 0 CURVE"
);
},
{
closed = 1;
nodes = (
"216 333 OFFCURVE",
"170 400 OFFCURVE",
"170 491 CURVE SMOOTH",
"170 594 OFFCURVE",
"224 653 OFFCURVE",
"300 653 CURVE SMOOTH",
"411 653 OFFCURVE",
"447 542 OFFCURVE",
"449 412 CURVE",
"412 366 OFFCURVE",
"360 333 OFFCURVE",
"303 333 CURVE SMOOTH"
);
},
{
closed = 1;
nodes = (
"651 422 OFFCURVE",
"675 440 OFFCURVE",
"675 478 CURVE SMOOTH",
"675 517 OFFCURVE",
"651 534 OFFCURVE",
"624 534 CURVE SMOOTH",
"595 534 OFFCURVE",
"572 517 OFFCURVE",
"572 478 CURVE SMOOTH",
"572 440 OFFCURVE",
"595 422 OFFCURVE",
"624 422 CURVE SMOOTH"
);
}
);
width = 668;
}
);
unicode = A6DD;
},
{
glyphname = uniA6DE;
lastChange = "2017-02-24 16:23:59 +0000";
layers = (
{
background = {
paths = (
{
closed = 1;
nodes = (
"187 0 LINE",
"187 333 LINE",
"500 333 LINE",
"500 714 LINE",
"97 714 LINE",
"97 635 LINE",
"410 635 LINE",
"410 412 LINE",
"97 412 LINE",
"97 0 LINE"
);
}
);
};
layerId = UUID0;
paths = (
{
closed = 1;
nodes = (
"187 0 LINE",
"187 333 LINE",
"500 333 LINE",
"500 714 LINE",
"97 714 LINE",
"97 635 LINE",
"410 635 LINE",
"410 412 LINE",
"97 412 LINE",
"97 0 LINE"
);
}
);
width = 579;
}
);
unicode = A6DE;
},
{
glyphname = uniA6DF;
lastChange = "2017-02-24 16:23:59 +0000";
layers = (
{
background = {
paths = (
{
closed = 1;
nodes = (
"345 0 LINE",
"600 714 LINE",
"505 714 LINE",
"345 258 LINE SMOOTH",
"323 198 OFFCURVE",
"309 147 OFFCURVE",
"300 100 CURVE",
"290 147 OFFCURVE",
"276 197 OFFCURVE",
"255 256 CURVE SMOOTH",
"94 714 LINE",
"0 714 LINE",
"255 0 LINE"
);
}
);
};
layerId = UUID0;
paths = (
{
closed = 1;
nodes = (
"345 0 LINE",
"600 714 LINE",
"505 714 LINE",
"345 258 LINE SMOOTH",
"324 198 OFFCURVE",
"309 147 OFFCURVE",
"300 100 CURVE",
"290 147 OFFCURVE",
"276 197 OFFCURVE",
"255 256 CURVE SMOOTH",
"94 714 LINE",
"0 714 LINE",
"255 0 LINE"
);
}
);
width = 600;
}
);
unicode = A6DF;
},
{
glyphname = uniA6E0;
lastChange = "2017-02-24 16:23:59 +0000";
layers = (
{
background = {
paths = (
{
closed = 1;
nodes = (
"313 0 LINE",
"313 280 LINE",
"596 458 LINE",
"596 531 LINE",
"301 714 LINE",
"223 714 LINE",
"223 327 LINE",
"7 192 LINE",
"52 117 LINE",
"223 224 LINE",
"223 0 LINE"
);
},
{
closed = 1;
nodes = (
"313 606 LINE",
"500 493 LINE",
"313 380 LINE"
);
}
);
};
layerId = UUID0;
paths = (
{
closed = 1;
nodes = (
"313 0 LINE",
"313 280 LINE",
"596 458 LINE",
"596 531 LINE",
"301 714 LINE",
"223 714 LINE",
"223 327 LINE",
"7 192 LINE",
"52 117 LINE",
"223 224 LINE",
"223 0 LINE"
);
},
{
closed = 1;
nodes = (
"313 606 LINE",
"500 493 LINE",
"313 380 LINE"
);
}
);
width = 637;
}
);
unicode = A6E0;
},
{
glyphname = uniA6E1;
lastChange = "2017-02-24 16:23:59 +0000";
layers = (
{
background = {
paths = (
{
closed = 1;
nodes = (
"370 238 OFFCURVE",
"426 314 OFFCURVE",
"467 364 CURVE SMOOTH",
"480 379 LINE",
"544 274 OFFCURVE",
"616 238 OFFCURVE",
"700 238 CURVE SMOOTH",
"789 238 OFFCURVE",
"866 294 OFFCURVE",
"894 377 CURVE",
"812 411 LINE",
"802 372 OFFCURVE",
"771 311 OFFCURVE",
"700 311 CURVE SMOOTH",
"623 311 OFFCURVE",
"578 372 OFFCURVE",
"537 450 CURVE",
"712 664 LINE",
"651 714 LINE",
"499 527 LINE",
"427 667 OFFCURVE",
"355 714 OFFCURVE",
"260 714 CURVE SMOOTH",
"143 714 OFFCURVE",
"45 632 OFFCURVE",
"45 475 CURVE SMOOTH",
"45 341 OFFCURVE",
"121 238 OFFCURVE",
"256 238 CURVE SMOOTH"
);
},
{
closed = 1;
nodes = (
"763 69 LINE",
"763 142 LINE",
"156 142 LINE",
"156 69 LINE"
);
},
{
closed = 1;
nodes = (
"178 311 OFFCURVE",
"134 379 OFFCURVE",
"134 475 CURVE SMOOTH",
"134 558 OFFCURVE",
"168 641 OFFCURVE",
"262 641 CURVE SMOOTH",
"337 641 OFFCURVE",
"388 570 OFFCURVE",
"440 456 CURVE",
"440 454 LINE",
"404 409 LINE SMOOTH",
"360 355 OFFCURVE",
"330 311 OFFCURVE",
"262 311 CURVE SMOOTH"
);
}
);
};
layerId = UUID0;
paths = (
{
closed = 1;
nodes = (
"370 238 OFFCURVE",
"426 314 OFFCURVE",
"467 364 CURVE SMOOTH",
"480 379 LINE",
"544 274 OFFCURVE",
"616 238 OFFCURVE",
"700 238 CURVE SMOOTH",
"789 238 OFFCURVE",
"866 294 OFFCURVE",
"894 377 CURVE",
"812 411 LINE",
"802 372 OFFCURVE",
"771 311 OFFCURVE",
"700 311 CURVE SMOOTH",
"623 311 OFFCURVE",
"578 372 OFFCURVE",
"537 450 CURVE",
"712 664 LINE",
"651 714 LINE",
"499 527 LINE",
"427 667 OFFCURVE",
"355 714 OFFCURVE",
"260 714 CURVE SMOOTH",
"143 714 OFFCURVE",
"45 632 OFFCURVE",
"45 475 CURVE SMOOTH",
"45 341 OFFCURVE",
"121 238 OFFCURVE",
"256 238 CURVE SMOOTH"
);
},
{
closed = 1;
nodes = (
"763 69 LINE",
"763 142 LINE",
"156 142 LINE",
"156 69 LINE"
);
},
{
closed = 1;
nodes = (
"178 311 OFFCURVE",
"134 379 OFFCURVE",
"134 475 CURVE SMOOTH",
"134 558 OFFCURVE",
"168 641 OFFCURVE",
"262 641 CURVE SMOOTH",
"337 641 OFFCURVE",
"388 570 OFFCURVE",
"440 456 CURVE",
"440 454 LINE",
"404 409 LINE SMOOTH",
"360 355 OFFCURVE",
"330 311 OFFCURVE",
"262 311 CURVE SMOOTH"
);
}
);
width = 919;
}
);
unicode = A6E1;
},
{
glyphname = uniA6E2;
lastChange = "2017-02-24 16:23:59 +0000";
layers = (
{
background = {
paths = (
{
closed = 1;
nodes = (
"420 -10 OFFCURVE",
"461 3 OFFCURVE",
"492 15 CURVE",
"492 93 LINE",
"467 82 OFFCURVE",
"414 68 OFFCURVE",
"365 68 CURVE SMOOTH",
"232 68 OFFCURVE",
"156 146 OFFCURVE",
"156 282 CURVE SMOOTH",
"156 430 OFFCURVE",
"248 511 OFFCURVE",
"396 511 CURVE SMOOTH",
"457 511 LINE",
"457 595 LINE",
"82 724 LINE",
"82 640 LINE",
"190 603 LINE SMOOTH",
"232 588 OFFCURVE",
"273 577 OFFCURVE",
"300 570 CURVE",
"300 568 LINE",
"157 540 OFFCURVE",
"61 430 OFFCURVE",
"61 281 CURVE SMOOTH",
"61 95 OFFCURVE",
"179 -10 OFFCURVE",
"362 -10 CURVE SMOOTH"
);
}
);
};
layerId = UUID0;
paths = (
{
closed = 1;
nodes = (
"420 -10 OFFCURVE",
"461 3 OFFCURVE",
"492 15 CURVE",
"492 93 LINE",
"467 82 OFFCURVE",
"414 68 OFFCURVE",
"365 68 CURVE SMOOTH",
"232 68 OFFCURVE",
"156 146 OFFCURVE",
"156 282 CURVE SMOOTH",
"156 430 OFFCURVE",
"248 511 OFFCURVE",
"396 511 CURVE SMOOTH",
"457 511 LINE",
"457 595 LINE",
"82 724 LINE",
"82 640 LINE",
"190 603 LINE SMOOTH",
"232 589 OFFCURVE",
"273 577 OFFCURVE",
"300 570 CURVE",
"300 568 LINE",
"157 540 OFFCURVE",
"61 430 OFFCURVE",
"61 281 CURVE SMOOTH",
"61 95 OFFCURVE",
"179 -10 OFFCURVE",
"362 -10 CURVE SMOOTH"
);
}
);
width = 531;
}
);
unicode = A6E2;
},
{
glyphname = uniA6E3;
lastChange = "2017-02-24 16:23:59 +0000";
layers = (
{
background = {
paths = (
{
closed = 1;
nodes = (
"482 0 LINE",
"482 589 LINE",
"169 589 LINE",
"169 714 LINE",
"79 714 LINE",
"79 380 LINE",
"169 380 LINE",
"169 510 LINE",
"392 510 LINE",
"392 0 LINE"
);
}
);
};
layerId = UUID0;
paths = (
{
closed = 1;
nodes = (
"482 0 LINE",
"482 589 LINE",
"169 589 LINE",
"169 714 LINE",
"79 714 LINE",
"79 380 LINE",
"169 380 LINE",
"169 510 LINE",
"392 510 LINE",
"392 0 LINE"
);
}
);
width = 579;
}
);
unicode = A6E3;
},
{
glyphname = uniA6E4;
lastChange = "2017-02-24 16:23:59 +0000";
layers = (
{
background = {
paths = (
{
closed = 1;
nodes = (
"192 0 LINE",
"204 67 OFFCURVE",
"211 146 OFFCURVE",
"211 225 CURVE SMOOTH",
"211 386 OFFCURVE",
"172 551 OFFCURVE",
"104 714 CURVE",
"16 714 LINE",
"79 555 OFFCURVE",
"122 412 OFFCURVE",
"122 210 CURVE SMOOTH",
"122 133 OFFCURVE",
"115 72 OFFCURVE",
"104 0 CURVE"
);
},
{
closed = 1;
nodes = (
"277 338 LINE SMOOTH",
"468 342 OFFCURVE",
"541 440 OFFCURVE",
"541 528 CURVE SMOOTH",
"541 632 OFFCURVE",
"460 714 OFFCURVE",
"277 714 CURVE SMOOTH",
"233 714 LINE",
"233 641 LINE",
"269 641 LINE SMOOTH",
"395 641 OFFCURVE",
"450 597 OFFCURVE",
"450 531 CURVE SMOOTH",
"450 459 OFFCURVE",
"388 410 OFFCURVE",
"269 410 CURVE SMOOTH",
"233 410 LINE",
"233 337 LINE"
);
}
);
};
layerId = UUID0;
paths = (
{
closed = 1;
nodes = (
"192 0 LINE",
"204 67 OFFCURVE",
"211 146 OFFCURVE",
"211 225 CURVE SMOOTH",
"211 386 OFFCURVE",
"172 551 OFFCURVE",
"104 714 CURVE",
"16 714 LINE",
"79 555 OFFCURVE",
"122 412 OFFCURVE",
"122 210 CURVE SMOOTH",
"122 133 OFFCURVE",
"115 72 OFFCURVE",
"104 0 CURVE"
);
},
{
closed = 1;
nodes = (
"262 337 LINE SMOOTH",
"453 337 OFFCURVE",
"541 430 OFFCURVE",
"541 528 CURVE SMOOTH",
"541 632 OFFCURVE",
"460 714 OFFCURVE",
"277 714 CURVE SMOOTH",
"233 714 LINE",
"233 641 LINE",
"269 641 LINE SMOOTH",
"395 641 OFFCURVE",
"450 597 OFFCURVE",
"450 531 CURVE SMOOTH",
"450 459 OFFCURVE",
"388 410 OFFCURVE",
"269 410 CURVE SMOOTH",
"233 410 LINE",
"233 337 LINE"
);
}
);
width = 576;
}
);
unicode = A6E4;
},
{
glyphname = uniA6E5;
lastChange = "2017-02-24 16:23:59 +0000";
layers = (
{
background = {
paths = (
{
closed = 1;
nodes = (
"187 0 LINE",
"187 517 LINE",
"281 517 LINE",
"296 452 OFFCURVE",
"357 395 OFFCURVE",
"525 395 CURVE SMOOTH",
"596 395 LINE",
"596 474 LINE",
"525 474 LINE SMOOTH",
"412 474 OFFCURVE",
"368 501 OFFCURVE",
"368 555 CURVE SMOOTH",
"368 608 OFFCURVE",
"406 635 OFFCURVE",
"525 635 CURVE SMOOTH",
"596 635 LINE",
"596 714 LINE",
"525 714 LINE SMOOTH",
"361 714 OFFCURVE",
"297 665 OFFCURVE",
"281 596 CURVE",
"97 596 LINE",
"97 0 LINE"
);
}
);
};
layerId = UUID0;
paths = (
{
closed = 1;
nodes = (
"187 0 LINE",
"187 517 LINE",
"281 517 LINE",
"296 452 OFFCURVE",
"357 395 OFFCURVE",
"525 395 CURVE SMOOTH",
"596 395 LINE",
"596 474 LINE",
"525 474 LINE SMOOTH",
"412 474 OFFCURVE",
"368 501 OFFCURVE",
"368 555 CURVE SMOOTH",
"368 608 OFFCURVE",
"406 635 OFFCURVE",
"525 635 CURVE SMOOTH",
"596 635 LINE",
"596 714 LINE",
"525 714 LINE SMOOTH",
"361 714 OFFCURVE",
"297 665 OFFCURVE",
"281 596 CURVE",
"97 596 LINE",
"97 0 LINE"
);
}
);
width = 645;
}
);
unicode = A6E5;
},
{
glyphname = uniA6E6;
lastChange = "2017-02-24 16:23:59 +0000";
layers = (
{
background = {
paths = (
{
closed = 1;
nodes = (
"393 0 LINE",
"439 58 OFFCURVE",
"469 117 OFFCURVE",
"469 182 CURVE SMOOTH",
"469 296 OFFCURVE",
"403 360 OFFCURVE",
"294 367 CURVE",
"294 641 LINE",
"448 641 LINE",
"448 714 LINE",
"50 714 LINE",
"50 641 LINE",
"204 641 LINE",
"204 367 LINE",
"50 367 LINE",
"50 294 LINE",
"237 294 LINE SMOOTH",
"338 294 OFFCURVE",
"379 247 OFFCURVE",
"379 174 CURVE SMOOTH",
"379 111 OFFCURVE",
"354 61 OFFCURVE",
"305 0 CURVE"
);
}
);
};
layerId = UUID0;
paths = (
{
closed = 1;
nodes = (
"393 0 LINE",
"439 58 OFFCURVE",
"469 117 OFFCURVE",
"469 182 CURVE SMOOTH",
"469 296 OFFCURVE",
"403 360 OFFCURVE",
"294 367 CURVE",
"294 641 LINE",
"448 641 LINE",
"448 714 LINE",
"50 714 LINE",
"50 641 LINE",
"204 641 LINE",
"204 367 LINE",
"50 367 LINE",
"50 294 LINE",
"237 294 LINE SMOOTH",
"338 294 OFFCURVE",
"379 247 OFFCURVE",
"379 174 CURVE SMOOTH",
"379 111 OFFCURVE",
"354 61 OFFCURVE",
"305 0 CURVE"
);
}
);
width = 498;
}
);
unicode = A6E6;
},
{
glyphname = uniA6E7;
lastChange = "2017-02-24 16:23:59 +0000";
layers = (
{
background = {
paths = (
{
closed = 1;
nodes = (
"393 0 LINE",
"439 58 OFFCURVE",
"469 117 OFFCURVE",
"469 182 CURVE SMOOTH",
"469 296 OFFCURVE",
"403 360 OFFCURVE",
"294 367 CURVE",
"294 714 LINE",
"50 714 LINE",
"50 641 LINE",
"204 641 LINE",
"204 367 LINE",
"50 367 LINE",
"50 294 LINE",
"237 294 LINE SMOOTH",
"338 294 OFFCURVE",
"379 247 OFFCURVE",
"379 174 CURVE SMOOTH",
"379 111 OFFCURVE",
"354 61 OFFCURVE",
"305 0 CURVE"
);
}
);
};
layerId = UUID0;
paths = (
{
closed = 1;
nodes = (
"393 0 LINE",
"439 58 OFFCURVE",
"469 117 OFFCURVE",
"469 182 CURVE SMOOTH",
"469 296 OFFCURVE",
"403 360 OFFCURVE",
"294 367 CURVE",
"294 714 LINE",
"50 714 LINE",
"50 641 LINE",
"204 641 LINE",
"204 367 LINE",
"50 367 LINE",
"50 294 LINE",
"237 294 LINE SMOOTH",
"338 294 OFFCURVE",
"379 247 OFFCURVE",
"379 174 CURVE SMOOTH",
"379 111 OFFCURVE",
"354 61 OFFCURVE",
"305 0 CURVE"
);
}
);
width = 498;
}
);
unicode = A6E7;
},
{
glyphname = uniA6E8;
lastChange = "2017-02-24 16:23:59 +0000";
layers = (
{
background = {
paths = (
{
closed = 1;
nodes = (
"470 0 LINE",
"470 73 LINE",
"315 73 LINE",
"315 714 LINE",
"60 714 LINE",
"60 500 LINE",
"133 500 LINE",
"133 641 LINE",
"225 641 LINE",
"225 73 LINE",
"60 73 LINE",
"60 0 LINE"
);
}
);
};
layerId = UUID0;
paths = (
{
closed = 1;
nodes = (
"470 0 LINE",
"470 73 LINE",
"315 73 LINE",
"315 714 LINE",
"60 714 LINE",
"60 500 LINE",
"133 500 LINE",
"133 641 LINE",
"225 641 LINE",
"225 73 LINE",
"60 73 LINE",
"60 0 LINE"
);
}
);
width = 490;
}
);
unicode = A6E8;
},
{
glyphname = uniA6E9;
lastChange = "2017-02-24 16:23:59 +0000";
layers = (
{
background = {
paths = (
{
closed = 1;
nodes = (
"393 0 LINE",
"439 58 OFFCURVE",
"469 117 OFFCURVE",
"469 182 CURVE SMOOTH",
"469 296 OFFCURVE",
"403 360 OFFCURVE",
"294 367 CURVE",
"294 714 LINE",
"204 714 LINE",
"204 367 LINE",
"50 367 LINE",
"50 294 LINE",
"237 294 LINE SMOOTH",
"338 294 OFFCURVE",
"379 247 OFFCURVE",
"379 174 CURVE SMOOTH",
"379 111 OFFCURVE",
"354 61 OFFCURVE",
"305 0 CURVE"
);
}
);
};
layerId = UUID0;
paths = (
{
closed = 1;
nodes = (
"393 0 LINE",
"439 58 OFFCURVE",
"469 117 OFFCURVE",
"469 182 CURVE SMOOTH",
"469 296 OFFCURVE",
"403 360 OFFCURVE",
"294 367 CURVE",
"294 714 LINE",
"204 714 LINE",
"204 367 LINE",
"50 367 LINE",
"50 294 LINE",
"237 294 LINE SMOOTH",
"338 294 OFFCURVE",
"379 247 OFFCURVE",
"379 174 CURVE SMOOTH",
"379 111 OFFCURVE",
"354 61 OFFCURVE",
"305 0 CURVE"
);
}
);
width = 498;
}
);
unicode = A6E9;
},
{
glyphname = uniA6EA;
lastChange = "2017-02-24 16:23:59 +0000";
layers = (
{
background = {
paths = (
{
closed = 1;
nodes = (
"393 0 LINE",
"439 58 OFFCURVE",
"469 117 OFFCURVE",
"469 182 CURVE SMOOTH",
"469 296 OFFCURVE",
"403 360 OFFCURVE",
"294 367 CURVE",
"294 714 LINE",
"241 714 LINE",
"50 618 LINE",
"50 536 LINE",
"117 570 LINE SMOOTH",
"149 586 OFFCURVE",
"176 601 OFFCURVE",
"204 616 CURVE",
"204 367 LINE",
"50 367 LINE",
"50 294 LINE",
"237 294 LINE SMOOTH",
"338 294 OFFCURVE",
"379 247 OFFCURVE",
"379 174 CURVE SMOOTH",
"379 111 OFFCURVE",
"354 61 OFFCURVE",
"305 0 CURVE"
);
}
);
};
layerId = UUID0;
paths = (
{
closed = 1;
nodes = (
"393 0 LINE",
"439 58 OFFCURVE",
"469 117 OFFCURVE",
"469 182 CURVE SMOOTH",
"469 296 OFFCURVE",
"403 360 OFFCURVE",
"294 367 CURVE",
"294 714 LINE",
"241 714 LINE",
"50 618 LINE",
"50 536 LINE",
"117 570 LINE SMOOTH",
"149 586 OFFCURVE",
"176 601 OFFCURVE",
"204 616 CURVE",
"204 367 LINE",
"50 367 LINE",
"50 294 LINE",
"237 294 LINE SMOOTH",
"338 294 OFFCURVE",
"379 247 OFFCURVE",
"379 174 CURVE SMOOTH",
"379 111 OFFCURVE",
"354 61 OFFCURVE",
"305 0 CURVE"
);
}
);
width = 498;
}
);
unicode = A6EA;
},
{
glyphname = uniA6EB;
lastChange = "2017-02-24 16:23:59 +0000";
layers = (
{
background = {
paths = (
{
closed = 1;
nodes = (
"317 0 LINE",
"317 292 LINE",
"429 311 OFFCURVE",
"491 399 OFFCURVE",
"491 507 CURVE SMOOTH",
"491 620 OFFCURVE",
"423 725 OFFCURVE",
"264 725 CURVE SMOOTH",
"152 725 OFFCURVE",
"89 669 OFFCURVE",
"37 599 CURVE",
"95 550 LINE",
"140 609 OFFCURVE",
"186 651 OFFCURVE",
"265 651 CURVE SMOOTH",
"359 651 OFFCURVE",
"400 587 OFFCURVE",
"400 507 CURVE SMOOTH",
"400 433 OFFCURVE",
"365 365 OFFCURVE",
"275 362 CURVE",
"229 362 LINE",
"229 0 LINE"
);
}
);
};
layerId = UUID0;
paths = (
{
closed = 1;
nodes = (
"317 0 LINE",
"317 292 LINE",
"429 311 OFFCURVE",
"491 399 OFFCURVE",
"491 507 CURVE SMOOTH",
"491 620 OFFCURVE",
"423 725 OFFCURVE",
"264 725 CURVE SMOOTH",
"152 725 OFFCURVE",
"89 669 OFFCURVE",
"37 599 CURVE",
"95 550 LINE",
"140 609 OFFCURVE",
"186 651 OFFCURVE",
"265 651 CURVE SMOOTH",
"359 651 OFFCURVE",
"400 587 OFFCURVE",
"400 507 CURVE SMOOTH",
"400 433 OFFCURVE",
"365 362 OFFCURVE",
"275 362 CURVE SMOOTH",
"229 362 LINE",
"229 0 LINE"
);
}
);
width = 546;
}
);
unicode = A6EB;
},
{
glyphname = uniA6EC;
lastChange = "2017-02-24 16:23:59 +0000";
layers = (
{
background = {
paths = (
{
closed = 1;
nodes = (
"419 0 LINE",
"419 73 LINE",
"265 73 LINE",
"265 616 LINE",
"293 601 OFFCURVE",
"320 586 OFFCURVE",
"352 570 CURVE SMOOTH",
"419 536 LINE",
"419 618 LINE",
"228 714 LINE",
"175 714 LINE",
"175 73 LINE",
"20 73 LINE",
"20 0 LINE"
);
}
);
};
layerId = UUID0;
paths = (
{
closed = 1;
nodes = (
"419 0 LINE",
"419 73 LINE",
"265 73 LINE",
"265 616 LINE",
"293 601 OFFCURVE",
"320 586 OFFCURVE",
"352 570 CURVE SMOOTH",
"419 536 LINE",
"419 618 LINE",
"228 714 LINE",
"175 714 LINE",
"175 73 LINE",
"20 73 LINE",
"20 0 LINE"
);
}
);
width = 469;
}
);
unicode = A6EC;
},
{
glyphname = uniA6ED;
lastChange = "2017-02-24 16:23:59 +0000";
layers = (
{
background = {
paths = (
{
closed = 1;
nodes = (
"317 0 LINE",
"317 236 LINE",
"458 162 LINE",
"490 225 LINE",
"334 306 LINE",
"435 328 OFFCURVE",
"491 405 OFFCURVE",
"491 507 CURVE SMOOTH",
"491 620 OFFCURVE",
"423 725 OFFCURVE",
"264 725 CURVE SMOOTH",
"152 725 OFFCURVE",
"89 669 OFFCURVE",
"37 599 CURVE",
"95 550 LINE",
"140 609 OFFCURVE",
"186 651 OFFCURVE",
"265 651 CURVE SMOOTH",
"359 651 OFFCURVE",
"400 587 OFFCURVE",
"400 507 CURVE SMOOTH",
"400 433 OFFCURVE",
"365 365 OFFCURVE",
"275 362 CURVE",
"229 362 LINE",
"229 361 LINE",
"106 426 LINE",
"74 363 LINE",
"229 282 LINE",
"229 0 LINE"
);
}
);
};
layerId = UUID0;
paths = (
{
closed = 1;
nodes = (
"317 0 LINE",
"317 236 LINE",
"458 162 LINE",
"490 225 LINE",
"334 306 LINE",
"435 328 OFFCURVE",
"491 405 OFFCURVE",
"491 507 CURVE SMOOTH",
"491 620 OFFCURVE",
"423 725 OFFCURVE",
"264 725 CURVE SMOOTH",
"152 725 OFFCURVE",
"89 669 OFFCURVE",
"37 599 CURVE",
"95 550 LINE",
"140 609 OFFCURVE",
"186 651 OFFCURVE",
"265 651 CURVE SMOOTH",
"359 651 OFFCURVE",
"400 587 OFFCURVE",
"400 507 CURVE SMOOTH",
"400 431 OFFCURVE",
"361 362 OFFCURVE",
"272 362 CURVE SMOOTH",
"227 362 LINE",
"106 426 LINE",
"74 363 LINE",
"229 282 LINE",
"229 0 LINE"
);
}
);
width = 546;
}
);
unicode = A6ED;
},
{
glyphname = uniA6EE;
lastChange = "2017-02-24 16:23:59 +0000";
layers = (
{
background = {
paths = (
{
closed = 1;
nodes = (
"254 0 LINE",
"254 635 LINE",
"393 635 LINE",
"393 0 LINE",
"483 0 LINE",
"483 714 LINE",
"164 714 LINE",
"164 79 LINE",
"20 79 LINE",
"20 0 LINE"
);
}
);
};
layerId = UUID0;
paths = (
{
closed = 1;
nodes = (
"254 0 LINE",
"254 635 LINE",
"393 635 LINE",
"393 0 LINE",
"483 0 LINE",
"483 714 LINE",
"164 714 LINE",
"164 79 LINE",
"20 79 LINE",
"20 0 LINE"
);
}
);
width = 580;
}
);
unicode = A6EE;
},
{
glyphname = uniA6EF;
lastChange = "2017-02-24 16:23:59 +0000";
layers = (
{
background = {
paths = (
{
closed = 1;
nodes = (
"426 -9 OFFCURVE",
"507 72 OFFCURVE",
"507 190 CURVE SMOOTH",
"507 207 OFFCURVE",
"505 221 OFFCURVE",
"502 234 CURVE",
"412 234 LINE",
"415 222 OFFCURVE",
"417 212 OFFCURVE",
"417 198 CURVE SMOOTH",
"417 103 OFFCURVE",
"349 69 OFFCURVE",
"276 69 CURVE SMOOTH",
"187 69 OFFCURVE",
"141 110 OFFCURVE",
"141 182 CURVE SMOOTH",
"141 253 OFFCURVE",
"178 280 OFFCURVE",
"299 328 CURVE SMOOTH",
"415 374 OFFCURVE",
"485 434 OFFCURVE",
"485 543 CURVE SMOOTH",
"485 663 OFFCURVE",
"400 724 OFFCURVE",
"284 724 CURVE SMOOTH",
"149 724 OFFCURVE",
"84 643 OFFCURVE",
"84 552 CURVE SMOOTH",
"84 546 OFFCURVE",
"85 536 OFFCURVE",
"86 528 CURVE",
"176 528 LINE",
"175 536 OFFCURVE",
"174 547 OFFCURVE",
"174 551 CURVE SMOOTH",
"174 615 OFFCURVE",
"225 644 OFFCURVE",
"284 644 CURVE SMOOTH",
"352 644 OFFCURVE",
"395 609 OFFCURVE",
"395 542 CURVE SMOOTH",
"395 468 OFFCURVE",
"344 439 OFFCURVE",
"234 395 CURVE SMOOTH",
"123 351 OFFCURVE",
"51 290 OFFCURVE",
"51 176 CURVE SMOOTH",
"51 53 OFFCURVE",
"130 -9 OFFCURVE",
"275 -9 CURVE SMOOTH"
);
}
);
};
layerId = UUID0;
paths = (
{
closed = 1;
nodes = (
"426 -9 OFFCURVE",
"507 72 OFFCURVE",
"507 190 CURVE SMOOTH",
"507 207 OFFCURVE",
"505 221 OFFCURVE",
"502 234 CURVE",
"412 234 LINE",
"415 222 OFFCURVE",
"417 212 OFFCURVE",
"417 198 CURVE SMOOTH",
"417 103 OFFCURVE",
"349 69 OFFCURVE",
"276 69 CURVE SMOOTH",
"187 69 OFFCURVE",
"141 110 OFFCURVE",
"141 182 CURVE SMOOTH",
"141 253 OFFCURVE",
"178 280 OFFCURVE",
"299 328 CURVE SMOOTH",
"415 374 OFFCURVE",
"485 434 OFFCURVE",
"485 543 CURVE SMOOTH",
"485 663 OFFCURVE",
"400 724 OFFCURVE",
"284 724 CURVE SMOOTH",
"149 724 OFFCURVE",
"84 643 OFFCURVE",
"84 552 CURVE SMOOTH",
"84 546 OFFCURVE",
"85 536 OFFCURVE",
"86 528 CURVE",
"176 528 LINE",
"175 536 OFFCURVE",
"174 547 OFFCURVE",
"174 551 CURVE SMOOTH",
"174 615 OFFCURVE",
"225 644 OFFCURVE",
"284 644 CURVE SMOOTH",
"352 644 OFFCURVE",
"395 609 OFFCURVE",
"395 542 CURVE SMOOTH",
"395 468 OFFCURVE",
"344 439 OFFCURVE",
"234 395 CURVE SMOOTH",
"123 351 OFFCURVE",
"51 290 OFFCURVE",
"51 176 CURVE SMOOTH",
"51 53 OFFCURVE",
"130 -9 OFFCURVE",
"275 -9 CURVE SMOOTH"
);
}
);
width = 549;
}
);
unicode = A6EF;
},
{
glyphname = uniA6F0;
lastChange = "2017-02-24 16:23:54 +0000";
layers = (
{
background = {
paths = (
{
closed = 1;
nodes = (
"173 815 LINE",
"351 965 LINE",
"533 815 LINE",
"671 815 LINE",
"397 1035 LINE",
"307 1035 LINE",
"36 815 LINE"
);
}
);
};
layerId = UUID0;
paths = (
{
closed = 1;
nodes = (
"173 815 LINE",
"351 965 LINE",
"533 815 LINE",
"671 815 LINE",
"397 1035 LINE",
"307 1035 LINE",
"36 815 LINE"
);
}
);
width = 0;
}
);
unicode = A6F0;
},
{
glyphname = uniA6F1;
lastChange = "2017-02-24 16:23:54 +0000";
layers = (
{
background = {
paths = (
{
closed = 1;
nodes = (
"657 846 LINE",
"657 919 LINE",
"50 919 LINE",
"50 846 LINE"
);
}
);
};
layerId = UUID0;
paths = (
{
closed = 1;
nodes = (
"657 846 LINE",
"657 919 LINE",
"50 919 LINE",
"50 846 LINE"
);
}
);
width = 0;
}
);
unicode = A6F1;
},
{
glyphname = uniA6F2;
lastChange = "2017-02-06 14:20:45 +0000";
layers = (
{
background = {
paths = (
{
closed = 1;
nodes = (
"447 0 OFFCURVE",
"538 92 OFFCURVE",
"538 245 CURVE SMOOTH",
"538 368 OFFCURVE",
"470 483 OFFCURVE",
"365 580 CURVE",
"264 580 LINE",
"375 474 OFFCURVE",
"449 370 OFFCURVE",
"449 260 CURVE SMOOTH",
"449 130 OFFCURVE",
"391 72 OFFCURVE",
"305 72 CURVE SMOOTH",
"238 72 OFFCURVE",
"170 113 OFFCURVE",
"170 222 CURVE SMOOTH",
"170 266 OFFCURVE",
"178 306 OFFCURVE",
"191 351 CURVE",
"103 351 LINE",
"89 305 OFFCURVE",
"81 266 OFFCURVE",
"81 215 CURVE SMOOTH",
"81 58 OFFCURVE",
"191 0 OFFCURVE",
"305 0 CURVE SMOOTH"
);
},
{
closed = 1;
nodes = (
"337 613 OFFCURVE",
"361 631 OFFCURVE",
"361 669 CURVE SMOOTH",
"361 708 OFFCURVE",
"337 725 OFFCURVE",
"310 725 CURVE SMOOTH",
"281 725 OFFCURVE",
"258 708 OFFCURVE",
"258 669 CURVE SMOOTH",
"258 631 OFFCURVE",
"281 613 OFFCURVE",
"310 613 CURVE SMOOTH"
);
}
);
};
layerId = UUID0;
paths = (
{
closed = 1;
nodes = (
"447 0 OFFCURVE",
"538 92 OFFCURVE",
"538 245 CURVE SMOOTH",
"538 368 OFFCURVE",
"470 483 OFFCURVE",
"365 580 CURVE",
"264 580 LINE",
"375 474 OFFCURVE",
"449 370 OFFCURVE",
"449 260 CURVE SMOOTH",
"449 130 OFFCURVE",
"391 72 OFFCURVE",
"305 72 CURVE SMOOTH",
"238 72 OFFCURVE",
"170 113 OFFCURVE",
"170 222 CURVE SMOOTH",
"170 266 OFFCURVE",
"178 306 OFFCURVE",
"191 351 CURVE",
"103 351 LINE",
"89 305 OFFCURVE",
"81 266 OFFCURVE",
"81 215 CURVE SMOOTH",
"81 58 OFFCURVE",
"191 0 OFFCURVE",
"305 0 CURVE SMOOTH"
);
},
{
closed = 1;
nodes = (
"337 613 OFFCURVE",
"361 631 OFFCURVE",
"361 669 CURVE SMOOTH",
"361 708 OFFCURVE",
"337 725 OFFCURVE",
"310 725 CURVE SMOOTH",
"281 725 OFFCURVE",
"258 708 OFFCURVE",
"258 669 CURVE SMOOTH",
"258 631 OFFCURVE",
"281 613 OFFCURVE",
"310 613 CURVE SMOOTH"
);
}
);
width = 619;
}
);
unicode = A6F2;
},
{
glyphname = uniA6F3;
lastChange = "2017-02-06 14:34:44 +0000";
layers = (
{
background = {
paths = (
{
closed = 1;
nodes = (
"126 0 LINE",
"257 714 LINE",
"171 714 LINE",
"34 0 LINE"
);
},
{
closed = 1;
nodes = (
"328 291 OFFCURVE",
"352 309 OFFCURVE",
"352 347 CURVE",
"352 386 OFFCURVE",
"328 403 OFFCURVE",
"301 403 CURVE",
"272 403 OFFCURVE",
"249 386 OFFCURVE",
"249 347 CURVE",
"249 309 OFFCURVE",
"272 291 OFFCURVE",
"301 291 CURVE"
);
}
);
};
layerId = UUID0;
paths = (
{
closed = 1;
nodes = (
"126 0 LINE",
"257 714 LINE",
"171 714 LINE",
"34 0 LINE"
);
},
{
closed = 1;
nodes = (
"328 291 OFFCURVE",
"352 309 OFFCURVE",
"352 347 CURVE SMOOTH",
"352 386 OFFCURVE",
"328 403 OFFCURVE",
"301 403 CURVE SMOOTH",
"272 403 OFFCURVE",
"249 386 OFFCURVE",
"249 347 CURVE SMOOTH",
"249 309 OFFCURVE",
"272 291 OFFCURVE",
"301 291 CURVE SMOOTH"
);
}
);
width = 369;
}
);
unicode = A6F3;
},
{
glyphname = uniA6F4;
lastChange = "2017-02-06 14:36:42 +0000";
layers = (
{
background = {
paths = (
{
closed = 1;
nodes = (
"436 0 LINE",
"567 714 LINE",
"481 714 LINE",
"344 0 LINE"
);
},
{
closed = 1;
nodes = (
"126 0 LINE",
"257 714 LINE",
"171 714 LINE",
"34 0 LINE"
);
},
{
closed = 1;
nodes = (
"328 291 OFFCURVE",
"352 309 OFFCURVE",
"352 347 CURVE",
"352 386 OFFCURVE",
"328 403 OFFCURVE",
"301 403 CURVE",
"272 403 OFFCURVE",
"249 386 OFFCURVE",
"249 347 CURVE",
"249 309 OFFCURVE",
"272 291 OFFCURVE",
"301 291 CURVE"
);
},
{
closed = 1;
nodes = (
"638 291 OFFCURVE",
"662 309 OFFCURVE",
"662 347 CURVE",
"662 386 OFFCURVE",
"638 403 OFFCURVE",
"611 403 CURVE",
"582 403 OFFCURVE",
"559 386 OFFCURVE",
"559 347 CURVE",
"559 309 OFFCURVE",
"582 291 OFFCURVE",
"611 291 CURVE"
);
}
);
};
layerId = UUID0;
paths = (
{
closed = 1;
nodes = (
"436 0 LINE",
"567 714 LINE",
"481 714 LINE",
"344 0 LINE"
);
},
{
closed = 1;
nodes = (
"126 0 LINE",
"257 714 LINE",
"171 714 LINE",
"34 0 LINE"
);
},
{
closed = 1;
nodes = (
"328 291 OFFCURVE",
"352 309 OFFCURVE",
"352 347 CURVE SMOOTH",
"352 386 OFFCURVE",
"328 403 OFFCURVE",
"301 403 CURVE SMOOTH",
"272 403 OFFCURVE",
"249 386 OFFCURVE",
"249 347 CURVE SMOOTH",
"249 309 OFFCURVE",
"272 291 OFFCURVE",
"301 291 CURVE SMOOTH"
);
},
{
closed = 1;
nodes = (
"638 291 OFFCURVE",
"662 309 OFFCURVE",
"662 347 CURVE SMOOTH",
"662 386 OFFCURVE",
"638 403 OFFCURVE",
"611 403 CURVE SMOOTH",
"582 403 OFFCURVE",
"559 386 OFFCURVE",
"559 347 CURVE SMOOTH",
"559 309 OFFCURVE",
"582 291 OFFCURVE",
"611 291 CURVE SMOOTH"
);
}
);
width = 679;
}
);
unicode = A6F4;
},
{
glyphname = uniA6F5;
lastChange = "2017-02-06 14:20:45 +0000";
layers = (
{
background = {
paths = (
{
closed = 1;
nodes = (
"232 0 LINE",
"294 339 LINE",
"448 339 LINE",
"448 412 LINE",
"50 412 LINE",
"50 339 LINE",
"204 339 LINE",
"142 0 LINE"
);
}
);
};
layerId = UUID0;
paths = (
{
closed = 1;
nodes = (
"232 0 LINE",
"294 339 LINE",
"448 339 LINE",
"448 412 LINE",
"50 412 LINE",
"50 339 LINE",
"204 339 LINE",
"142 0 LINE"
);
}
);
width = 498;
}
);
unicode = A6F5;
},
{
glyphname = uniA6F6;
lastChange = "2017-02-06 14:20:45 +0000";
layers = (
{
background = {
paths = (
{
closed = 1;
nodes = (
"232 0 LINE",
"294 339 LINE",
"448 339 LINE",
"448 412 LINE",
"50 412 LINE",
"50 339 LINE",
"204 339 LINE",
"142 0 LINE"
);
},
{
closed = 1;
nodes = (
"535 0 LINE",
"611 412 LINE",
"522 412 LINE",
"443 0 LINE"
);
},
{
closed = 1;
nodes = (
"710 144 OFFCURVE",
"734 162 OFFCURVE",
"734 200 CURVE SMOOTH",
"734 239 OFFCURVE",
"710 256 OFFCURVE",
"683 256 CURVE SMOOTH",
"654 256 OFFCURVE",
"631 239 OFFCURVE",
"631 200 CURVE SMOOTH",
"631 162 OFFCURVE",
"654 144 OFFCURVE",
"683 144 CURVE SMOOTH"
);
}
);
};
layerId = UUID0;
paths = (
{
closed = 1;
nodes = (
"232 0 LINE",
"294 339 LINE",
"448 339 LINE",
"448 412 LINE",
"50 412 LINE",
"50 339 LINE",
"204 339 LINE",
"142 0 LINE"
);
},
{
closed = 1;
nodes = (
"535 0 LINE",
"611 412 LINE",
"522 412 LINE",
"443 0 LINE"
);
},
{
closed = 1;
nodes = (
"710 144 OFFCURVE",
"734 162 OFFCURVE",
"734 200 CURVE SMOOTH",
"734 239 OFFCURVE",
"710 256 OFFCURVE",
"683 256 CURVE SMOOTH",
"654 256 OFFCURVE",
"631 239 OFFCURVE",
"631 200 CURVE SMOOTH",
"631 162 OFFCURVE",
"654 144 OFFCURVE",
"683 144 CURVE SMOOTH"
);
}
);
width = 754;
}
);
unicode = A6F6;
},
{
glyphname = uniA6F7;
lastChange = "2017-02-06 14:20:45 +0000";
layers = (
{
background = {
paths = (
{
closed = 1;
nodes = (
"397 135 LINE",
"671 355 LINE",
"533 355 LINE",
"397 243 LINE",
"397 714 LINE",
"307 714 LINE",
"307 242 LINE",
"173 355 LINE",
"36 355 LINE",
"307 135 LINE"
);
},
{
closed = 1;
nodes = (
"379 -10 OFFCURVE",
"403 8 OFFCURVE",
"403 46 CURVE SMOOTH",
"403 85 OFFCURVE",
"379 102 OFFCURVE",
"352 102 CURVE SMOOTH",
"323 102 OFFCURVE",
"300 85 OFFCURVE",
"300 46 CURVE SMOOTH",
"300 8 OFFCURVE",
"323 -10 OFFCURVE",
"352 -10 CURVE SMOOTH"
);
}
);
};
layerId = UUID0;
paths = (
{
closed = 1;
nodes = (
"397 135 LINE",
"671 355 LINE",
"533 355 LINE",
"397 243 LINE",
"397 714 LINE",
"307 714 LINE",
"307 242 LINE",
"173 355 LINE",
"36 355 LINE",
"307 135 LINE"
);
},
{
closed = 1;
nodes = (
"379 -10 OFFCURVE",
"403 8 OFFCURVE",
"403 46 CURVE SMOOTH",
"403 85 OFFCURVE",
"379 102 OFFCURVE",
"352 102 CURVE SMOOTH",
"323 102 OFFCURVE",
"300 85 OFFCURVE",
"300 46 CURVE SMOOTH",
"300 8 OFFCURVE",
"323 -10 OFFCURVE",
"352 -10 CURVE SMOOTH"
);
}
);
width = 707;
}
);
unicode = A6F7;
},
{
glyphname = u16800;
lastChange = "2017-02-06 17:25:41 +0000";
layers = (
{
background = {
paths = (
{
closed = 1;
nodes = (
"406 -119 LINE",
"383 -112 OFFCURVE",
"364 -107 OFFCURVE",
"364 -102 CURVE SMOOTH",
"364 -98 OFFCURVE",
"384 -93 OFFCURVE",
"391 -89 CURVE SMOOTH",
"404 -83 OFFCURVE",
"415 -71 OFFCURVE",
"415 -53 CURVE SMOOTH",
"415 -18 OFFCURVE",
"363 -19 OFFCURVE",
"363 -13 CURVE SMOOTH",
"363 -12 OFFCURVE",
"364 -10 OFFCURVE",
"366 -8 CURVE",
"366 -9 LINE",
"573 103 LINE",
"582 80 OFFCURVE",
"604 64 OFFCURVE",
"631 64 CURVE SMOOTH",
"666 64 OFFCURVE",
"694 92 OFFCURVE",
"694 127 CURVE SMOOTH",
"694 162 OFFCURVE",
"666 190 OFFCURVE",
"631 190 CURVE SMOOTH",
"609 190 OFFCURVE",
"589 179 OFFCURVE",
"578 162 CURVE",
"480 244 LINE",
"574 308 LINE",
"584 286 OFFCURVE",
"605 272 OFFCURVE",
"631 272 CURVE SMOOTH",
"666 272 OFFCURVE",
"694 300 OFFCURVE",
"694 335 CURVE SMOOTH",
"694 370 OFFCURVE",
"666 398 OFFCURVE",
"631 398 CURVE SMOOTH",
"608 398 OFFCURVE",
"587 385 OFFCURVE",
"576 367 CURVE",
"483 432 LINE",
"578 511 LINE",
"589 493 OFFCURVE",
"608 482 OFFCURVE",
"631 482 CURVE SMOOTH",
"666 482 OFFCURVE",
"694 510 OFFCURVE",
"694 545 CURVE SMOOTH",
"694 580 OFFCURVE",
"666 608 OFFCURVE",
"631 608 CURVE SMOOTH",
"605 608 OFFCURVE",
"582 592 OFFCURVE",
"573 570 CURVE",
"413 657 LINE",
"424 668 OFFCURVE",
"430 679 OFFCURVE",
"430 692 CURVE SMOOTH",
"430 729 OFFCURVE",
"378 728 OFFCURVE",
"378 733 CURVE SMOOTH",
"378 738 OFFCURVE",
"420 743 OFFCURVE",
"420 778 CURVE SMOOTH",
"420 814 OFFCURVE",
"387 828 OFFCURVE",
"363 839 CURVE",
"340 801 LINE",
"359 794 OFFCURVE",
"370 783 OFFCURVE",
"370 780 CURVE SMOOTH",
"370 774 OFFCURVE",
"350 769 OFFCURVE",
"343 765 CURVE SMOOTH",
"330 759 OFFCURVE",
"319 752 OFFCURVE",
"319 734 CURVE SMOOTH",
"319 699 OFFCURVE",
"373 696 OFFCURVE",
"373 690 CURVE SMOOTH",
"373 685 OFFCURVE",
"353 675 OFFCURVE",
"333 664 CURVE SMOOTH",
"169 573 LINE",
"159 594 OFFCURVE",
"138 608 OFFCURVE",
"113 608 CURVE SMOOTH",
"78 608 OFFCURVE",
"50 580 OFFCURVE",
"50 545 CURVE SMOOTH",
"50 510 OFFCURVE",
"78 482 OFFCURVE",
"113 482 CURVE SMOOTH",
"133 482 OFFCURVE",
"151 491 OFFCURVE",
"163 506 CURVE",
"251 432 LINE",
"165 372 LINE",
"165 371 LINE",
"153 387 OFFCURVE",
"134 398 OFFCURVE",
"113 398 CURVE SMOOTH",
"78 398 OFFCURVE",
"50 370 OFFCURVE",
"50 335 CURVE SMOOTH",
"50 300 OFFCURVE",
"78 272 OFFCURVE",
"113 272 CURVE SMOOTH",
"136 272 OFFCURVE",
"156 285 OFFCURVE",
"167 303 CURVE",
"254 243 LINE",
"163 166 LINE",
"151 181 OFFCURVE",
"133 190 OFFCURVE",
"113 190 CURVE SMOOTH",
"78 190 OFFCURVE",
"50 162 OFFCURVE",
"50 127 CURVE SMOOTH",
"50 92 OFFCURVE",
"78 64 OFFCURVE",
"113 64 CURVE SMOOTH",
"138 64 OFFCURVE",
"159 78 OFFCURVE",
"169 99 CURVE",
"321 16 LINE",
"311 9 OFFCURVE",
"304 -1 OFFCURVE",
"304 -16 CURVE SMOOTH",
"304 -53 OFFCURVE",
"360 -52 OFFCURVE",
"360 -57 CURVE SMOOTH",
"360 -62 OFFCURVE",
"314 -67 OFFCURVE",
"314 -102 CURVE SMOOTH",
"314 -143 OFFCURVE",
"363 -151 OFFCURVE",
"392 -158 CURVE"
);
},
{
closed = 1;
nodes = (
"103 109 OFFCURVE",
"95 117 OFFCURVE",
"95 127 CURVE SMOOTH",
"95 137 OFFCURVE",
"103 145 OFFCURVE",
"113 145 CURVE SMOOTH",
"123 145 OFFCURVE",
"131 137 OFFCURVE",
"131 127 CURVE SMOOTH",
"131 117 OFFCURVE",
"123 109 OFFCURVE",
"113 109 CURVE SMOOTH"
);
},
{
closed = 1;
nodes = (
"103 317 OFFCURVE",
"95 325 OFFCURVE",
"95 335 CURVE SMOOTH",
"95 345 OFFCURVE",
"103 353 OFFCURVE",
"113 353 CURVE SMOOTH",
"123 353 OFFCURVE",
"131 345 OFFCURVE",
"131 335 CURVE SMOOTH",
"131 325 OFFCURVE",
"123 317 OFFCURVE",
"113 317 CURVE SMOOTH"
);
},
{
closed = 1;
nodes = (
"403 89 OFFCURVE",
"431 117 OFFCURVE",
"431 152 CURVE SMOOTH",
"431 187 OFFCURVE",
"403 215 OFFCURVE",
"368 215 CURVE SMOOTH",
"333 215 OFFCURVE",
"305 187 OFFCURVE",
"305 152 CURVE SMOOTH",
"305 117 OFFCURVE",
"333 89 OFFCURVE",
"368 89 CURVE SMOOTH"
);
},
{
closed = 1;
nodes = (
"358 134 OFFCURVE",
"350 142 OFFCURVE",
"350 152 CURVE SMOOTH",
"350 162 OFFCURVE",
"358 170 OFFCURVE",
"368 170 CURVE SMOOTH",
"378 170 OFFCURVE",
"386 162 OFFCURVE",
"386 152 CURVE SMOOTH",
"386 142 OFFCURVE",
"378 134 OFFCURVE",
"368 134 CURVE SMOOTH"
);
},
{
closed = 1;
nodes = (
"103 527 OFFCURVE",
"95 535 OFFCURVE",
"95 545 CURVE SMOOTH",
"95 555 OFFCURVE",
"103 563 OFFCURVE",
"113 563 CURVE SMOOTH",
"123 563 OFFCURVE",
"131 555 OFFCURVE",
"131 545 CURVE SMOOTH",
"131 535 OFFCURVE",
"123 527 OFFCURVE",
"113 527 CURVE SMOOTH"
);
},
{
closed = 1;
nodes = (
"206 137 LINE",
"335 248 LINE",
"206 339 LINE",
"332 428 LINE",
"206 536 LINE",
"366 625 LINE",
"530 536 LINE",
"401 428 LINE",
"530 339 LINE",
"398 248 LINE",
"530 137 LINE",
"366 48 LINE"
);
},
{
closed = 1;
nodes = (
"403 272 OFFCURVE",
"431 300 OFFCURVE",
"431 335 CURVE SMOOTH",
"431 370 OFFCURVE",
"403 398 OFFCURVE",
"368 398 CURVE SMOOTH",
"333 398 OFFCURVE",
"305 370 OFFCURVE",
"305 335 CURVE SMOOTH",
"305 300 OFFCURVE",
"333 272 OFFCURVE",
"368 272 CURVE SMOOTH"
);
},
{
closed = 1;
nodes = (
"358 317 OFFCURVE",
"350 325 OFFCURVE",
"350 335 CURVE SMOOTH",
"350 345 OFFCURVE",
"358 353 OFFCURVE",
"368 353 CURVE SMOOTH",
"378 353 OFFCURVE",
"386 345 OFFCURVE",
"386 335 CURVE SMOOTH",
"386 325 OFFCURVE",
"378 317 OFFCURVE",
"368 317 CURVE SMOOTH"
);
},
{
closed = 1;
nodes = (
"621 109 OFFCURVE",
"613 117 OFFCURVE",
"613 127 CURVE SMOOTH",
"613 137 OFFCURVE",
"621 145 OFFCURVE",
"631 145 CURVE SMOOTH",
"641 145 OFFCURVE",
"649 137 OFFCURVE",
"649 127 CURVE SMOOTH",
"649 117 OFFCURVE",
"641 109 OFFCURVE",
"631 109 CURVE SMOOTH"
);
},
{
closed = 1;
nodes = (
"403 457 OFFCURVE",
"431 485 OFFCURVE",
"431 520 CURVE SMOOTH",
"431 555 OFFCURVE",
"403 583 OFFCURVE",
"368 583 CURVE SMOOTH",
"333 583 OFFCURVE",
"305 555 OFFCURVE",
"305 520 CURVE SMOOTH",
"305 485 OFFCURVE",
"333 457 OFFCURVE",
"368 457 CURVE SMOOTH"
);
},
{
closed = 1;
nodes = (
"358 502 OFFCURVE",
"350 510 OFFCURVE",
"350 520 CURVE SMOOTH",
"350 530 OFFCURVE",
"358 538 OFFCURVE",
"368 538 CURVE SMOOTH",
"378 538 OFFCURVE",
"386 530 OFFCURVE",
"386 520 CURVE SMOOTH",
"386 510 OFFCURVE",
"378 502 OFFCURVE",
"368 502 CURVE SMOOTH"
);
},
{
closed = 1;
nodes = (
"621 317 OFFCURVE",
"613 325 OFFCURVE",
"613 335 CURVE SMOOTH",
"613 345 OFFCURVE",
"621 353 OFFCURVE",
"631 353 CURVE SMOOTH",
"641 353 OFFCURVE",
"649 345 OFFCURVE",
"649 335 CURVE SMOOTH",
"649 325 OFFCURVE",
"641 317 OFFCURVE",
"631 317 CURVE SMOOTH"
);
},
{
closed = 1;
nodes = (
"621 527 OFFCURVE",
"613 535 OFFCURVE",
"613 545 CURVE SMOOTH",
"613 555 OFFCURVE",
"621 563 OFFCURVE",
"631 563 CURVE SMOOTH",
"641 563 OFFCURVE",
"649 555 OFFCURVE",
"649 545 CURVE SMOOTH",
"649 535 OFFCURVE",
"641 527 OFFCURVE",
"631 527 CURVE SMOOTH"
);
}
);
};
layerId = UUID0;
paths = (
{
closed = 1;
nodes = (
"406 -119 LINE",
"383 -112 OFFCURVE",
"364 -107 OFFCURVE",
"364 -102 CURVE SMOOTH",
"364 -98 OFFCURVE",
"384 -93 OFFCURVE",
"391 -89 CURVE SMOOTH",
"405 -82 OFFCURVE",
"415 -71 OFFCURVE",
"415 -53 CURVE SMOOTH",
"415 -18 OFFCURVE",
"363 -19 OFFCURVE",
"363 -13 CURVE SMOOTH",
"363 -11 OFFCURVE",
"364 -10 OFFCURVE",
"366 -9 CURVE SMOOTH",
"573 103 LINE",
"582 80 OFFCURVE",
"604 64 OFFCURVE",
"631 64 CURVE SMOOTH",
"666 64 OFFCURVE",
"694 92 OFFCURVE",
"694 127 CURVE SMOOTH",
"694 162 OFFCURVE",
"666 190 OFFCURVE",
"631 190 CURVE SMOOTH",
"609 190 OFFCURVE",
"589 179 OFFCURVE",
"578 162 CURVE",
"480 244 LINE",
"574 308 LINE",
"584 286 OFFCURVE",
"605 272 OFFCURVE",
"631 272 CURVE SMOOTH",
"666 272 OFFCURVE",
"694 300 OFFCURVE",
"694 335 CURVE SMOOTH",
"694 370 OFFCURVE",
"666 398 OFFCURVE",
"631 398 CURVE SMOOTH",
"608 398 OFFCURVE",
"587 385 OFFCURVE",
"576 367 CURVE",
"483 432 LINE",
"578 511 LINE",
"589 493 OFFCURVE",
"608 482 OFFCURVE",
"631 482 CURVE SMOOTH",
"666 482 OFFCURVE",
"694 510 OFFCURVE",
"694 545 CURVE SMOOTH",
"694 580 OFFCURVE",
"666 608 OFFCURVE",
"631 608 CURVE SMOOTH",
"605 608 OFFCURVE",
"582 592 OFFCURVE",
"573 570 CURVE",
"413 657 LINE",
"424 668 OFFCURVE",
"430 679 OFFCURVE",
"430 692 CURVE SMOOTH",
"430 729 OFFCURVE",
"378 728 OFFCURVE",
"378 733 CURVE SMOOTH",
"378 738 OFFCURVE",
"420 743 OFFCURVE",
"420 778 CURVE SMOOTH",
"420 814 OFFCURVE",
"387 828 OFFCURVE",
"363 839 CURVE",
"340 801 LINE",
"359 794 OFFCURVE",
"370 783 OFFCURVE",
"370 780 CURVE SMOOTH",
"370 774 OFFCURVE",
"351 769 OFFCURVE",
"343 765 CURVE SMOOTH",
"331 759 OFFCURVE",
"319 752 OFFCURVE",
"319 734 CURVE SMOOTH",
"319 699 OFFCURVE",
"373 696 OFFCURVE",
"373 690 CURVE SMOOTH",
"373 685 OFFCURVE",
"353 675 OFFCURVE",
"333 664 CURVE SMOOTH",
"169 573 LINE",
"159 594 OFFCURVE",
"138 608 OFFCURVE",
"113 608 CURVE SMOOTH",
"78 608 OFFCURVE",
"50 580 OFFCURVE",
"50 545 CURVE SMOOTH",
"50 510 OFFCURVE",
"78 482 OFFCURVE",
"113 482 CURVE SMOOTH",
"133 482 OFFCURVE",
"151 491 OFFCURVE",
"163 506 CURVE",
"251 432 LINE",
"165 372 LINE",
"151 388 OFFCURVE",
"134 398 OFFCURVE",
"113 398 CURVE SMOOTH",
"78 398 OFFCURVE",
"50 370 OFFCURVE",
"50 335 CURVE SMOOTH",
"50 300 OFFCURVE",
"78 272 OFFCURVE",
"113 272 CURVE SMOOTH",
"136 272 OFFCURVE",
"156 285 OFFCURVE",
"167 303 CURVE",
"254 243 LINE",
"163 166 LINE",
"151 181 OFFCURVE",
"133 190 OFFCURVE",
"113 190 CURVE SMOOTH",
"78 190 OFFCURVE",
"50 162 OFFCURVE",
"50 127 CURVE SMOOTH",
"50 92 OFFCURVE",
"78 64 OFFCURVE",
"113 64 CURVE SMOOTH",
"138 64 OFFCURVE",
"159 78 OFFCURVE",
"169 99 CURVE",
"321 16 LINE",
"311 9 OFFCURVE",
"304 -1 OFFCURVE",
"304 -16 CURVE SMOOTH",
"304 -53 OFFCURVE",
"360 -52 OFFCURVE",
"360 -57 CURVE SMOOTH",
"360 -62 OFFCURVE",
"314 -67 OFFCURVE",
"314 -102 CURVE SMOOTH",
"314 -143 OFFCURVE",
"363 -151 OFFCURVE",
"392 -158 CURVE"
);
},
{
closed = 1;
nodes = (
"103 109 OFFCURVE",
"95 117 OFFCURVE",
"95 127 CURVE SMOOTH",
"95 137 OFFCURVE",
"103 145 OFFCURVE",
"113 145 CURVE SMOOTH",
"123 145 OFFCURVE",
"131 137 OFFCURVE",
"131 127 CURVE SMOOTH",
"131 117 OFFCURVE",
"123 109 OFFCURVE",
"113 109 CURVE SMOOTH"
);
},
{
closed = 1;
nodes = (
"103 317 OFFCURVE",
"95 325 OFFCURVE",
"95 335 CURVE SMOOTH",
"95 345 OFFCURVE",
"103 353 OFFCURVE",
"113 353 CURVE SMOOTH",
"123 353 OFFCURVE",
"131 345 OFFCURVE",
"131 335 CURVE SMOOTH",
"131 325 OFFCURVE",
"123 317 OFFCURVE",
"113 317 CURVE SMOOTH"
);
},
{
closed = 1;
nodes = (
"403 89 OFFCURVE",
"431 117 OFFCURVE",
"431 152 CURVE SMOOTH",
"431 187 OFFCURVE",
"403 215 OFFCURVE",
"368 215 CURVE SMOOTH",
"333 215 OFFCURVE",
"305 187 OFFCURVE",
"305 152 CURVE SMOOTH",
"305 117 OFFCURVE",
"333 89 OFFCURVE",
"368 89 CURVE SMOOTH"
);
},
{
closed = 1;
nodes = (
"358 134 OFFCURVE",
"350 142 OFFCURVE",
"350 152 CURVE SMOOTH",
"350 162 OFFCURVE",
"358 170 OFFCURVE",
"368 170 CURVE SMOOTH",
"378 170 OFFCURVE",
"386 162 OFFCURVE",
"386 152 CURVE SMOOTH",
"386 142 OFFCURVE",
"378 134 OFFCURVE",
"368 134 CURVE SMOOTH"
);
},
{
closed = 1;
nodes = (
"103 527 OFFCURVE",
"95 535 OFFCURVE",
"95 545 CURVE SMOOTH",
"95 555 OFFCURVE",
"103 563 OFFCURVE",
"113 563 CURVE SMOOTH",
"123 563 OFFCURVE",
"131 555 OFFCURVE",
"131 545 CURVE SMOOTH",
"131 535 OFFCURVE",
"123 527 OFFCURVE",
"113 527 CURVE SMOOTH"
);
},
{
closed = 1;
nodes = (
"206 137 LINE",
"335 248 LINE",
"206 339 LINE",
"332 428 LINE",
"206 536 LINE",
"366 625 LINE",
"530 536 LINE",
"401 428 LINE",
"530 339 LINE",
"398 248 LINE",
"530 137 LINE",
"366 48 LINE"
);
},
{
closed = 1;
nodes = (
"403 272 OFFCURVE",
"431 300 OFFCURVE",
"431 335 CURVE SMOOTH",
"431 370 OFFCURVE",
"403 398 OFFCURVE",
"368 398 CURVE SMOOTH",
"333 398 OFFCURVE",
"305 370 OFFCURVE",
"305 335 CURVE SMOOTH",
"305 300 OFFCURVE",
"333 272 OFFCURVE",
"368 272 CURVE SMOOTH"
);
},
{
closed = 1;
nodes = (
"358 317 OFFCURVE",
"350 325 OFFCURVE",
"350 335 CURVE SMOOTH",
"350 345 OFFCURVE",
"358 353 OFFCURVE",
"368 353 CURVE SMOOTH",
"378 353 OFFCURVE",
"386 345 OFFCURVE",
"386 335 CURVE SMOOTH",
"386 325 OFFCURVE",
"378 317 OFFCURVE",
"368 317 CURVE SMOOTH"
);
},
{
closed = 1;
nodes = (
"621 109 OFFCURVE",
"613 117 OFFCURVE",
"613 127 CURVE SMOOTH",
"613 137 OFFCURVE",
"621 145 OFFCURVE",
"631 145 CURVE SMOOTH",
"641 145 OFFCURVE",
"649 137 OFFCURVE",
"649 127 CURVE SMOOTH",
"649 117 OFFCURVE",
"641 109 OFFCURVE",
"631 109 CURVE SMOOTH"
);
},
{
closed = 1;
nodes = (
"403 457 OFFCURVE",
"431 485 OFFCURVE",
"431 520 CURVE SMOOTH",
"431 555 OFFCURVE",
"403 583 OFFCURVE",
"368 583 CURVE SMOOTH",
"333 583 OFFCURVE",
"305 555 OFFCURVE",
"305 520 CURVE SMOOTH",
"305 485 OFFCURVE",
"333 457 OFFCURVE",
"368 457 CURVE SMOOTH"
);
},
{
closed = 1;
nodes = (
"358 502 OFFCURVE",
"350 510 OFFCURVE",
"350 520 CURVE SMOOTH",
"350 530 OFFCURVE",
"358 538 OFFCURVE",
"368 538 CURVE SMOOTH",
"378 538 OFFCURVE",
"386 530 OFFCURVE",
"386 520 CURVE SMOOTH",
"386 510 OFFCURVE",
"378 502 OFFCURVE",
"368 502 CURVE SMOOTH"
);
},
{
closed = 1;
nodes = (
"621 317 OFFCURVE",
"613 325 OFFCURVE",
"613 335 CURVE SMOOTH",
"613 345 OFFCURVE",
"621 353 OFFCURVE",
"631 353 CURVE SMOOTH",
"641 353 OFFCURVE",
"649 345 OFFCURVE",
"649 335 CURVE SMOOTH",
"649 325 OFFCURVE",
"641 317 OFFCURVE",
"631 317 CURVE SMOOTH"
);
},
{
closed = 1;
nodes = (
"621 527 OFFCURVE",
"613 535 OFFCURVE",
"613 545 CURVE SMOOTH",
"613 555 OFFCURVE",
"621 563 OFFCURVE",
"631 563 CURVE SMOOTH",
"641 563 OFFCURVE",
"649 555 OFFCURVE",
"649 545 CURVE SMOOTH",
"649 535 OFFCURVE",
"641 527 OFFCURVE",
"631 527 CURVE SMOOTH"
);
}
);
width = 744;
}
);
unicode = 16800;
},
{
glyphname = u16801;
lastChange = "2017-02-06 17:25:56 +0000";
layers = (
{
background = {
paths = (
{
closed = 1;
nodes = (
"576 -60 OFFCURVE",
"647 26 OFFCURVE",
"665 101 CURVE SMOOTH",
"673 136 OFFCURVE",
"683 140 OFFCURVE",
"704 145 CURVE SMOOTH",
"783 163 OFFCURVE",
"871 233 OFFCURVE",
"871 349 CURVE SMOOTH",
"871 464 OFFCURVE",
"787 537 OFFCURVE",
"710 553 CURVE SMOOTH",
"675 560 OFFCURVE",
"670 578 OFFCURVE",
"665 599 CURVE SMOOTH",
"646 676 OFFCURVE",
"576 760 OFFCURVE",
"461 760 CURVE SMOOTH",
"343 760 OFFCURVE",
"273 673 OFFCURVE",
"254 592 CURVE SMOOTH",
"250 575 OFFCURVE",
"244 562 OFFCURVE",
"209 554 CURVE SMOOTH",
"134 536 OFFCURVE",
"50 464 OFFCURVE",
"50 349 CURVE SMOOTH",
"50 233 OFFCURVE",
"139 161 OFFCURVE",
"217 145 CURVE SMOOTH",
"252 138 OFFCURVE",
"251 120 OFFCURVE",
"256 101 CURVE SMOOTH",
"276 26 OFFCURVE",
"345 -60 OFFCURVE",
"461 -60 CURVE SMOOTH"
);
},
{
closed = 1;
nodes = (
"406 121 OFFCURVE",
"387 155 OFFCURVE",
"387 200 CURVE SMOOTH",
"387 235 OFFCURVE",
"406 264 OFFCURVE",
"435 275 CURVE",
"435 107 LINE"
);
},
{
closed = 1;
nodes = (
"265 275 OFFCURVE",
"231 294 OFFCURVE",
"217 323 CURVE",
"398 323 LINE",
"387 294 OFFCURVE",
"345 275 OFFCURVE",
"310 275 CURVE SMOOTH"
);
},
{
closed = 1;
nodes = (
"486 275 LINE",
"516 265 OFFCURVE",
"538 235 OFFCURVE",
"538 200 CURVE SMOOTH",
"538 157 OFFCURVE",
"516 120 OFFCURVE",
"486 107 CURVE"
);
},
{
closed = 1;
nodes = (
"230 404 OFFCURVE",
"267 426 OFFCURVE",
"310 426 CURVE SMOOTH",
"345 426 OFFCURVE",
"388 404 OFFCURVE",
"398 374 CURVE",
"217 374 LINE"
);
},
{
closed = 1;
nodes = (
"374 -10 OFFCURVE",
"320 57 OFFCURVE",
"304 113 CURVE SMOOTH",
"293 152 OFFCURVE",
"291 182 OFFCURVE",
"227 195 CURVE SMOOTH",
"169 207 OFFCURVE",
"100 262 OFFCURVE",
"100 349 CURVE SMOOTH",
"100 435 OFFCURVE",
"166 493 OFFCURVE",
"223 505 CURVE SMOOTH",
"282 517 OFFCURVE",
"294 550 OFFCURVE",
"304 587 CURVE SMOOTH",
"319 643 OFFCURVE",
"374 710 OFFCURVE",
"461 710 CURVE SMOOTH",
"547 710 OFFCURVE",
"602 643 OFFCURVE",
"617 587 CURVE SMOOTH",
"634 524 OFFCURVE",
"657 514 OFFCURVE",
"698 505 CURVE SMOOTH",
"755 492 OFFCURVE",
"821 435 OFFCURVE",
"821 349 CURVE SMOOTH",
"821 262 OFFCURVE",
"753 207 OFFCURVE",
"694 195 CURVE SMOOTH",
"630 182 OFFCURVE",
"628 149 OFFCURVE",
"617 113 CURVE SMOOTH",
"600 57 OFFCURVE",
"547 -10 OFFCURVE",
"461 -10 CURVE SMOOTH"
);
},
{
closed = 1;
nodes = (
"532 50 OFFCURVE",
"587 117 OFFCURVE",
"587 200 CURVE SMOOTH",
"587 208 OFFCURVE",
"586 221 OFFCURVE",
"584 228 CURVE",
"592 226 OFFCURVE",
"602 225 OFFCURVE",
"611 225 CURVE SMOOTH",
"694 225 OFFCURVE",
"761 280 OFFCURVE",
"761 350 CURVE SMOOTH",
"761 420 OFFCURVE",
"694 475 OFFCURVE",
"611 475 CURVE SMOOTH",
"603 475 OFFCURVE",
"595 474 OFFCURVE",
"585 472 CURVE",
"586 479 OFFCURVE",
"587 492 OFFCURVE",
"587 500 CURVE SMOOTH",
"587 583 OFFCURVE",
"532 650 OFFCURVE",
"462 650 CURVE SMOOTH",
"392 650 OFFCURVE",
"337 583 OFFCURVE",
"337 500 CURVE SMOOTH",
"337 491 OFFCURVE",
"337 479 OFFCURVE",
"339 470 CURVE",
"331 474 OFFCURVE",
"318 475 OFFCURVE",
"310 475 CURVE SMOOTH",
"227 475 OFFCURVE",
"160 420 OFFCURVE",
"160 350 CURVE SMOOTH",
"160 280 OFFCURVE",
"227 225 OFFCURVE",
"310 225 CURVE SMOOTH",
"319 225 OFFCURVE",
"331 226 OFFCURVE",
"339 229 CURVE",
"338 221 OFFCURVE",
"337 209 OFFCURVE",
"337 200 CURVE SMOOTH",
"337 117 OFFCURVE",
"392 50 OFFCURVE",
"462 50 CURVE SMOOTH"
);
},
{
closed = 1;
nodes = (
"576 275 OFFCURVE",
"536 294 OFFCURVE",
"525 323 CURVE",
"704 323 LINE",
"690 294 OFFCURVE",
"656 275 OFFCURVE",
"611 275 CURVE SMOOTH"
);
},
{
closed = 1;
nodes = (
"406 436 OFFCURVE",
"387 465 OFFCURVE",
"387 500 CURVE SMOOTH",
"387 545 OFFCURVE",
"406 579 OFFCURVE",
"435 593 CURVE",
"435 425 LINE"
);
},
{
closed = 1;
nodes = (
"535 404 OFFCURVE",
"576 426 OFFCURVE",
"611 426 CURVE SMOOTH",
"654 426 OFFCURVE",
"691 404 OFFCURVE",
"704 374 CURVE",
"525 374 LINE"
);
},
{
closed = 1;
nodes = (
"486 593 LINE",
"516 580 OFFCURVE",
"538 543 OFFCURVE",
"538 500 CURVE SMOOTH",
"538 465 OFFCURVE",
"516 435 OFFCURVE",
"486 425 CURVE"
);
}
);
};
layerId = UUID0;
paths = (
{
closed = 1;
nodes = (
"576 -60 OFFCURVE",
"647 26 OFFCURVE",
"665 101 CURVE SMOOTH",
"673 136 OFFCURVE",
"683 140 OFFCURVE",
"704 145 CURVE SMOOTH",
"783 163 OFFCURVE",
"871 233 OFFCURVE",
"871 349 CURVE SMOOTH",
"871 464 OFFCURVE",
"787 537 OFFCURVE",
"710 553 CURVE SMOOTH",
"675 560 OFFCURVE",
"670 578 OFFCURVE",
"665 599 CURVE SMOOTH",
"646 676 OFFCURVE",
"576 760 OFFCURVE",
"461 760 CURVE SMOOTH",
"343 760 OFFCURVE",
"273 673 OFFCURVE",
"254 592 CURVE SMOOTH",
"250 575 OFFCURVE",
"244 562 OFFCURVE",
"209 554 CURVE SMOOTH",
"134 536 OFFCURVE",
"50 464 OFFCURVE",
"50 349 CURVE SMOOTH",
"50 233 OFFCURVE",
"139 161 OFFCURVE",
"217 145 CURVE SMOOTH",
"252 138 OFFCURVE",
"251 120 OFFCURVE",
"256 101 CURVE SMOOTH",
"276 26 OFFCURVE",
"345 -60 OFFCURVE",
"461 -60 CURVE SMOOTH"
);
},
{
closed = 1;
nodes = (
"406 121 OFFCURVE",
"387 155 OFFCURVE",
"387 200 CURVE SMOOTH",
"387 235 OFFCURVE",
"406 264 OFFCURVE",
"435 275 CURVE",
"435 107 LINE"
);
},
{
closed = 1;
nodes = (
"265 275 OFFCURVE",
"231 294 OFFCURVE",
"217 323 CURVE",
"398 323 LINE",
"387 294 OFFCURVE",
"345 275 OFFCURVE",
"310 275 CURVE SMOOTH"
);
},
{
closed = 1;
nodes = (
"486 275 LINE",
"516 265 OFFCURVE",
"538 235 OFFCURVE",
"538 200 CURVE SMOOTH",
"538 157 OFFCURVE",
"516 120 OFFCURVE",
"486 107 CURVE"
);
},
{
closed = 1;
nodes = (
"230 404 OFFCURVE",
"267 426 OFFCURVE",
"310 426 CURVE SMOOTH",
"345 426 OFFCURVE",
"388 404 OFFCURVE",
"398 374 CURVE",
"217 374 LINE"
);
},
{
closed = 1;
nodes = (
"374 -10 OFFCURVE",
"320 57 OFFCURVE",
"304 113 CURVE SMOOTH",
"293 152 OFFCURVE",
"291 182 OFFCURVE",
"227 195 CURVE SMOOTH",
"169 207 OFFCURVE",
"100 262 OFFCURVE",
"100 349 CURVE SMOOTH",
"100 435 OFFCURVE",
"166 493 OFFCURVE",
"223 505 CURVE SMOOTH",
"282 517 OFFCURVE",
"294 550 OFFCURVE",
"304 587 CURVE SMOOTH",
"319 643 OFFCURVE",
"374 710 OFFCURVE",
"461 710 CURVE SMOOTH",
"547 710 OFFCURVE",
"602 643 OFFCURVE",
"617 587 CURVE SMOOTH",
"634 524 OFFCURVE",
"657 514 OFFCURVE",
"698 505 CURVE SMOOTH",
"755 492 OFFCURVE",
"821 435 OFFCURVE",
"821 349 CURVE SMOOTH",
"821 262 OFFCURVE",
"753 207 OFFCURVE",
"694 195 CURVE SMOOTH",
"630 182 OFFCURVE",
"628 149 OFFCURVE",
"617 113 CURVE SMOOTH",
"600 57 OFFCURVE",
"547 -10 OFFCURVE",
"461 -10 CURVE SMOOTH"
);
},
{
closed = 1;
nodes = (
"532 50 OFFCURVE",
"587 117 OFFCURVE",
"587 200 CURVE SMOOTH",
"587 208 OFFCURVE",
"586 221 OFFCURVE",
"584 228 CURVE",
"592 226 OFFCURVE",
"602 225 OFFCURVE",
"611 225 CURVE SMOOTH",
"694 225 OFFCURVE",
"761 280 OFFCURVE",
"761 350 CURVE SMOOTH",
"761 420 OFFCURVE",
"694 475 OFFCURVE",
"611 475 CURVE SMOOTH",
"603 475 OFFCURVE",
"595 474 OFFCURVE",
"585 472 CURVE",
"586 479 OFFCURVE",
"587 492 OFFCURVE",
"587 500 CURVE SMOOTH",
"587 583 OFFCURVE",
"532 650 OFFCURVE",
"462 650 CURVE SMOOTH",
"392 650 OFFCURVE",
"337 583 OFFCURVE",
"337 500 CURVE SMOOTH",
"337 491 OFFCURVE",
"337 479 OFFCURVE",
"339 470 CURVE",
"331 474 OFFCURVE",
"318 475 OFFCURVE",
"310 475 CURVE SMOOTH",
"227 475 OFFCURVE",
"160 420 OFFCURVE",
"160 350 CURVE SMOOTH",
"160 280 OFFCURVE",
"227 225 OFFCURVE",
"310 225 CURVE SMOOTH",
"319 225 OFFCURVE",
"331 226 OFFCURVE",
"339 229 CURVE",
"338 221 OFFCURVE",
"337 209 OFFCURVE",
"337 200 CURVE SMOOTH",
"337 117 OFFCURVE",
"392 50 OFFCURVE",
"462 50 CURVE SMOOTH"
);
},
{
closed = 1;
nodes = (
"576 275 OFFCURVE",
"536 294 OFFCURVE",
"525 323 CURVE",
"704 323 LINE",
"690 294 OFFCURVE",
"656 275 OFFCURVE",
"611 275 CURVE SMOOTH"
);
},
{
closed = 1;
nodes = (
"406 436 OFFCURVE",
"387 465 OFFCURVE",
"387 500 CURVE SMOOTH",
"387 545 OFFCURVE",
"406 579 OFFCURVE",
"435 593 CURVE",
"435 425 LINE"
);
},
{
closed = 1;
nodes = (
"535 404 OFFCURVE",
"576 426 OFFCURVE",
"611 426 CURVE SMOOTH",
"654 426 OFFCURVE",
"691 404 OFFCURVE",
"704 374 CURVE",
"525 374 LINE"
);
},
{
closed = 1;
nodes = (
"486 593 LINE",
"516 580 OFFCURVE",
"538 543 OFFCURVE",
"538 500 CURVE SMOOTH",
"538 465 OFFCURVE",
"516 435 OFFCURVE",
"486 425 CURVE"
);
}
);
width = 921;
}
);
unicode = 16801;
},
{
glyphname = u16802;
lastChange = "2017-02-06 17:26:24 +0000";
layers = (
{
background = {
paths = (
{
closed = 1;
nodes = (
"574 46 OFFCURVE",
"688 147 OFFCURVE",
"688 235 CURVE SMOOTH",
"688 269 OFFCURVE",
"669 288 OFFCURVE",
"640 288 CURVE SMOOTH",
"625 288 OFFCURVE",
"602 277 OFFCURVE",
"578 264 CURVE SMOOTH",
"552 250 OFFCURVE",
"513 228 OFFCURVE",
"472 215 CURVE",
"500 254 OFFCURVE",
"514 301 OFFCURVE",
"514 352 CURVE SMOOTH",
"514 400 OFFCURVE",
"500 447 OFFCURVE",
"477 481 CURVE",
"520 467 OFFCURVE",
"565 448 OFFCURVE",
"594 436 CURVE SMOOTH",
"620 426 OFFCURVE",
"642 417 OFFCURVE",
"663 417 CURVE SMOOTH",
"677 417 OFFCURVE",
"689 427 OFFCURVE",
"689 449 CURVE SMOOTH",
"689 477 OFFCURVE",
"563 658 OFFCURVE",
"355 658 CURVE SMOOTH",
"165 658 OFFCURVE",
"51 557 OFFCURVE",
"51 469 CURVE SMOOTH",
"51 435 OFFCURVE",
"70 416 OFFCURVE",
"99 416 CURVE SMOOTH",
"114 416 OFFCURVE",
"137 427 OFFCURVE",
"161 440 CURVE SMOOTH",
"187 454 OFFCURVE",
"226 476 OFFCURVE",
"267 489 CURVE",
"239 450 OFFCURVE",
"225 403 OFFCURVE",
"225 352 CURVE SMOOTH",
"225 304 OFFCURVE",
"239 257 OFFCURVE",
"262 223 CURVE",
"219 237 OFFCURVE",
"174 256 OFFCURVE",
"145 268 CURVE SMOOTH",
"119 278 OFFCURVE",
"94 287 OFFCURVE",
"80 287 CURVE SMOOTH",
"57 287 OFFCURVE",
"50 277 OFFCURVE",
"50 260 CURVE SMOOTH",
"50 224 OFFCURVE",
"176 46 OFFCURVE",
"384 46 CURVE SMOOTH"
);
},
{
closed = 1;
nodes = (
"245 96 OFFCURVE",
"148 183 OFFCURVE",
"113 226 CURVE",
"115 229 LINE",
"201 190 OFFCURVE",
"288 154 OFFCURVE",
"376 154 CURVE SMOOTH",
"480 154 OFFCURVE",
"554 194 OFFCURVE",
"602 220 CURVE SMOOTH",
"621 230 OFFCURVE",
"629 237 OFFCURVE",
"632 237 CURVE SMOOTH",
"637 237 OFFCURVE",
"638 234 OFFCURVE",
"638 229 CURVE SMOOTH",
"638 178 OFFCURVE",
"544 96 OFFCURVE",
"384 96 CURVE"
);
},
{
closed = 1;
nodes = (
"301 204 OFFCURVE",
"275 296 OFFCURVE",
"275 352 CURVE SMOOTH",
"275 431 OFFCURVE",
"315 497 OFFCURVE",
"366 500 CURVE SMOOTH",
"438 500 OFFCURVE",
"464 408 OFFCURVE",
"464 352 CURVE SMOOTH",
"464 273 OFFCURVE",
"424 207 OFFCURVE",
"373 204 CURVE"
);
},
{
closed = 1;
nodes = (
"102 467 OFFCURVE",
"101 470 OFFCURVE",
"101 475 CURVE SMOOTH",
"101 526 OFFCURVE",
"195 608 OFFCURVE",
"355 608 CURVE SMOOTH",
"494 608 OFFCURVE",
"590 522 OFFCURVE",
"625 479 CURVE",
"624 476 LINE",
"537 515 OFFCURVE",
"443 550 OFFCURVE",
"363 550 CURVE SMOOTH",
"259 550 OFFCURVE",
"185 510 OFFCURVE",
"137 484 CURVE SMOOTH",
"118 474 OFFCURVE",
"110 467 OFFCURVE",
"107 467 CURVE SMOOTH"
);
}
);
};
layerId = UUID0;
paths = (
{
closed = 1;
nodes = (
"574 46 OFFCURVE",
"688 147 OFFCURVE",
"688 235 CURVE SMOOTH",
"688 269 OFFCURVE",
"669 288 OFFCURVE",
"640 288 CURVE SMOOTH",
"625 288 OFFCURVE",
"602 277 OFFCURVE",
"578 264 CURVE SMOOTH",
"552 250 OFFCURVE",
"513 228 OFFCURVE",
"472 215 CURVE",
"500 254 OFFCURVE",
"514 301 OFFCURVE",
"514 352 CURVE SMOOTH",
"514 400 OFFCURVE",
"500 447 OFFCURVE",
"477 481 CURVE",
"520 467 OFFCURVE",
"565 448 OFFCURVE",
"594 436 CURVE SMOOTH",
"620 425 OFFCURVE",
"642 417 OFFCURVE",
"663 417 CURVE SMOOTH",
"677 417 OFFCURVE",
"689 427 OFFCURVE",
"689 449 CURVE SMOOTH",
"689 477 OFFCURVE",
"563 658 OFFCURVE",
"355 658 CURVE SMOOTH",
"165 658 OFFCURVE",
"51 557 OFFCURVE",
"51 469 CURVE SMOOTH",
"51 435 OFFCURVE",
"70 416 OFFCURVE",
"99 416 CURVE SMOOTH",
"114 416 OFFCURVE",
"137 427 OFFCURVE",
"161 440 CURVE SMOOTH",
"187 454 OFFCURVE",
"226 476 OFFCURVE",
"267 489 CURVE",
"239 450 OFFCURVE",
"225 403 OFFCURVE",
"225 352 CURVE SMOOTH",
"225 304 OFFCURVE",
"239 257 OFFCURVE",
"262 223 CURVE",
"219 237 OFFCURVE",
"174 256 OFFCURVE",
"145 268 CURVE SMOOTH",
"119 279 OFFCURVE",
"94 287 OFFCURVE",
"80 287 CURVE SMOOTH",
"57 287 OFFCURVE",
"50 277 OFFCURVE",
"50 260 CURVE SMOOTH",
"50 224 OFFCURVE",
"176 46 OFFCURVE",
"384 46 CURVE SMOOTH"
);
},
{
closed = 1;
nodes = (
"245 96 OFFCURVE",
"148 183 OFFCURVE",
"113 226 CURVE",
"115 229 LINE",
"201 190 OFFCURVE",
"288 154 OFFCURVE",
"376 154 CURVE SMOOTH",
"480 154 OFFCURVE",
"554 195 OFFCURVE",
"602 220 CURVE SMOOTH",
"621 230 OFFCURVE",
"629 237 OFFCURVE",
"632 237 CURVE SMOOTH",
"637 237 OFFCURVE",
"638 234 OFFCURVE",
"638 229 CURVE SMOOTH",
"638 178 OFFCURVE",
"544 96 OFFCURVE",
"384 96 CURVE"
);
},
{
closed = 1;
nodes = (
"301 204 OFFCURVE",
"275 296 OFFCURVE",
"275 352 CURVE SMOOTH",
"275 431 OFFCURVE",
"317 500 OFFCURVE",
"366 500 CURVE SMOOTH",
"438 500 OFFCURVE",
"464 408 OFFCURVE",
"464 352 CURVE SMOOTH",
"464 272 OFFCURVE",
"420 204 OFFCURVE",
"372 204 CURVE SMOOTH"
);
},
{
closed = 1;
nodes = (
"102 467 OFFCURVE",
"101 470 OFFCURVE",
"101 475 CURVE SMOOTH",
"101 526 OFFCURVE",
"195 608 OFFCURVE",
"355 608 CURVE SMOOTH",
"494 608 OFFCURVE",
"590 522 OFFCURVE",
"625 479 CURVE",
"624 476 LINE",
"537 515 OFFCURVE",
"443 550 OFFCURVE",
"363 550 CURVE SMOOTH",
"259 550 OFFCURVE",
"185 509 OFFCURVE",
"137 484 CURVE SMOOTH",
"118 474 OFFCURVE",
"110 467 OFFCURVE",
"107 467 CURVE SMOOTH"
);
}
);
width = 739;
}
);
unicode = 16802;
},
{
glyphname = u16803;
lastChange = "2017-02-06 17:26:29 +0000";
layers = (
{
background = {
paths = (
{
closed = 1;
nodes = (
"222 -17 OFFCURVE",
"295 29 OFFCURVE",
"302 149 CURVE",
"438 196 LINE",
"438 101 LINE",
"488 101 LINE",
"488 262 LINE",
"349 213 LINE",
"369 256 OFFCURVE",
"376 301 OFFCURVE",
"376 341 CURVE SMOOTH",
"376 390 OFFCURVE",
"366 430 OFFCURVE",
"352 462 CURVE",
"479 419 LINE",
"488 564 LINE",
"438 564 LINE",
"433 484 LINE",
"339 511 LINE",
"359 527 OFFCURVE",
"367 547 OFFCURVE",
"367 570 CURVE SMOOTH",
"367 600 OFFCURVE",
"332 654 OFFCURVE",
"269 686 CURVE",
"206 654 OFFCURVE",
"171 600 OFFCURVE",
"171 570 CURVE SMOOTH",
"171 547 OFFCURVE",
"179 527 OFFCURVE",
"199 511 CURVE",
"105 484 LINE",
"100 564 LINE",
"50 564 LINE",
"59 419 LINE",
"186 462 LINE",
"173 432 OFFCURVE",
"162 390 OFFCURVE",
"162 341 CURVE SMOOTH",
"162 301 OFFCURVE",
"169 256 OFFCURVE",
"189 213 CURVE",
"50 262 LINE",
"50 101 LINE",
"100 101 LINE",
"100 196 LINE",
"244 146 LINE",
"245 55 OFFCURVE",
"186 18 OFFCURVE",
"149 -8 CURVE",
"179 -48 LINE"
);
},
{
closed = 1;
nodes = (
"255 194 OFFCURVE",
"212 229 OFFCURVE",
"212 340 CURVE SMOOTH",
"212 443 OFFCURVE",
"257 491 OFFCURVE",
"268 491 CURVE SMOOTH",
"281 491 OFFCURVE",
"326 443 OFFCURVE",
"326 340 CURVE SMOOTH",
"326 229 OFFCURVE",
"283 194 OFFCURVE",
"267 194 CURVE SMOOTH"
);
},
{
closed = 1;
nodes = (
"230 534 OFFCURVE",
"221 560 OFFCURVE",
"221 570 CURVE SMOOTH",
"221 584 OFFCURVE",
"237 611 OFFCURVE",
"269 630 CURVE",
"301 611 OFFCURVE",
"317 585 OFFCURVE",
"317 570 CURVE SMOOTH",
"317 560 OFFCURVE",
"308 534 OFFCURVE",
"270 534 CURVE SMOOTH"
);
}
);
};
layerId = UUID0;
paths = (
{
closed = 1;
nodes = (
"222 -17 OFFCURVE",
"295 29 OFFCURVE",
"302 149 CURVE",
"438 196 LINE",
"438 101 LINE",
"488 101 LINE",
"488 262 LINE",
"349 213 LINE",
"369 256 OFFCURVE",
"376 301 OFFCURVE",
"376 341 CURVE SMOOTH",
"376 390 OFFCURVE",
"366 430 OFFCURVE",
"352 462 CURVE",
"479 419 LINE",
"488 564 LINE",
"438 564 LINE",
"433 484 LINE",
"339 511 LINE",
"359 527 OFFCURVE",
"367 547 OFFCURVE",
"367 570 CURVE SMOOTH",
"367 600 OFFCURVE",
"332 654 OFFCURVE",
"269 686 CURVE",
"206 654 OFFCURVE",
"171 600 OFFCURVE",
"171 570 CURVE SMOOTH",
"171 547 OFFCURVE",
"179 527 OFFCURVE",
"199 511 CURVE",
"105 484 LINE",
"100 564 LINE",
"50 564 LINE",
"59 419 LINE",
"186 462 LINE",
"173 432 OFFCURVE",
"162 390 OFFCURVE",
"162 341 CURVE SMOOTH",
"162 301 OFFCURVE",
"169 256 OFFCURVE",
"189 213 CURVE",
"50 262 LINE",
"50 101 LINE",
"100 101 LINE",
"100 196 LINE",
"244 146 LINE",
"244 55 OFFCURVE",
"186 18 OFFCURVE",
"149 -8 CURVE",
"179 -48 LINE"
);
},
{
closed = 1;
nodes = (
"255 194 OFFCURVE",
"212 229 OFFCURVE",
"212 340 CURVE SMOOTH",
"212 443 OFFCURVE",
"257 491 OFFCURVE",
"268 491 CURVE SMOOTH",
"281 491 OFFCURVE",
"326 443 OFFCURVE",
"326 340 CURVE SMOOTH",
"326 229 OFFCURVE",
"283 194 OFFCURVE",
"267 194 CURVE SMOOTH"
);
},
{
closed = 1;
nodes = (
"230 534 OFFCURVE",
"221 560 OFFCURVE",
"221 570 CURVE SMOOTH",
"221 584 OFFCURVE",
"237 611 OFFCURVE",
"269 630 CURVE",
"301 611 OFFCURVE",
"317 585 OFFCURVE",
"317 570 CURVE SMOOTH",
"317 560 OFFCURVE",
"308 534 OFFCURVE",
"270 534 CURVE SMOOTH"
);
}
);
width = 538;
}
);
unicode = 16803;
},
{
glyphname = u16804;
lastChange = "2017-02-06 17:26:35 +0000";
layers = (
{
background = {
paths = (
{
closed = 1;
nodes = (
"812 81 LINE",
"798 114 LINE",
"572 339 LINE",
"938 340 LINE",
"970 354 LINE",
"841 674 LINE",
"808 660 LINE",
"534 420 LINE",
"524 743 LINE",
"510 775 LINE",
"208 650 LINE",
"222 617 LINE",
"451 389 LINE",
"82 388 LINE",
"50 375 LINE",
"179 62 LINE",
"212 75 LINE",
"486 315 LINE",
"496 -12 LINE",
"510 -44 LINE"
);
},
{
closed = 1;
nodes = (
"240 197 OFFCURVE",
"252 209 OFFCURVE",
"252 225 CURVE SMOOTH",
"252 241 OFFCURVE",
"240 254 OFFCURVE",
"224 254 CURVE SMOOTH",
"208 254 OFFCURVE",
"195 241 OFFCURVE",
"195 225 CURVE SMOOTH",
"195 209 OFFCURVE",
"208 197 OFFCURVE",
"224 197 CURVE SMOOTH"
);
},
{
closed = 1;
nodes = (
"211 265 OFFCURVE",
"223 277 OFFCURVE",
"223 293 CURVE SMOOTH",
"223 309 OFFCURVE",
"211 322 OFFCURVE",
"195 322 CURVE SMOOTH",
"179 322 OFFCURVE",
"166 309 OFFCURVE",
"166 293 CURVE SMOOTH",
"166 277 OFFCURVE",
"179 265 OFFCURVE",
"195 265 CURVE SMOOTH"
);
},
{
closed = 1;
nodes = (
"120 337 LINE",
"439 339 LINE",
"203 134 LINE"
);
},
{
closed = 1;
nodes = (
"303 265 OFFCURVE",
"315 277 OFFCURVE",
"315 293 CURVE SMOOTH",
"315 309 OFFCURVE",
"303 322 OFFCURVE",
"287 322 CURVE SMOOTH",
"271 322 OFFCURVE",
"258 309 OFFCURVE",
"258 293 CURVE SMOOTH",
"258 277 OFFCURVE",
"271 265 OFFCURVE",
"287 265 CURVE SMOOTH"
);
},
{
closed = 1;
nodes = (
"604 69 OFFCURVE",
"616 82 OFFCURVE",
"616 98 CURVE SMOOTH",
"616 114 OFFCURVE",
"604 126 OFFCURVE",
"588 126 CURVE SMOOTH",
"572 126 OFFCURVE",
"559 114 OFFCURVE",
"559 98 CURVE SMOOTH",
"559 82 OFFCURVE",
"572 69 OFFCURVE",
"588 69 CURVE SMOOTH"
);
},
{
closed = 1;
nodes = (
"604 161 OFFCURVE",
"616 174 OFFCURVE",
"616 190 CURVE SMOOTH",
"616 206 OFFCURVE",
"604 218 OFFCURVE",
"588 218 CURVE SMOOTH",
"572 218 OFFCURVE",
"559 206 OFFCURVE",
"559 190 CURVE SMOOTH",
"559 174 OFFCURVE",
"572 161 OFFCURVE",
"588 161 CURVE SMOOTH"
);
},
{
closed = 1;
nodes = (
"672 98 OFFCURVE",
"684 111 OFFCURVE",
"684 127 CURVE SMOOTH",
"684 143 OFFCURVE",
"672 155 OFFCURVE",
"656 155 CURVE SMOOTH",
"640 155 OFFCURVE",
"627 143 OFFCURVE",
"627 127 CURVE SMOOTH",
"627 111 OFFCURVE",
"640 98 OFFCURVE",
"656 98 CURVE SMOOTH"
);
},
{
closed = 1;
nodes = (
"537 302 LINE",
"736 104 LINE",
"545 25 LINE"
);
},
{
closed = 1;
nodes = (
"284 627 LINE",
"475 706 LINE",
"483 429 LINE"
);
},
{
closed = 1;
nodes = (
"381 581 OFFCURVE",
"394 593 OFFCURVE",
"394 609 CURVE SMOOTH",
"394 625 OFFCURVE",
"381 638 OFFCURVE",
"365 638 CURVE SMOOTH",
"349 638 OFFCURVE",
"337 625 OFFCURVE",
"337 609 CURVE SMOOTH",
"337 593 OFFCURVE",
"349 581 OFFCURVE",
"365 581 CURVE SMOOTH"
);
},
{
closed = 1;
nodes = (
"449 518 OFFCURVE",
"462 530 OFFCURVE",
"462 546 CURVE SMOOTH",
"462 562 OFFCURVE",
"449 575 OFFCURVE",
"433 575 CURVE SMOOTH",
"417 575 OFFCURVE",
"405 562 OFFCURVE",
"405 546 CURVE SMOOTH",
"405 530 OFFCURVE",
"417 518 OFFCURVE",
"433 518 CURVE SMOOTH"
);
},
{
closed = 1;
nodes = (
"449 610 OFFCURVE",
"462 622 OFFCURVE",
"462 638 CURVE SMOOTH",
"462 654 OFFCURVE",
"449 667 OFFCURVE",
"433 667 CURVE SMOOTH",
"417 667 OFFCURVE",
"405 654 OFFCURVE",
"405 638 CURVE SMOOTH",
"405 622 OFFCURVE",
"417 610 OFFCURVE",
"433 610 CURVE SMOOTH"
);
},
{
closed = 1;
nodes = (
"746 415 OFFCURVE",
"759 428 OFFCURVE",
"759 444 CURVE SMOOTH",
"759 460 OFFCURVE",
"746 472 OFFCURVE",
"730 472 CURVE SMOOTH",
"714 472 OFFCURVE",
"702 460 OFFCURVE",
"702 444 CURVE SMOOTH",
"702 428 OFFCURVE",
"714 415 OFFCURVE",
"730 415 CURVE SMOOTH"
);
},
{
closed = 1;
nodes = (
"817 600 LINE",
"849 522 OFFCURVE",
"872 462 OFFCURVE",
"901 390 CURVE",
"573 389 LINE"
);
},
{
closed = 1;
nodes = (
"838 415 OFFCURVE",
"851 428 OFFCURVE",
"851 444 CURVE SMOOTH",
"851 460 OFFCURVE",
"838 472 OFFCURVE",
"822 472 CURVE SMOOTH",
"806 472 OFFCURVE",
"794 460 OFFCURVE",
"794 444 CURVE SMOOTH",
"794 428 OFFCURVE",
"806 415 OFFCURVE",
"822 415 CURVE SMOOTH"
);
},
{
closed = 1;
nodes = (
"809 483 OFFCURVE",
"822 496 OFFCURVE",
"822 512 CURVE SMOOTH",
"822 528 OFFCURVE",
"809 540 OFFCURVE",
"793 540 CURVE SMOOTH",
"777 540 OFFCURVE",
"765 528 OFFCURVE",
"765 512 CURVE SMOOTH",
"765 496 OFFCURVE",
"777 483 OFFCURVE",
"793 483 CURVE SMOOTH"
);
}
);
};
layerId = UUID0;
paths = (
{
closed = 1;
nodes = (
"812 81 LINE",
"798 114 LINE",
"572 339 LINE",
"938 339 LINE",
"970 354 LINE",
"841 674 LINE",
"808 660 LINE",
"534 420 LINE",
"524 743 LINE",
"510 775 LINE",
"208 650 LINE",
"222 617 LINE",
"451 389 LINE",
"82 389 LINE",
"50 375 LINE",
"179 62 LINE",
"212 75 LINE",
"486 315 LINE",
"496 -12 LINE",
"510 -44 LINE"
);
},
{
closed = 1;
nodes = (
"240 197 OFFCURVE",
"252 209 OFFCURVE",
"252 225 CURVE SMOOTH",
"252 241 OFFCURVE",
"240 254 OFFCURVE",
"224 254 CURVE SMOOTH",
"208 254 OFFCURVE",
"195 241 OFFCURVE",
"195 225 CURVE SMOOTH",
"195 209 OFFCURVE",
"208 197 OFFCURVE",
"224 197 CURVE SMOOTH"
);
},
{
closed = 1;
nodes = (
"211 265 OFFCURVE",
"223 277 OFFCURVE",
"223 293 CURVE SMOOTH",
"223 309 OFFCURVE",
"211 322 OFFCURVE",
"195 322 CURVE SMOOTH",
"179 322 OFFCURVE",
"166 309 OFFCURVE",
"166 293 CURVE SMOOTH",
"166 277 OFFCURVE",
"179 265 OFFCURVE",
"195 265 CURVE SMOOTH"
);
},
{
closed = 1;
nodes = (
"120 339 LINE",
"439 339 LINE",
"203 134 LINE"
);
},
{
closed = 1;
nodes = (
"303 265 OFFCURVE",
"315 277 OFFCURVE",
"315 293 CURVE SMOOTH",
"315 309 OFFCURVE",
"303 322 OFFCURVE",
"287 322 CURVE SMOOTH",
"271 322 OFFCURVE",
"258 309 OFFCURVE",
"258 293 CURVE SMOOTH",
"258 277 OFFCURVE",
"271 265 OFFCURVE",
"287 265 CURVE SMOOTH"
);
},
{
closed = 1;
nodes = (
"604 69 OFFCURVE",
"616 82 OFFCURVE",
"616 98 CURVE SMOOTH",
"616 114 OFFCURVE",
"604 126 OFFCURVE",
"588 126 CURVE SMOOTH",
"572 126 OFFCURVE",
"559 114 OFFCURVE",
"559 98 CURVE SMOOTH",
"559 82 OFFCURVE",
"572 69 OFFCURVE",
"588 69 CURVE SMOOTH"
);
},
{
closed = 1;
nodes = (
"604 161 OFFCURVE",
"616 174 OFFCURVE",
"616 190 CURVE SMOOTH",
"616 206 OFFCURVE",
"604 218 OFFCURVE",
"588 218 CURVE SMOOTH",
"572 218 OFFCURVE",
"559 206 OFFCURVE",
"559 190 CURVE SMOOTH",
"559 174 OFFCURVE",
"572 161 OFFCURVE",
"588 161 CURVE SMOOTH"
);
},
{
closed = 1;
nodes = (
"672 98 OFFCURVE",
"684 111 OFFCURVE",
"684 127 CURVE SMOOTH",
"684 143 OFFCURVE",
"672 155 OFFCURVE",
"656 155 CURVE SMOOTH",
"640 155 OFFCURVE",
"627 143 OFFCURVE",
"627 127 CURVE SMOOTH",
"627 111 OFFCURVE",
"640 98 OFFCURVE",
"656 98 CURVE SMOOTH"
);
},
{
closed = 1;
nodes = (
"537 302 LINE",
"736 104 LINE",
"545 25 LINE"
);
},
{
closed = 1;
nodes = (
"284 627 LINE",
"475 706 LINE",
"483 429 LINE"
);
},
{
closed = 1;
nodes = (
"381 581 OFFCURVE",
"394 593 OFFCURVE",
"394 609 CURVE SMOOTH",
"394 625 OFFCURVE",
"381 638 OFFCURVE",
"365 638 CURVE SMOOTH",
"349 638 OFFCURVE",
"337 625 OFFCURVE",
"337 609 CURVE SMOOTH",
"337 593 OFFCURVE",
"349 581 OFFCURVE",
"365 581 CURVE SMOOTH"
);
},
{
closed = 1;
nodes = (
"449 518 OFFCURVE",
"462 530 OFFCURVE",
"462 546 CURVE SMOOTH",
"462 562 OFFCURVE",
"449 575 OFFCURVE",
"433 575 CURVE SMOOTH",
"417 575 OFFCURVE",
"405 562 OFFCURVE",
"405 546 CURVE SMOOTH",
"405 530 OFFCURVE",
"417 518 OFFCURVE",
"433 518 CURVE SMOOTH"
);
},
{
closed = 1;
nodes = (
"449 610 OFFCURVE",
"462 622 OFFCURVE",
"462 638 CURVE SMOOTH",
"462 654 OFFCURVE",
"449 667 OFFCURVE",
"433 667 CURVE SMOOTH",
"417 667 OFFCURVE",
"405 654 OFFCURVE",
"405 638 CURVE SMOOTH",
"405 622 OFFCURVE",
"417 610 OFFCURVE",
"433 610 CURVE SMOOTH"
);
},
{
closed = 1;
nodes = (
"746 415 OFFCURVE",
"759 428 OFFCURVE",
"759 444 CURVE SMOOTH",
"759 460 OFFCURVE",
"746 472 OFFCURVE",
"730 472 CURVE SMOOTH",
"714 472 OFFCURVE",
"702 460 OFFCURVE",
"702 444 CURVE SMOOTH",
"702 428 OFFCURVE",
"714 415 OFFCURVE",
"730 415 CURVE SMOOTH"
);
},
{
closed = 1;
nodes = (
"817 600 LINE",
"849 522 OFFCURVE",
"872 461 OFFCURVE",
"901 389 CURVE",
"573 389 LINE"
);
},
{
closed = 1;
nodes = (
"838 415 OFFCURVE",
"851 428 OFFCURVE",
"851 444 CURVE SMOOTH",
"851 460 OFFCURVE",
"838 472 OFFCURVE",
"822 472 CURVE SMOOTH",
"806 472 OFFCURVE",
"794 460 OFFCURVE",
"794 444 CURVE SMOOTH",
"794 428 OFFCURVE",
"806 415 OFFCURVE",
"822 415 CURVE SMOOTH"
);
},
{
closed = 1;
nodes = (
"809 483 OFFCURVE",
"822 496 OFFCURVE",
"822 512 CURVE SMOOTH",
"822 528 OFFCURVE",
"809 540 OFFCURVE",
"793 540 CURVE SMOOTH",
"777 540 OFFCURVE",
"765 528 OFFCURVE",
"765 512 CURVE SMOOTH",
"765 496 OFFCURVE",
"777 483 OFFCURVE",
"793 483 CURVE SMOOTH"
);
}
);
width = 1020;
}
);
unicode = 16804;
},
{
glyphname = u16805;
lastChange = "2017-02-06 17:26:40 +0000";
layers = (
{
background = {
paths = (
{
closed = 1;
nodes = (
"663 0 LINE",
"663 35 LINE",
"618 136 OFFCURVE",
"570 241 OFFCURVE",
"507 338 CURVE",
"632 342 OFFCURVE",
"698 398 OFFCURVE",
"698 456 CURVE SMOOTH",
"698 500 OFFCURVE",
"663 534 OFFCURVE",
"609 549 CURVE",
"628 579 OFFCURVE",
"642 615 OFFCURVE",
"642 664 CURVE SMOOTH",
"642 732 OFFCURVE",
"605 830 OFFCURVE",
"484 836 CURVE",
"461 810 LINE",
"492 755 OFFCURVE",
"504 717 OFFCURVE",
"504 671 CURVE SMOOTH",
"504 601 OFFCURVE",
"445 540 OFFCURVE",
"399 505 CURVE SMOOTH",
"374 486 LINE",
"349 505 LINE SMOOTH",
"303 540 OFFCURVE",
"244 601 OFFCURVE",
"244 671 CURVE SMOOTH",
"244 715 OFFCURVE",
"254 751 OFFCURVE",
"287 810 CURVE",
"269 836 LINE",
"142 832 OFFCURVE",
"106 731 OFFCURVE",
"106 664 CURVE SMOOTH",
"106 615 OFFCURVE",
"120 579 OFFCURVE",
"139 549 CURVE",
"85 534 OFFCURVE",
"50 500 OFFCURVE",
"50 456 CURVE SMOOTH",
"50 403 OFFCURVE",
"111 345 OFFCURVE",
"241 338 CURVE",
"178 239 OFFCURVE",
"129 137 OFFCURVE",
"84 35 CURVE",
"84 0 LINE"
);
},
{
closed = 1;
nodes = (
"161 78 OFFCURVE",
"193 98 OFFCURVE",
"230 98 CURVE SMOOTH",
"267 98 OFFCURVE",
"300 78 OFFCURVE",
"313 50 CURVE",
"148 50 LINE"
);
},
{
closed = 1;
nodes = (
"326 207 OFFCURVE",
"341 221 OFFCURVE",
"341 239 CURVE SMOOTH",
"341 257 OFFCURVE",
"326 272 OFFCURVE",
"308 272 CURVE SMOOTH",
"290 272 OFFCURVE",
"276 257 OFFCURVE",
"276 239 CURVE SMOOTH",
"276 221 OFFCURVE",
"290 207 OFFCURVE",
"308 207 CURVE SMOOTH"
);
},
{
closed = 1;
nodes = (
"448 78 OFFCURVE",
"481 98 OFFCURVE",
"518 98 CURVE SMOOTH",
"555 98 OFFCURVE",
"587 78 OFFCURVE",
"600 50 CURVE",
"435 50 LINE"
);
},
{
closed = 1;
nodes = (
"351 107 OFFCURVE",
"296 148 OFFCURVE",
"230 148 CURVE SMOOTH",
"216 148 OFFCURVE",
"200 145 OFFCURVE",
"187 137 CURVE",
"238 241 OFFCURVE",
"301 355 OFFCURVE",
"374 429 CURVE",
"447 355 OFFCURVE",
"510 241 OFFCURVE",
"561 137 CURVE",
"548 145 OFFCURVE",
"532 148 OFFCURVE",
"518 148 CURVE SMOOTH",
"452 148 OFFCURVE",
"397 107 OFFCURVE",
"383 50 CURVE",
"365 50 LINE"
);
},
{
closed = 1;
nodes = (
"160 387 OFFCURVE",
"100 424 OFFCURVE",
"100 456 CURVE SMOOTH",
"100 486 OFFCURVE",
"143 508 OFFCURVE",
"203 508 CURVE SMOOTH",
"257 508 OFFCURVE",
"298 486 OFFCURVE",
"334 459 CURVE",
"314 439 OFFCURVE",
"292 412 OFFCURVE",
"274 387 CURVE"
);
},
{
closed = 1;
nodes = (
"459 207 OFFCURVE",
"474 221 OFFCURVE",
"474 239 CURVE SMOOTH",
"474 257 OFFCURVE",
"459 272 OFFCURVE",
"441 272 CURVE SMOOTH",
"423 272 OFFCURVE",
"409 257 OFFCURVE",
"409 239 CURVE SMOOTH",
"409 221 OFFCURVE",
"423 207 OFFCURVE",
"441 207 CURVE SMOOTH"
);
},
{
closed = 1;
nodes = (
"223 556 OFFCURVE",
"213 558 OFFCURVE",
"203 558 CURVE SMOOTH",
"193 558 LINE",
"173 583 OFFCURVE",
"156 617 OFFCURVE",
"156 664 CURVE SMOOTH",
"156 702 OFFCURVE",
"174 754 OFFCURVE",
"216 779 CURVE",
"218 777 LINE",
"196 734 OFFCURVE",
"194 695 OFFCURVE",
"194 670 CURVE SMOOTH",
"194 633 OFFCURVE",
"203 598 OFFCURVE",
"233 555 CURVE"
);
},
{
closed = 1;
nodes = (
"456 412 OFFCURVE",
"434 439 OFFCURVE",
"414 459 CURVE",
"450 486 OFFCURVE",
"491 508 OFFCURVE",
"545 508 CURVE SMOOTH",
"605 508 OFFCURVE",
"648 486 OFFCURVE",
"648 456 CURVE SMOOTH",
"648 424 OFFCURVE",
"588 387 OFFCURVE",
"474 387 CURVE"
);
},
{
closed = 1;
nodes = (
"545 598 OFFCURVE",
"554 633 OFFCURVE",
"554 670 CURVE SMOOTH",
"554 695 OFFCURVE",
"552 734 OFFCURVE",
"530 777 CURVE",
"532 779 LINE",
"574 754 OFFCURVE",
"592 702 OFFCURVE",
"592 664 CURVE SMOOTH",
"592 617 OFFCURVE",
"575 583 OFFCURVE",
"555 558 CURVE",
"545 558 LINE SMOOTH",
"535 558 OFFCURVE",
"525 556 OFFCURVE",
"515 555 CURVE"
);
}
);
};
layerId = UUID0;
paths = (
{
closed = 1;
nodes = (
"663 0 LINE",
"663 35 LINE",
"618 136 OFFCURVE",
"570 241 OFFCURVE",
"507 338 CURVE",
"632 342 OFFCURVE",
"698 398 OFFCURVE",
"698 456 CURVE SMOOTH",
"698 500 OFFCURVE",
"663 534 OFFCURVE",
"609 549 CURVE",
"628 579 OFFCURVE",
"642 615 OFFCURVE",
"642 664 CURVE SMOOTH",
"642 732 OFFCURVE",
"605 830 OFFCURVE",
"484 836 CURVE",
"461 810 LINE",
"492 755 OFFCURVE",
"504 717 OFFCURVE",
"504 671 CURVE SMOOTH",
"504 601 OFFCURVE",
"445 540 OFFCURVE",
"399 505 CURVE SMOOTH",
"374 486 LINE",
"349 505 LINE SMOOTH",
"303 540 OFFCURVE",
"244 601 OFFCURVE",
"244 671 CURVE SMOOTH",
"244 715 OFFCURVE",
"254 751 OFFCURVE",
"287 810 CURVE",
"269 836 LINE",
"142 832 OFFCURVE",
"106 731 OFFCURVE",
"106 664 CURVE SMOOTH",
"106 615 OFFCURVE",
"120 579 OFFCURVE",
"139 549 CURVE",
"85 534 OFFCURVE",
"50 500 OFFCURVE",
"50 456 CURVE SMOOTH",
"50 403 OFFCURVE",
"111 345 OFFCURVE",
"241 338 CURVE",
"178 239 OFFCURVE",
"129 137 OFFCURVE",
"84 35 CURVE",
"84 0 LINE"
);
},
{
closed = 1;
nodes = (
"161 78 OFFCURVE",
"193 98 OFFCURVE",
"230 98 CURVE SMOOTH",
"267 98 OFFCURVE",
"300 78 OFFCURVE",
"313 50 CURVE",
"148 50 LINE"
);
},
{
closed = 1;
nodes = (
"326 207 OFFCURVE",
"341 221 OFFCURVE",
"341 239 CURVE SMOOTH",
"341 257 OFFCURVE",
"326 272 OFFCURVE",
"308 272 CURVE SMOOTH",
"290 272 OFFCURVE",
"276 257 OFFCURVE",
"276 239 CURVE SMOOTH",
"276 221 OFFCURVE",
"290 207 OFFCURVE",
"308 207 CURVE SMOOTH"
);
},
{
closed = 1;
nodes = (
"448 78 OFFCURVE",
"481 98 OFFCURVE",
"518 98 CURVE SMOOTH",
"555 98 OFFCURVE",
"587 78 OFFCURVE",
"600 50 CURVE",
"435 50 LINE"
);
},
{
closed = 1;
nodes = (
"351 107 OFFCURVE",
"296 148 OFFCURVE",
"230 148 CURVE SMOOTH",
"216 148 OFFCURVE",
"200 145 OFFCURVE",
"187 137 CURVE",
"238 241 OFFCURVE",
"301 355 OFFCURVE",
"374 429 CURVE",
"447 355 OFFCURVE",
"510 241 OFFCURVE",
"561 137 CURVE",
"548 145 OFFCURVE",
"532 148 OFFCURVE",
"518 148 CURVE SMOOTH",
"452 148 OFFCURVE",
"397 107 OFFCURVE",
"383 50 CURVE",
"365 50 LINE"
);
},
{
closed = 1;
nodes = (
"160 387 OFFCURVE",
"100 424 OFFCURVE",
"100 456 CURVE SMOOTH",
"100 486 OFFCURVE",
"143 508 OFFCURVE",
"203 508 CURVE SMOOTH",
"257 508 OFFCURVE",
"298 486 OFFCURVE",
"334 459 CURVE",
"314 439 OFFCURVE",
"292 412 OFFCURVE",
"274 387 CURVE"
);
},
{
closed = 1;
nodes = (
"459 207 OFFCURVE",
"474 221 OFFCURVE",
"474 239 CURVE SMOOTH",
"474 257 OFFCURVE",
"459 272 OFFCURVE",
"441 272 CURVE SMOOTH",
"423 272 OFFCURVE",
"409 257 OFFCURVE",
"409 239 CURVE SMOOTH",
"409 221 OFFCURVE",
"423 207 OFFCURVE",
"441 207 CURVE SMOOTH"
);
},
{
closed = 1;
nodes = (
"223 556 OFFCURVE",
"213 558 OFFCURVE",
"203 558 CURVE SMOOTH",
"193 558 LINE",
"173 583 OFFCURVE",
"156 617 OFFCURVE",
"156 664 CURVE SMOOTH",
"156 702 OFFCURVE",
"174 754 OFFCURVE",
"216 779 CURVE",
"218 777 LINE",
"196 734 OFFCURVE",
"194 695 OFFCURVE",
"194 670 CURVE SMOOTH",
"194 633 OFFCURVE",
"203 598 OFFCURVE",
"233 555 CURVE"
);
},
{
closed = 1;
nodes = (
"456 412 OFFCURVE",
"434 439 OFFCURVE",
"414 459 CURVE",
"450 486 OFFCURVE",
"491 508 OFFCURVE",
"545 508 CURVE SMOOTH",
"605 508 OFFCURVE",
"648 486 OFFCURVE",
"648 456 CURVE SMOOTH",
"648 424 OFFCURVE",
"588 387 OFFCURVE",
"474 387 CURVE"
);
},
{
closed = 1;
nodes = (
"545 598 OFFCURVE",
"554 633 OFFCURVE",
"554 670 CURVE SMOOTH",
"554 695 OFFCURVE",
"552 734 OFFCURVE",
"530 777 CURVE",
"532 779 LINE",
"574 754 OFFCURVE",
"592 702 OFFCURVE",
"592 664 CURVE SMOOTH",
"592 617 OFFCURVE",
"575 583 OFFCURVE",
"555 558 CURVE",
"545 558 LINE SMOOTH",
"535 558 OFFCURVE",
"525 556 OFFCURVE",
"515 555 CURVE"
);
}
);
width = 748;
}
);
unicode = 16805;
},
{
glyphname = u16806;
lastChange = "2017-02-06 17:26:46 +0000";
layers = (
{
background = {
paths = (
{
closed = 1;
nodes = (
"774 0 LINE",
"774 35 LINE",
"745 101 OFFCURVE",
"673 252 OFFCURVE",
"605 392 CURVE",
"662 401 OFFCURVE",
"683 444 OFFCURVE",
"683 481 CURVE SMOOTH",
"683 528 OFFCURVE",
"654 567 OFFCURVE",
"592 567 CURVE SMOOTH",
"564 567 OFFCURVE",
"543 558 OFFCURVE",
"525 546 CURVE",
"499 594 LINE",
"521 596 OFFCURVE",
"563 599 OFFCURVE",
"595 599 CURVE SMOOTH",
"708 599 OFFCURVE",
"754 509 OFFCURVE",
"754 424 CURVE SMOOTH",
"754 384 OFFCURVE",
"751 344 OFFCURVE",
"731 276 CURVE",
"762 258 LINE",
"828 288 OFFCURVE",
"887 367 OFFCURVE",
"887 469 CURVE SMOOTH",
"887 624 OFFCURVE",
"792 724 OFFCURVE",
"648 724 CURVE SMOOTH",
"573 724 OFFCURVE",
"517 691 OFFCURVE",
"469 645 CURVE",
"420 690 OFFCURVE",
"366 724 OFFCURVE",
"289 724 CURVE SMOOTH",
"145 724 OFFCURVE",
"50 624 OFFCURVE",
"50 469 CURVE SMOOTH",
"50 373 OFFCURVE",
"105 288 OFFCURVE",
"175 258 CURVE",
"206 276 LINE",
"187 342 OFFCURVE",
"183 384 OFFCURVE",
"183 424 CURVE SMOOTH",
"183 509 OFFCURVE",
"229 599 OFFCURVE",
"342 599 CURVE SMOOTH",
"374 599 OFFCURVE",
"414 598 OFFCURVE",
"438 594 CURVE",
"412 546 LINE",
"394 558 OFFCURVE",
"373 567 OFFCURVE",
"345 567 CURVE SMOOTH",
"283 567 OFFCURVE",
"254 528 OFFCURVE",
"254 481 CURVE SMOOTH",
"254 444 OFFCURVE",
"276 400 OFFCURVE",
"332 392 CURVE",
"266 257 OFFCURVE",
"194 105 OFFCURVE",
"163 35 CURVE",
"163 0 LINE"
);
},
{
closed = 1;
nodes = (
"236 83 OFFCURVE",
"257 128 OFFCURVE",
"282 179 CURVE",
"296 190 OFFCURVE",
"316 192 OFFCURVE",
"326 192 CURVE SMOOTH",
"395 192 OFFCURVE",
"414 113 OFFCURVE",
"416 50 CURVE",
"221 50 LINE"
);
},
{
closed = 1;
nodes = (
"427 273 OFFCURVE",
"442 287 OFFCURVE",
"442 305 CURVE SMOOTH",
"442 323 OFFCURVE",
"427 338 OFFCURVE",
"409 338 CURVE SMOOTH",
"391 338 OFFCURVE",
"377 323 OFFCURVE",
"377 305 CURVE SMOOTH",
"377 287 OFFCURVE",
"391 273 OFFCURVE",
"409 273 CURVE SMOOTH"
);
},
{
closed = 1;
nodes = (
"521 113 OFFCURVE",
"540 192 OFFCURVE",
"609 192 CURVE SMOOTH",
"619 192 OFFCURVE",
"642 190 OFFCURVE",
"656 176 CURVE",
"681 126 OFFCURVE",
"702 81 OFFCURVE",
"716 50 CURVE",
"519 50 LINE"
);
},
{
closed = 1;
nodes = (
"114 379 OFFCURVE",
"100 433 OFFCURVE",
"100 469 CURVE SMOOTH",
"100 574 OFFCURVE",
"161 674 OFFCURVE",
"300 674 CURVE SMOOTH",
"337 674 OFFCURVE",
"378 658 OFFCURVE",
"404 641 CURVE",
"403 639 LINE",
"390 643 OFFCURVE",
"357 649 OFFCURVE",
"342 649 CURVE SMOOTH",
"193 649 OFFCURVE",
"133 533 OFFCURVE",
"133 424 CURVE SMOOTH",
"133 401 OFFCURVE",
"140 362 OFFCURVE",
"145 340 CURVE",
"141 339 LINE"
);
},
{
closed = 1;
nodes = (
"463 166 OFFCURVE",
"418 242 OFFCURVE",
"327 242 CURVE SMOOTH",
"321 242 OFFCURVE",
"316 242 OFFCURVE",
"311 241 CURVE",
"368 356 OFFCURVE",
"432 483 OFFCURVE",
"469 549 CURVE",
"510 474 OFFCURVE",
"572 351 OFFCURVE",
"626 240 CURVE",
"620 241 OFFCURVE",
"614 242 OFFCURVE",
"608 242 CURVE SMOOTH",
"517 242 OFFCURVE",
"471 166 OFFCURVE",
"469 50 CURVE",
"466 50 LINE"
);
},
{
closed = 1;
nodes = (
"318 439 OFFCURVE",
"304 461 OFFCURVE",
"304 481 CURVE SMOOTH",
"304 500 OFFCURVE",
"317 517 OFFCURVE",
"345 517 CURVE SMOOTH",
"363 517 OFFCURVE",
"376 510 OFFCURVE",
"388 501 CURVE",
"357 439 LINE"
);
},
{
closed = 1;
nodes = (
"540 273 OFFCURVE",
"555 287 OFFCURVE",
"555 305 CURVE SMOOTH",
"555 323 OFFCURVE",
"540 338 OFFCURVE",
"522 338 CURVE SMOOTH",
"504 338 OFFCURVE",
"490 323 OFFCURVE",
"490 305 CURVE SMOOTH",
"490 287 OFFCURVE",
"504 273 OFFCURVE",
"522 273 CURVE SMOOTH"
);
},
{
closed = 1;
nodes = (
"549 501 LINE",
"561 510 OFFCURVE",
"574 517 OFFCURVE",
"592 517 CURVE SMOOTH",
"620 517 OFFCURVE",
"633 500 OFFCURVE",
"633 481 CURVE SMOOTH",
"633 461 OFFCURVE",
"615 440 OFFCURVE",
"580 440 CURVE"
);
},
{
closed = 1;
nodes = (
"792 340 LINE",
"797 362 OFFCURVE",
"804 401 OFFCURVE",
"804 424 CURVE SMOOTH",
"804 533 OFFCURVE",
"744 649 OFFCURVE",
"595 649 CURVE SMOOTH",
"579 649 OFFCURVE",
"547 646 OFFCURVE",
"530 639 CURVE",
"529 641 LINE",
"555 658 OFFCURVE",
"600 674 OFFCURVE",
"637 674 CURVE SMOOTH",
"776 674 OFFCURVE",
"837 574 OFFCURVE",
"837 469 CURVE SMOOTH",
"837 433 OFFCURVE",
"823 379 OFFCURVE",
"796 339 CURVE"
);
}
);
};
layerId = UUID0;
paths = (
{
closed = 1;
nodes = (
"774 0 LINE",
"774 35 LINE",
"745 101 OFFCURVE",
"673 252 OFFCURVE",
"605 392 CURVE",
"662 401 OFFCURVE",
"683 444 OFFCURVE",
"683 481 CURVE SMOOTH",
"683 528 OFFCURVE",
"654 567 OFFCURVE",
"592 567 CURVE SMOOTH",
"564 567 OFFCURVE",
"543 558 OFFCURVE",
"525 546 CURVE",
"499 594 LINE",
"521 596 OFFCURVE",
"563 599 OFFCURVE",
"595 599 CURVE SMOOTH",
"708 599 OFFCURVE",
"754 509 OFFCURVE",
"754 424 CURVE SMOOTH",
"754 384 OFFCURVE",
"751 344 OFFCURVE",
"731 276 CURVE",
"762 258 LINE",
"828 288 OFFCURVE",
"887 367 OFFCURVE",
"887 469 CURVE SMOOTH",
"887 624 OFFCURVE",
"792 724 OFFCURVE",
"648 724 CURVE SMOOTH",
"573 724 OFFCURVE",
"517 691 OFFCURVE",
"469 645 CURVE",
"420 690 OFFCURVE",
"366 724 OFFCURVE",
"289 724 CURVE SMOOTH",
"145 724 OFFCURVE",
"50 624 OFFCURVE",
"50 469 CURVE SMOOTH",
"50 373 OFFCURVE",
"105 288 OFFCURVE",
"175 258 CURVE",
"206 276 LINE",
"187 342 OFFCURVE",
"183 384 OFFCURVE",
"183 424 CURVE SMOOTH",
"183 509 OFFCURVE",
"229 599 OFFCURVE",
"342 599 CURVE SMOOTH",
"374 599 OFFCURVE",
"414 598 OFFCURVE",
"438 594 CURVE",
"412 546 LINE",
"394 558 OFFCURVE",
"373 567 OFFCURVE",
"345 567 CURVE SMOOTH",
"283 567 OFFCURVE",
"254 528 OFFCURVE",
"254 481 CURVE SMOOTH",
"254 444 OFFCURVE",
"276 400 OFFCURVE",
"332 392 CURVE",
"266 257 OFFCURVE",
"194 105 OFFCURVE",
"163 35 CURVE",
"163 0 LINE"
);
},
{
closed = 1;
nodes = (
"236 83 OFFCURVE",
"257 128 OFFCURVE",
"282 179 CURVE",
"296 190 OFFCURVE",
"316 192 OFFCURVE",
"326 192 CURVE SMOOTH",
"395 192 OFFCURVE",
"414 113 OFFCURVE",
"416 50 CURVE",
"221 50 LINE"
);
},
{
closed = 1;
nodes = (
"427 273 OFFCURVE",
"442 287 OFFCURVE",
"442 305 CURVE SMOOTH",
"442 323 OFFCURVE",
"427 338 OFFCURVE",
"409 338 CURVE SMOOTH",
"391 338 OFFCURVE",
"377 323 OFFCURVE",
"377 305 CURVE SMOOTH",
"377 287 OFFCURVE",
"391 273 OFFCURVE",
"409 273 CURVE SMOOTH"
);
},
{
closed = 1;
nodes = (
"521 113 OFFCURVE",
"540 192 OFFCURVE",
"609 192 CURVE SMOOTH",
"619 192 OFFCURVE",
"642 190 OFFCURVE",
"656 176 CURVE",
"681 126 OFFCURVE",
"702 81 OFFCURVE",
"716 50 CURVE",
"519 50 LINE"
);
},
{
closed = 1;
nodes = (
"114 379 OFFCURVE",
"100 433 OFFCURVE",
"100 469 CURVE SMOOTH",
"100 574 OFFCURVE",
"161 674 OFFCURVE",
"300 674 CURVE SMOOTH",
"337 674 OFFCURVE",
"378 658 OFFCURVE",
"404 641 CURVE",
"403 639 LINE",
"390 643 OFFCURVE",
"357 649 OFFCURVE",
"342 649 CURVE SMOOTH",
"193 649 OFFCURVE",
"133 533 OFFCURVE",
"133 424 CURVE SMOOTH",
"133 401 OFFCURVE",
"140 362 OFFCURVE",
"145 340 CURVE",
"141 339 LINE"
);
},
{
closed = 1;
nodes = (
"463 166 OFFCURVE",
"418 242 OFFCURVE",
"327 242 CURVE SMOOTH",
"321 242 OFFCURVE",
"316 242 OFFCURVE",
"311 241 CURVE",
"368 356 OFFCURVE",
"432 483 OFFCURVE",
"469 549 CURVE",
"510 474 OFFCURVE",
"572 351 OFFCURVE",
"626 240 CURVE",
"620 241 OFFCURVE",
"614 242 OFFCURVE",
"608 242 CURVE SMOOTH",
"517 242 OFFCURVE",
"471 166 OFFCURVE",
"469 50 CURVE",
"466 50 LINE"
);
},
{
closed = 1;
nodes = (
"318 439 OFFCURVE",
"304 461 OFFCURVE",
"304 481 CURVE SMOOTH",
"304 500 OFFCURVE",
"317 517 OFFCURVE",
"345 517 CURVE SMOOTH",
"363 517 OFFCURVE",
"376 510 OFFCURVE",
"388 501 CURVE",
"357 439 LINE"
);
},
{
closed = 1;
nodes = (
"540 273 OFFCURVE",
"555 287 OFFCURVE",
"555 305 CURVE SMOOTH",
"555 323 OFFCURVE",
"540 338 OFFCURVE",
"522 338 CURVE SMOOTH",
"504 338 OFFCURVE",
"490 323 OFFCURVE",
"490 305 CURVE SMOOTH",
"490 287 OFFCURVE",
"504 273 OFFCURVE",
"522 273 CURVE SMOOTH"
);
},
{
closed = 1;
nodes = (
"549 501 LINE",
"561 510 OFFCURVE",
"574 517 OFFCURVE",
"592 517 CURVE SMOOTH",
"620 517 OFFCURVE",
"633 500 OFFCURVE",
"633 481 CURVE SMOOTH",
"633 461 OFFCURVE",
"615 440 OFFCURVE",
"580 440 CURVE"
);
},
{
closed = 1;
nodes = (
"792 340 LINE",
"797 362 OFFCURVE",
"804 401 OFFCURVE",
"804 424 CURVE SMOOTH",
"804 533 OFFCURVE",
"744 649 OFFCURVE",
"595 649 CURVE SMOOTH",
"579 649 OFFCURVE",
"547 646 OFFCURVE",
"530 639 CURVE",
"529 641 LINE",
"555 658 OFFCURVE",
"600 674 OFFCURVE",
"637 674 CURVE SMOOTH",
"776 674 OFFCURVE",
"837 574 OFFCURVE",
"837 469 CURVE SMOOTH",
"837 433 OFFCURVE",
"823 379 OFFCURVE",
"796 339 CURVE"
);
}
);
width = 937;
}
);
unicode = 16806;
},
{
glyphname = u16807;
lastChange = "2017-02-06 17:26:51 +0000";
layers = (
{
background = {
paths = (
{
closed = 1;
nodes = (
"414 36 LINE",
"413 243 LINE",
"518 61 LINE",
"542 36 LINE",
"688 182 LINE",
"663 207 LINE",
"477 313 LINE",
"693 313 LINE",
"727 322 LINE",
"673 521 LINE",
"639 512 LINE",
"455 407 LINE",
"561 590 LINE",
"570 624 LINE",
"371 677 LINE",
"362 643 LINE",
"363 430 LINE",
"257 615 LINE",
"232 640 LINE",
"87 494 LINE",
"112 469 LINE",
"291 364 LINE",
"84 365 LINE",
"50 356 LINE",
"104 158 LINE",
"138 167 LINE",
"319 271 LINE",
"215 88 LINE",
"206 55 LINE",
"405 2 LINE"
);
},
{
closed = 1;
nodes = (
"114 315 LINE",
"294 314 LINE",
"136 224 LINE"
);
},
{
closed = 1;
nodes = (
"274 89 LINE",
"363 245 LINE",
"364 64 LINE"
);
},
{
closed = 1;
nodes = (
"455 269 LINE",
"613 178 LINE",
"547 112 LINE"
);
},
{
closed = 1;
nodes = (
"161 499 LINE",
"228 564 LINE",
"320 405 LINE"
);
},
{
closed = 1;
nodes = (
"639 454 LINE",
"664 364 LINE",
"481 363 LINE"
);
},
{
closed = 1;
nodes = (
"412 615 LINE",
"502 590 LINE",
"412 434 LINE"
);
}
);
};
layerId = UUID0;
paths = (
{
closed = 1;
nodes = (
"414 36 LINE",
"413 243 LINE",
"518 61 LINE",
"542 36 LINE",
"688 182 LINE",
"663 207 LINE",
"477 313 LINE",
"693 313 LINE",
"727 322 LINE",
"673 521 LINE",
"639 512 LINE",
"455 407 LINE",
"561 590 LINE",
"570 624 LINE",
"371 677 LINE",
"362 643 LINE",
"363 430 LINE",
"257 615 LINE",
"232 640 LINE",
"87 494 LINE",
"112 469 LINE",
"291 364 LINE",
"84 365 LINE",
"50 356 LINE",
"104 158 LINE",
"138 167 LINE",
"319 271 LINE",
"215 88 LINE",
"206 55 LINE",
"405 2 LINE"
);
},
{
closed = 1;
nodes = (
"114 315 LINE",
"294 314 LINE",
"136 224 LINE"
);
},
{
closed = 1;
nodes = (
"274 89 LINE",
"363 245 LINE",
"364 64 LINE"
);
},
{
closed = 1;
nodes = (
"455 269 LINE",
"613 178 LINE",
"547 112 LINE"
);
},
{
closed = 1;
nodes = (
"161 499 LINE",
"228 564 LINE",
"320 405 LINE"
);
},
{
closed = 1;
nodes = (
"639 454 LINE",
"664 364 LINE",
"481 363 LINE"
);
},
{
closed = 1;
nodes = (
"412 615 LINE",
"502 590 LINE",
"412 434 LINE"
);
}
);
width = 777;
}
);
unicode = 16807;
},
{
glyphname = u16808;
lastChange = "2017-02-06 17:26:55 +0000";
layers = (
{
background = {
paths = (
{
closed = 1;
nodes = (
"663 0 LINE",
"663 35 LINE",
"591 199 OFFCURVE",
"487 399 OFFCURVE",
"386 480 CURVE SMOOTH",
"289 558 OFFCURVE",
"244 599 OFFCURVE",
"244 671 CURVE SMOOTH",
"244 714 OFFCURVE",
"254 752 OFFCURVE",
"287 810 CURVE",
"269 836 LINE",
"142 832 OFFCURVE",
"106 731 OFFCURVE",
"106 664 CURVE SMOOTH",
"106 615 OFFCURVE",
"120 579 OFFCURVE",
"139 549 CURVE",
"85 534 OFFCURVE",
"50 500 OFFCURVE",
"50 456 CURVE SMOOTH",
"50 395 OFFCURVE",
"114 347 OFFCURVE",
"241 338 CURVE",
"180 243 OFFCURVE",
"128 134 OFFCURVE",
"84 35 CURVE",
"84 0 LINE"
);
},
{
closed = 1;
nodes = (
"161 78 OFFCURVE",
"193 98 OFFCURVE",
"230 98 CURVE SMOOTH",
"267 98 OFFCURVE",
"300 78 OFFCURVE",
"313 50 CURVE",
"148 50 LINE"
);
},
{
closed = 1;
nodes = (
"326 207 OFFCURVE",
"341 221 OFFCURVE",
"341 239 CURVE SMOOTH",
"341 257 OFFCURVE",
"326 272 OFFCURVE",
"308 272 CURVE SMOOTH",
"290 272 OFFCURVE",
"276 257 OFFCURVE",
"276 239 CURVE SMOOTH",
"276 221 OFFCURVE",
"290 207 OFFCURVE",
"308 207 CURVE SMOOTH"
);
},
{
closed = 1;
nodes = (
"448 78 OFFCURVE",
"481 98 OFFCURVE",
"518 98 CURVE SMOOTH",
"555 98 OFFCURVE",
"587 78 OFFCURVE",
"600 50 CURVE",
"435 50 LINE"
);
},
{
closed = 1;
nodes = (
"351 107 OFFCURVE",
"296 148 OFFCURVE",
"230 148 CURVE SMOOTH",
"216 148 OFFCURVE",
"200 145 OFFCURVE",
"187 137 CURVE",
"238 241 OFFCURVE",
"298 352 OFFCURVE",
"371 426 CURVE",
"444 352 OFFCURVE",
"510 241 OFFCURVE",
"561 137 CURVE",
"548 145 OFFCURVE",
"532 148 OFFCURVE",
"518 148 CURVE SMOOTH",
"452 148 OFFCURVE",
"397 107 OFFCURVE",
"383 50 CURVE",
"365 50 LINE"
);
},
{
closed = 1;
nodes = (
"160 387 OFFCURVE",
"100 424 OFFCURVE",
"100 456 CURVE SMOOTH",
"100 486 OFFCURVE",
"143 508 OFFCURVE",
"203 508 CURVE SMOOTH",
"257 508 OFFCURVE",
"298 486 OFFCURVE",
"334 459 CURVE",
"314 439 OFFCURVE",
"292 412 OFFCURVE",
"274 387 CURVE"
);
},
{
closed = 1;
nodes = (
"459 207 OFFCURVE",
"474 221 OFFCURVE",
"474 239 CURVE SMOOTH",
"474 257 OFFCURVE",
"459 272 OFFCURVE",
"441 272 CURVE SMOOTH",
"423 272 OFFCURVE",
"409 257 OFFCURVE",
"409 239 CURVE SMOOTH",
"409 221 OFFCURVE",
"423 207 OFFCURVE",
"441 207 CURVE SMOOTH"
);
},
{
closed = 1;
nodes = (
"223 556 OFFCURVE",
"213 558 OFFCURVE",
"203 558 CURVE SMOOTH",
"193 558 LINE",
"173 583 OFFCURVE",
"156 617 OFFCURVE",
"156 664 CURVE SMOOTH",
"156 702 OFFCURVE",
"174 754 OFFCURVE",
"216 779 CURVE",
"218 777 LINE",
"196 734 OFFCURVE",
"194 695 OFFCURVE",
"194 670 CURVE SMOOTH",
"194 633 OFFCURVE",
"203 598 OFFCURVE",
"233 555 CURVE"
);
}
);
};
layerId = UUID0;
paths = (
{
closed = 1;
nodes = (
"663 0 LINE",
"663 35 LINE",
"591 199 OFFCURVE",
"487 399 OFFCURVE",
"386 480 CURVE SMOOTH",
"289 558 OFFCURVE",
"244 599 OFFCURVE",
"244 671 CURVE SMOOTH",
"244 714 OFFCURVE",
"254 752 OFFCURVE",
"287 810 CURVE",
"269 836 LINE",
"142 832 OFFCURVE",
"106 731 OFFCURVE",
"106 664 CURVE SMOOTH",
"106 615 OFFCURVE",
"120 579 OFFCURVE",
"139 549 CURVE",
"85 534 OFFCURVE",
"50 500 OFFCURVE",
"50 456 CURVE SMOOTH",
"50 395 OFFCURVE",
"114 347 OFFCURVE",
"241 338 CURVE",
"180 243 OFFCURVE",
"128 134 OFFCURVE",
"84 35 CURVE",
"84 0 LINE"
);
},
{
closed = 1;
nodes = (
"161 78 OFFCURVE",
"193 98 OFFCURVE",
"230 98 CURVE SMOOTH",
"267 98 OFFCURVE",
"300 78 OFFCURVE",
"313 50 CURVE",
"148 50 LINE"
);
},
{
closed = 1;
nodes = (
"326 207 OFFCURVE",
"341 221 OFFCURVE",
"341 239 CURVE SMOOTH",
"341 257 OFFCURVE",
"326 272 OFFCURVE",
"308 272 CURVE SMOOTH",
"290 272 OFFCURVE",
"276 257 OFFCURVE",
"276 239 CURVE SMOOTH",
"276 221 OFFCURVE",
"290 207 OFFCURVE",
"308 207 CURVE SMOOTH"
);
},
{
closed = 1;
nodes = (
"448 78 OFFCURVE",
"481 98 OFFCURVE",
"518 98 CURVE SMOOTH",
"555 98 OFFCURVE",
"587 78 OFFCURVE",
"600 50 CURVE",
"435 50 LINE"
);
},
{
closed = 1;
nodes = (
"351 107 OFFCURVE",
"296 148 OFFCURVE",
"230 148 CURVE SMOOTH",
"216 148 OFFCURVE",
"200 145 OFFCURVE",
"187 137 CURVE",
"238 241 OFFCURVE",
"298 352 OFFCURVE",
"371 426 CURVE",
"444 352 OFFCURVE",
"510 241 OFFCURVE",
"561 137 CURVE",
"548 145 OFFCURVE",
"532 148 OFFCURVE",
"518 148 CURVE SMOOTH",
"452 148 OFFCURVE",
"397 107 OFFCURVE",
"383 50 CURVE",
"365 50 LINE"
);
},
{
closed = 1;
nodes = (
"160 387 OFFCURVE",
"100 424 OFFCURVE",
"100 456 CURVE SMOOTH",
"100 486 OFFCURVE",
"143 508 OFFCURVE",
"203 508 CURVE SMOOTH",
"257 508 OFFCURVE",
"298 486 OFFCURVE",
"334 459 CURVE",
"314 439 OFFCURVE",
"292 412 OFFCURVE",
"274 387 CURVE"
);
},
{
closed = 1;
nodes = (
"459 207 OFFCURVE",
"474 221 OFFCURVE",
"474 239 CURVE SMOOTH",
"474 257 OFFCURVE",
"459 272 OFFCURVE",
"441 272 CURVE SMOOTH",
"423 272 OFFCURVE",
"409 257 OFFCURVE",
"409 239 CURVE SMOOTH",
"409 221 OFFCURVE",
"423 207 OFFCURVE",
"441 207 CURVE SMOOTH"
);
},
{
closed = 1;
nodes = (
"223 556 OFFCURVE",
"213 558 OFFCURVE",
"203 558 CURVE SMOOTH",
"193 558 LINE",
"173 583 OFFCURVE",
"156 617 OFFCURVE",
"156 664 CURVE SMOOTH",
"156 702 OFFCURVE",
"174 754 OFFCURVE",
"216 779 CURVE",
"218 777 LINE",
"196 734 OFFCURVE",
"194 695 OFFCURVE",
"194 670 CURVE SMOOTH",
"194 633 OFFCURVE",
"203 598 OFFCURVE",
"233 555 CURVE"
);
}
);
width = 713;
}
);
unicode = 16808;
},
{
glyphname = u16809;
lastChange = "2017-02-06 17:27:00 +0000";
layers = (
{
background = {
paths = (
{
closed = 1;
nodes = (
"373 57 OFFCURVE",
"411 95 OFFCURVE",
"425 166 CURVE",
"497 199 OFFCURVE",
"514 278 OFFCURVE",
"514 352 CURVE SMOOTH",
"514 400 OFFCURVE",
"500 447 OFFCURVE",
"477 481 CURVE",
"520 467 OFFCURVE",
"565 448 OFFCURVE",
"594 436 CURVE SMOOTH",
"620 426 OFFCURVE",
"642 417 OFFCURVE",
"663 417 CURVE SMOOTH",
"677 417 OFFCURVE",
"689 427 OFFCURVE",
"689 449 CURVE SMOOTH",
"689 477 OFFCURVE",
"563 658 OFFCURVE",
"355 658 CURVE SMOOTH",
"165 658 OFFCURVE",
"51 557 OFFCURVE",
"51 469 CURVE SMOOTH",
"51 435 OFFCURVE",
"70 416 OFFCURVE",
"99 416 CURVE SMOOTH",
"114 416 OFFCURVE",
"137 427 OFFCURVE",
"161 440 CURVE SMOOTH",
"187 454 OFFCURVE",
"226 476 OFFCURVE",
"267 489 CURVE",
"239 450 OFFCURVE",
"225 403 OFFCURVE",
"225 352 CURVE SMOOTH",
"225 304 OFFCURVE",
"239 257 OFFCURVE",
"262 223 CURVE",
"219 237 OFFCURVE",
"174 256 OFFCURVE",
"145 268 CURVE SMOOTH",
"119 278 OFFCURVE",
"94 287 OFFCURVE",
"80 287 CURVE SMOOTH",
"57 287 OFFCURVE",
"50 277 OFFCURVE",
"50 260 CURVE SMOOTH",
"50 219 OFFCURVE",
"177 57 OFFCURVE",
"311 57 CURVE SMOOTH"
);
},
{
closed = 1;
nodes = (
"267 106 OFFCURVE",
"187 140 OFFCURVE",
"113 226 CURVE",
"115 229 LINE",
"201 190 OFFCURVE",
"291 157 OFFCURVE",
"371 154 CURVE",
"363 130 OFFCURVE",
"343 106 OFFCURVE",
"313 106 CURVE SMOOTH"
);
},
{
closed = 1;
nodes = (
"301 204 OFFCURVE",
"275 296 OFFCURVE",
"275 352 CURVE SMOOTH",
"275 431 OFFCURVE",
"315 497 OFFCURVE",
"366 500 CURVE SMOOTH",
"438 500 OFFCURVE",
"464 408 OFFCURVE",
"464 352 CURVE SMOOTH",
"464 273 OFFCURVE",
"424 204 OFFCURVE",
"371 204 CURVE SMOOTH"
);
},
{
closed = 1;
nodes = (
"102 467 OFFCURVE",
"101 470 OFFCURVE",
"101 475 CURVE SMOOTH",
"101 526 OFFCURVE",
"195 608 OFFCURVE",
"355 608 CURVE SMOOTH",
"494 608 OFFCURVE",
"590 522 OFFCURVE",
"625 479 CURVE",
"624 476 LINE",
"537 515 OFFCURVE",
"443 550 OFFCURVE",
"363 550 CURVE SMOOTH",
"259 550 OFFCURVE",
"185 510 OFFCURVE",
"137 484 CURVE SMOOTH",
"118 474 OFFCURVE",
"110 467 OFFCURVE",
"107 467 CURVE SMOOTH"
);
}
);
};
layerId = UUID0;
paths = (
{
closed = 1;
nodes = (
"373 57 OFFCURVE",
"411 95 OFFCURVE",
"425 166 CURVE",
"497 199 OFFCURVE",
"514 278 OFFCURVE",
"514 352 CURVE SMOOTH",
"514 400 OFFCURVE",
"500 447 OFFCURVE",
"477 481 CURVE",
"520 467 OFFCURVE",
"565 448 OFFCURVE",
"594 436 CURVE SMOOTH",
"620 425 OFFCURVE",
"642 417 OFFCURVE",
"663 417 CURVE SMOOTH",
"677 417 OFFCURVE",
"689 427 OFFCURVE",
"689 449 CURVE SMOOTH",
"689 477 OFFCURVE",
"563 658 OFFCURVE",
"355 658 CURVE SMOOTH",
"165 658 OFFCURVE",
"51 557 OFFCURVE",
"51 469 CURVE SMOOTH",
"51 435 OFFCURVE",
"70 416 OFFCURVE",
"99 416 CURVE SMOOTH",
"114 416 OFFCURVE",
"137 427 OFFCURVE",
"161 440 CURVE SMOOTH",
"187 454 OFFCURVE",
"226 476 OFFCURVE",
"267 489 CURVE",
"239 450 OFFCURVE",
"225 403 OFFCURVE",
"225 352 CURVE SMOOTH",
"225 304 OFFCURVE",
"239 257 OFFCURVE",
"262 223 CURVE",
"219 237 OFFCURVE",
"174 256 OFFCURVE",
"145 268 CURVE SMOOTH",
"119 279 OFFCURVE",
"94 287 OFFCURVE",
"80 287 CURVE SMOOTH",
"57 287 OFFCURVE",
"50 277 OFFCURVE",
"50 260 CURVE SMOOTH",
"50 219 OFFCURVE",
"177 57 OFFCURVE",
"311 57 CURVE SMOOTH"
);
},
{
closed = 1;
nodes = (
"267 106 OFFCURVE",
"187 140 OFFCURVE",
"113 226 CURVE",
"115 229 LINE",
"201 190 OFFCURVE",
"291 157 OFFCURVE",
"371 154 CURVE",
"363 130 OFFCURVE",
"343 106 OFFCURVE",
"313 106 CURVE SMOOTH"
);
},
{
closed = 1;
nodes = (
"301 204 OFFCURVE",
"275 296 OFFCURVE",
"275 352 CURVE SMOOTH",
"275 431 OFFCURVE",
"317 500 OFFCURVE",
"367 500 CURVE SMOOTH",
"438 500 OFFCURVE",
"464 408 OFFCURVE",
"464 352 CURVE SMOOTH",
"464 273 OFFCURVE",
"424 204 OFFCURVE",
"371 204 CURVE SMOOTH"
);
},
{
closed = 1;
nodes = (
"102 467 OFFCURVE",
"101 470 OFFCURVE",
"101 475 CURVE SMOOTH",
"101 526 OFFCURVE",
"195 608 OFFCURVE",
"355 608 CURVE SMOOTH",
"494 608 OFFCURVE",
"590 522 OFFCURVE",
"625 479 CURVE",
"624 476 LINE",
"537 515 OFFCURVE",
"443 550 OFFCURVE",
"363 550 CURVE SMOOTH",
"259 550 OFFCURVE",
"185 509 OFFCURVE",
"137 484 CURVE SMOOTH",
"118 474 OFFCURVE",
"110 467 OFFCURVE",
"107 467 CURVE SMOOTH"
);
}
);
width = 739;
}
);
unicode = 16809;
},
{
glyphname = u1680A;
lastChange = "2017-02-06 17:27:06 +0000";
layers = (
{
background = {
paths = (
{
closed = 1;
nodes = (
"163 12 LINE",
"184 5 OFFCURVE",
"214 0 OFFCURVE",
"244 0 CURVE SMOOTH",
"295 0 OFFCURVE",
"344 19 OFFCURVE",
"385 55 CURVE",
"426 19 OFFCURVE",
"476 0 OFFCURVE",
"527 0 CURVE SMOOTH",
"556 0 OFFCURVE",
"585 5 OFFCURVE",
"607 12 CURVE",
"698 -33 LINE",
"714 5 LINE",
"651 39 LINE",
"677 57 OFFCURVE",
"696 76 OFFCURVE",
"720 100 CURVE",
"691 128 LINE",
"670 106 OFFCURVE",
"651 89 OFFCURVE",
"629 73 CURVE",
"629 148 LINE",
"588 148 LINE",
"588 60 LINE",
"571 55 OFFCURVE",
"548 50 OFFCURVE",
"527 50 CURVE SMOOTH",
"488 50 OFFCURVE",
"451 65 OFFCURVE",
"420 92 CURVE",
"464 150 OFFCURVE",
"493 232 OFFCURVE",
"493 334 CURVE SMOOTH",
"493 383 OFFCURVE",
"482 430 OFFCURVE",
"468 462 CURVE",
"592 421 LINE",
"620 481 LINE",
"710 514 LINE",
"696 551 LINE",
"635 527 LINE",
"663 585 LINE",
"626 603 LINE",
"601 543 LINE",
"579 599 LINE",
"542 585 LINE",
"576 501 LINE",
"566 478 LINE",
"455 511 LINE",
"475 527 OFFCURVE",
"483 547 OFFCURVE",
"483 570 CURVE SMOOTH",
"483 600 OFFCURVE",
"448 654 OFFCURVE",
"385 686 CURVE",
"322 654 OFFCURVE",
"287 600 OFFCURVE",
"287 570 CURVE SMOOTH",
"287 547 OFFCURVE",
"295 527 OFFCURVE",
"315 511 CURVE",
"204 478 LINE",
"194 501 LINE",
"228 585 LINE",
"191 599 LINE",
"169 543 LINE",
"144 603 LINE",
"107 585 LINE",
"135 527 LINE",
"74 551 LINE",
"60 514 LINE",
"150 481 LINE",
"178 421 LINE",
"302 462 LINE",
"289 432 OFFCURVE",
"277 383 OFFCURVE",
"277 334 CURVE SMOOTH",
"277 232 OFFCURVE",
"306 150 OFFCURVE",
"351 92 CURVE",
"319 65 OFFCURVE",
"282 50 OFFCURVE",
"244 50 CURVE SMOOTH",
"223 50 OFFCURVE",
"199 55 OFFCURVE",
"182 60 CURVE",
"182 148 LINE",
"141 148 LINE",
"141 73 LINE",
"121 87 OFFCURVE",
"96 110 OFFCURVE",
"79 128 CURVE",
"50 100 LINE",
"70 79 OFFCURVE",
"97 55 OFFCURVE",
"119 39 CURVE",
"56 5 LINE",
"72 -33 LINE"
);
},
{
closed = 1;
nodes = (
"350 179 OFFCURVE",
"327 248 OFFCURVE",
"327 334 CURVE SMOOTH",
"327 437 OFFCURVE",
"373 491 OFFCURVE",
"384 491 CURVE SMOOTH",
"397 491 OFFCURVE",
"443 437 OFFCURVE",
"443 334 CURVE SMOOTH",
"443 248 OFFCURVE",
"420 179 OFFCURVE",
"385 130 CURVE"
);
},
{
closed = 1;
nodes = (
"346 534 OFFCURVE",
"337 560 OFFCURVE",
"337 570 CURVE SMOOTH",
"337 584 OFFCURVE",
"353 611 OFFCURVE",
"385 630 CURVE",
"417 611 OFFCURVE",
"433 585 OFFCURVE",
"433 570 CURVE SMOOTH",
"433 560 OFFCURVE",
"424 534 OFFCURVE",
"386 534 CURVE SMOOTH"
);
}
);
};
layerId = UUID0;
paths = (
{
closed = 1;
nodes = (
"163 12 LINE",
"184 5 OFFCURVE",
"214 0 OFFCURVE",
"244 0 CURVE SMOOTH",
"295 0 OFFCURVE",
"344 19 OFFCURVE",
"385 55 CURVE",
"426 19 OFFCURVE",
"476 0 OFFCURVE",
"527 0 CURVE SMOOTH",
"556 0 OFFCURVE",
"585 5 OFFCURVE",
"607 12 CURVE",
"698 -33 LINE",
"714 5 LINE",
"651 39 LINE",
"677 57 OFFCURVE",
"696 76 OFFCURVE",
"720 100 CURVE",
"691 128 LINE",
"670 106 OFFCURVE",
"651 89 OFFCURVE",
"629 73 CURVE",
"629 148 LINE",
"588 148 LINE",
"588 60 LINE",
"571 55 OFFCURVE",
"548 50 OFFCURVE",
"527 50 CURVE SMOOTH",
"488 50 OFFCURVE",
"451 65 OFFCURVE",
"420 92 CURVE",
"464 150 OFFCURVE",
"493 232 OFFCURVE",
"493 334 CURVE SMOOTH",
"493 383 OFFCURVE",
"482 430 OFFCURVE",
"468 462 CURVE",
"592 421 LINE",
"620 481 LINE",
"710 514 LINE",
"696 551 LINE",
"635 527 LINE",
"663 585 LINE",
"626 603 LINE",
"601 543 LINE",
"579 599 LINE",
"542 585 LINE",
"576 501 LINE",
"566 478 LINE",
"455 511 LINE",
"475 527 OFFCURVE",
"483 547 OFFCURVE",
"483 570 CURVE SMOOTH",
"483 600 OFFCURVE",
"448 654 OFFCURVE",
"385 686 CURVE",
"322 654 OFFCURVE",
"287 600 OFFCURVE",
"287 570 CURVE SMOOTH",
"287 547 OFFCURVE",
"295 527 OFFCURVE",
"315 511 CURVE",
"204 478 LINE",
"194 501 LINE",
"228 585 LINE",
"191 599 LINE",
"169 543 LINE",
"144 603 LINE",
"107 585 LINE",
"135 527 LINE",
"74 551 LINE",
"60 514 LINE",
"150 481 LINE",
"178 421 LINE",
"302 462 LINE",
"289 432 OFFCURVE",
"277 383 OFFCURVE",
"277 334 CURVE SMOOTH",
"277 232 OFFCURVE",
"306 150 OFFCURVE",
"351 92 CURVE",
"319 65 OFFCURVE",
"282 50 OFFCURVE",
"244 50 CURVE SMOOTH",
"223 50 OFFCURVE",
"199 55 OFFCURVE",
"182 60 CURVE",
"182 148 LINE",
"141 148 LINE",
"141 73 LINE",
"121 87 OFFCURVE",
"96 110 OFFCURVE",
"79 128 CURVE",
"50 100 LINE",
"70 79 OFFCURVE",
"97 55 OFFCURVE",
"119 39 CURVE",
"56 5 LINE",
"72 -33 LINE"
);
},
{
closed = 1;
nodes = (
"350 179 OFFCURVE",
"327 248 OFFCURVE",
"327 334 CURVE SMOOTH",
"327 437 OFFCURVE",
"373 491 OFFCURVE",
"384 491 CURVE SMOOTH",
"397 491 OFFCURVE",
"443 437 OFFCURVE",
"443 334 CURVE SMOOTH",
"443 248 OFFCURVE",
"420 179 OFFCURVE",
"385 130 CURVE"
);
},
{
closed = 1;
nodes = (
"346 534 OFFCURVE",
"337 560 OFFCURVE",
"337 570 CURVE SMOOTH",
"337 584 OFFCURVE",
"353 611 OFFCURVE",
"385 630 CURVE",
"417 611 OFFCURVE",
"433 585 OFFCURVE",
"433 570 CURVE SMOOTH",
"433 560 OFFCURVE",
"424 534 OFFCURVE",
"386 534 CURVE SMOOTH"
);
}
);
width = 770;
}
);
unicode = 1680A;
},
{
glyphname = u1680B;
lastChange = "2017-02-06 17:27:10 +0000";
layers = (
{
background = {
paths = (
{
closed = 1;
nodes = (
"233 0 LINE",
"317 272 LINE",
"403 0 LINE",
"553 0 LINE",
"553 50 LINE",
"439 50 LINE",
"409 142 LINE",
"450 146 OFFCURVE",
"493 153 OFFCURVE",
"550 165 CURVE",
"550 200 LINE",
"389 516 LINE",
"394 517 OFFCURVE",
"399 517 OFFCURVE",
"405 517 CURVE SMOOTH",
"442 517 OFFCURVE",
"492 505 OFFCURVE",
"541 456 CURVE",
"577 492 LINE",
"517 552 OFFCURVE",
"454 567 OFFCURVE",
"405 567 CURVE SMOOTH",
"390 567 OFFCURVE",
"377 565 OFFCURVE",
"365 563 CURVE",
"350 594 LINE",
"376 611 OFFCURVE",
"395 647 OFFCURVE",
"395 689 CURVE SMOOTH",
"395 748 OFFCURVE",
"358 795 OFFCURVE",
"313 795 CURVE SMOOTH",
"268 795 OFFCURVE",
"232 748 OFFCURVE",
"232 689 CURVE SMOOTH",
"232 647 OFFCURVE",
"250 610 OFFCURVE",
"277 593 CURVE",
"262 563 LINE",
"250 565 OFFCURVE",
"237 567 OFFCURVE",
"222 567 CURVE SMOOTH",
"173 567 OFFCURVE",
"110 552 OFFCURVE",
"50 492 CURVE",
"86 456 LINE",
"135 505 OFFCURVE",
"185 517 OFFCURVE",
"222 517 CURVE SMOOTH",
"228 517 OFFCURVE",
"234 516 OFFCURVE",
"239 516 CURVE",
"86 200 LINE",
"86 165 LINE",
"140 154 OFFCURVE",
"175 149 OFFCURVE",
"226 143 CURVE",
"197 50 LINE",
"83 50 LINE",
"83 0 LINE"
);
},
{
closed = 1;
nodes = (
"202 193 OFFCURVE",
"175 198 OFFCURVE",
"144 204 CURVE",
"314 557 LINE",
"377 426 OFFCURVE",
"431 329 OFFCURVE",
"492 204 CURVE",
"452 197 OFFCURVE",
"425 194 OFFCURVE",
"393 191 CURVE",
"343 344 LINE",
"293 344 LINE",
"293 344 OFFCURVE",
"267 267 OFFCURVE",
"242 190 CURVE"
);
},
{
closed = 1;
nodes = (
"296 633 OFFCURVE",
"282 658 OFFCURVE",
"282 689 CURVE SMOOTH",
"282 720 OFFCURVE",
"296 745 OFFCURVE",
"313 745 CURVE SMOOTH",
"330 745 OFFCURVE",
"345 720 OFFCURVE",
"345 689 CURVE SMOOTH",
"345 658 OFFCURVE",
"330 633 OFFCURVE",
"313 633 CURVE SMOOTH"
);
}
);
};
layerId = UUID0;
paths = (
{
closed = 1;
nodes = (
"233 0 LINE",
"317 272 LINE",
"403 0 LINE",
"553 0 LINE",
"553 50 LINE",
"439 50 LINE",
"409 142 LINE",
"450 146 OFFCURVE",
"493 153 OFFCURVE",
"550 165 CURVE",
"550 200 LINE",
"389 516 LINE",
"394 517 OFFCURVE",
"399 517 OFFCURVE",
"405 517 CURVE SMOOTH",
"442 517 OFFCURVE",
"492 505 OFFCURVE",
"541 456 CURVE",
"577 492 LINE",
"517 552 OFFCURVE",
"454 567 OFFCURVE",
"405 567 CURVE SMOOTH",
"390 567 OFFCURVE",
"377 565 OFFCURVE",
"365 563 CURVE",
"350 594 LINE",
"376 611 OFFCURVE",
"395 647 OFFCURVE",
"395 689 CURVE SMOOTH",
"395 748 OFFCURVE",
"358 795 OFFCURVE",
"313 795 CURVE SMOOTH",
"268 795 OFFCURVE",
"232 748 OFFCURVE",
"232 689 CURVE SMOOTH",
"232 647 OFFCURVE",
"250 610 OFFCURVE",
"277 593 CURVE",
"262 563 LINE",
"250 565 OFFCURVE",
"237 567 OFFCURVE",
"222 567 CURVE SMOOTH",
"173 567 OFFCURVE",
"110 552 OFFCURVE",
"50 492 CURVE",
"86 456 LINE",
"135 505 OFFCURVE",
"185 517 OFFCURVE",
"222 517 CURVE SMOOTH",
"228 517 OFFCURVE",
"234 516 OFFCURVE",
"239 516 CURVE",
"86 200 LINE",
"86 165 LINE",
"140 154 OFFCURVE",
"175 149 OFFCURVE",
"226 143 CURVE",
"197 50 LINE",
"83 50 LINE",
"83 0 LINE"
);
},
{
closed = 1;
nodes = (
"202 193 OFFCURVE",
"175 198 OFFCURVE",
"144 204 CURVE",
"314 557 LINE",
"377 426 OFFCURVE",
"431 329 OFFCURVE",
"492 204 CURVE",
"452 197 OFFCURVE",
"425 194 OFFCURVE",
"393 191 CURVE",
"343 344 LINE",
"293 344 LINE",
"282 311 OFFCURVE",
"260 246 OFFCURVE",
"242 190 CURVE"
);
},
{
closed = 1;
nodes = (
"296 633 OFFCURVE",
"282 658 OFFCURVE",
"282 689 CURVE SMOOTH",
"282 720 OFFCURVE",
"296 745 OFFCURVE",
"313 745 CURVE SMOOTH",
"330 745 OFFCURVE",
"345 720 OFFCURVE",
"345 689 CURVE SMOOTH",
"345 658 OFFCURVE",
"330 633 OFFCURVE",
"313 633 CURVE SMOOTH"
);
}
);
width = 627;
}
);
unicode = 1680B;
},
{
glyphname = u1680C;
lastChange = "2017-02-06 17:27:14 +0000";
layers = (
{
background = {
paths = (
{
closed = 1;
nodes = (
"779 0 LINE",
"779 128 LINE SMOOTH",
"779 226 OFFCURVE",
"755 294 OFFCURVE",
"715 349 CURVE",
"742 354 OFFCURVE",
"768 366 OFFCURVE",
"790 388 CURVE SMOOTH",
"821 419 OFFCURVE",
"837 457 OFFCURVE",
"837 491 CURVE SMOOTH",
"837 514 OFFCURVE",
"830 536 OFFCURVE",
"815 551 CURVE SMOOTH",
"800 566 OFFCURVE",
"778 573 OFFCURVE",
"755 573 CURVE SMOOTH",
"721 573 OFFCURVE",
"683 557 OFFCURVE",
"652 526 CURVE SMOOTH",
"628 502 OFFCURVE",
"615 471 OFFCURVE",
"611 442 CURVE",
"562 471 OFFCURVE",
"504 488 OFFCURVE",
"443 488 CURVE SMOOTH",
"382 488 OFFCURVE",
"324 472 OFFCURVE",
"275 443 CURVE",
"271 472 OFFCURVE",
"259 502 OFFCURVE",
"235 526 CURVE SMOOTH",
"204 557 OFFCURVE",
"166 573 OFFCURVE",
"132 573 CURVE SMOOTH",
"109 573 OFFCURVE",
"87 566 OFFCURVE",
"72 551 CURVE SMOOTH",
"57 536 OFFCURVE",
"50 514 OFFCURVE",
"50 491 CURVE SMOOTH",
"50 457 OFFCURVE",
"66 419 OFFCURVE",
"97 388 CURVE SMOOTH",
"118 366 OFFCURVE",
"145 354 OFFCURVE",
"171 349 CURVE",
"131 293 OFFCURVE",
"108 226 OFFCURVE",
"108 125 CURVE SMOOTH",
"108 0 LINE"
);
},
{
closed = 1;
nodes = (
"363 92 LINE",
"417 273 LINE",
"417 309 LINE",
"258 309 LINE",
"258 273 LINE",
"313 92 LINE"
);
},
{
closed = 1;
nodes = (
"308 264 LINE",
"368 264 LINE",
"338 163 LINE"
);
},
{
closed = 1;
nodes = (
"178 395 OFFCURVE",
"152 407 OFFCURVE",
"132 427 CURVE SMOOTH",
"112 447 OFFCURVE",
"100 473 OFFCURVE",
"100 492 CURVE SMOOTH",
"100 501 OFFCURVE",
"103 510 OFFCURVE",
"108 515 CURVE SMOOTH",
"113 520 OFFCURVE",
"122 523 OFFCURVE",
"131 523 CURVE SMOOTH",
"150 523 OFFCURVE",
"176 511 OFFCURVE",
"196 491 CURVE SMOOTH",
"216 471 OFFCURVE",
"228 445 OFFCURVE",
"228 426 CURVE SMOOTH",
"228 419 OFFCURVE",
"227 412 OFFCURVE",
"224 407 CURVE",
"215 399 LINE",
"210 396 OFFCURVE",
"204 395 OFFCURVE",
"197 395 CURVE SMOOTH"
);
},
{
closed = 1;
nodes = (
"158 128 LINE SMOOTH",
"158 318 OFFCURVE",
"285 438 OFFCURVE",
"443 438 CURVE SMOOTH",
"601 438 OFFCURVE",
"729 318 OFFCURVE",
"729 124 CURVE SMOOTH",
"729 50 LINE",
"158 50 LINE"
);
},
{
closed = 1;
nodes = (
"574 92 LINE",
"628 273 LINE",
"628 309 LINE",
"469 309 LINE",
"469 273 LINE",
"524 92 LINE"
);
},
{
closed = 1;
nodes = (
"519 264 LINE",
"579 264 LINE",
"549 163 LINE"
);
},
{
closed = 1;
nodes = (
"680 395 OFFCURVE",
"672 398 OFFCURVE",
"667 402 CURVE SMOOTH",
"661 407 OFFCURVE",
"659 416 OFFCURVE",
"659 426 CURVE SMOOTH",
"659 445 OFFCURVE",
"671 471 OFFCURVE",
"691 491 CURVE SMOOTH",
"711 511 OFFCURVE",
"737 523 OFFCURVE",
"756 523 CURVE SMOOTH",
"765 523 OFFCURVE",
"774 520 OFFCURVE",
"779 515 CURVE SMOOTH",
"784 510 OFFCURVE",
"787 501 OFFCURVE",
"787 492 CURVE SMOOTH",
"787 473 OFFCURVE",
"775 447 OFFCURVE",
"755 427 CURVE SMOOTH",
"735 407 OFFCURVE",
"709 395 OFFCURVE",
"690 395 CURVE SMOOTH"
);
}
);
};
layerId = UUID0;
paths = (
{
closed = 1;
nodes = (
"779 0 LINE",
"779 128 LINE SMOOTH",
"779 226 OFFCURVE",
"755 294 OFFCURVE",
"715 349 CURVE",
"742 354 OFFCURVE",
"768 366 OFFCURVE",
"790 388 CURVE SMOOTH",
"821 419 OFFCURVE",
"837 457 OFFCURVE",
"837 491 CURVE SMOOTH",
"837 514 OFFCURVE",
"830 536 OFFCURVE",
"815 551 CURVE SMOOTH",
"800 566 OFFCURVE",
"778 573 OFFCURVE",
"755 573 CURVE SMOOTH",
"721 573 OFFCURVE",
"683 557 OFFCURVE",
"652 526 CURVE SMOOTH",
"628 502 OFFCURVE",
"615 471 OFFCURVE",
"611 442 CURVE",
"562 471 OFFCURVE",
"504 488 OFFCURVE",
"443 488 CURVE SMOOTH",
"382 488 OFFCURVE",
"324 472 OFFCURVE",
"275 443 CURVE",
"271 472 OFFCURVE",
"259 502 OFFCURVE",
"235 526 CURVE SMOOTH",
"204 557 OFFCURVE",
"166 573 OFFCURVE",
"132 573 CURVE SMOOTH",
"109 573 OFFCURVE",
"87 566 OFFCURVE",
"72 551 CURVE SMOOTH",
"57 536 OFFCURVE",
"50 514 OFFCURVE",
"50 491 CURVE SMOOTH",
"50 457 OFFCURVE",
"66 419 OFFCURVE",
"97 388 CURVE SMOOTH",
"119 366 OFFCURVE",
"145 354 OFFCURVE",
"171 349 CURVE",
"131 293 OFFCURVE",
"108 226 OFFCURVE",
"108 125 CURVE SMOOTH",
"108 0 LINE"
);
},
{
closed = 1;
nodes = (
"363 92 LINE",
"417 273 LINE",
"417 309 LINE",
"258 309 LINE",
"258 273 LINE",
"313 92 LINE"
);
},
{
closed = 1;
nodes = (
"308 264 LINE",
"368 264 LINE",
"338 163 LINE"
);
},
{
closed = 1;
nodes = (
"178 395 OFFCURVE",
"152 407 OFFCURVE",
"132 427 CURVE SMOOTH",
"112 447 OFFCURVE",
"100 473 OFFCURVE",
"100 492 CURVE SMOOTH",
"100 501 OFFCURVE",
"103 510 OFFCURVE",
"108 515 CURVE SMOOTH",
"113 520 OFFCURVE",
"122 523 OFFCURVE",
"131 523 CURVE SMOOTH",
"150 523 OFFCURVE",
"176 511 OFFCURVE",
"196 491 CURVE SMOOTH",
"216 471 OFFCURVE",
"228 445 OFFCURVE",
"228 426 CURVE SMOOTH",
"228 419 OFFCURVE",
"227 412 OFFCURVE",
"224 407 CURVE",
"215 399 LINE",
"210 396 OFFCURVE",
"204 395 OFFCURVE",
"197 395 CURVE SMOOTH"
);
},
{
closed = 1;
nodes = (
"158 128 LINE SMOOTH",
"158 318 OFFCURVE",
"285 438 OFFCURVE",
"443 438 CURVE SMOOTH",
"601 438 OFFCURVE",
"729 318 OFFCURVE",
"729 124 CURVE SMOOTH",
"729 50 LINE",
"158 50 LINE"
);
},
{
closed = 1;
nodes = (
"574 92 LINE",
"628 273 LINE",
"628 309 LINE",
"469 309 LINE",
"469 273 LINE",
"524 92 LINE"
);
},
{
closed = 1;
nodes = (
"519 264 LINE",
"579 264 LINE",
"549 163 LINE"
);
},
{
closed = 1;
nodes = (
"680 395 OFFCURVE",
"672 398 OFFCURVE",
"667 402 CURVE SMOOTH",
"661 407 OFFCURVE",
"659 416 OFFCURVE",
"659 426 CURVE SMOOTH",
"659 445 OFFCURVE",
"671 471 OFFCURVE",
"691 491 CURVE SMOOTH",
"711 511 OFFCURVE",
"737 523 OFFCURVE",
"756 523 CURVE SMOOTH",
"765 523 OFFCURVE",
"774 520 OFFCURVE",
"779 515 CURVE SMOOTH",
"784 510 OFFCURVE",
"787 501 OFFCURVE",
"787 492 CURVE SMOOTH",
"787 473 OFFCURVE",
"775 447 OFFCURVE",
"755 427 CURVE SMOOTH",
"735 407 OFFCURVE",
"709 395 OFFCURVE",
"690 395 CURVE SMOOTH"
);
}
);
width = 887;
}
);
unicode = 1680C;
},
